<ttFont>
    <TTGlyph name=".notdef" xMin="63" yMin="0" xMax="438" yMax="719">
      <contour>
        <pt x="63" y="0" on="1"/>
        <pt x="63" y="719" on="1"/>
        <pt x="438" y="719" on="1"/>
        <pt x="438" y="0" on="1"/>
      </contour>
      <contour>
        <pt x="125" y="63" on="1"/>
        <pt x="375" y="63" on="1"/>
        <pt x="375" y="657" on="1"/>
        <pt x="125" y="657" on="1"/>
      </contour>
    </TTGlyph>
    <TTGlyph name="A" xMin="23" yMin="0" xMax="585" yMax="633">
      <contour>
        <pt x="585" y="0" on="1"/>
        <pt x="499" y="0" on="1"/>
        <pt x="498" y="22" on="0"/>
        <pt x="485" y="124" on="0"/>
        <pt x="474" y="205" on="1"/>
        <pt x="223" y="205" on="1"/>
        <pt x="123" y="39" on="0"/>
        <pt x="106" y="0" on="1"/>
        <pt x="23" y="0" on="1"/>
        <pt x="93" y="97" on="0"/>
        <pt x="407" y="633" on="1"/>
        <pt x="476" y="633" on="1"/>
        <pt x="489" y="548" on="0"/>
        <pt x="512" y="401" on="0"/>
        <pt x="523" y="338" on="1"/>
        <pt x="548" y="186" on="0"/>
        <pt x="578" y="18" on="0"/>
      </contour>
      <contour>
        <pt x="465" y="263" on="1"/>
        <pt x="457" y="326" on="0"/>
        <pt x="438" y="475" on="0"/>
        <pt x="428" y="563" on="1"/>
        <pt x="400" y="510" on="0"/>
        <pt x="314" y="361" on="0"/>
        <pt x="256" y="263" on="1"/>
      </contour>
    </TTGlyph>
    <TTGlyph name="AE" xMin="-45" yMin="-3" xMax="944" yMax="624">
      <contour>
        <pt x="944" y="624" on="1"/>
        <pt x="932" y="589" on="0"/>
        <pt x="923" y="528" on="1"/>
        <pt x="873" y="528" on="1"/>
        <pt x="876" y="547" on="0"/>
        <pt x="871" y="553" on="1"/>
        <pt x="867" y="560" on="0"/>
        <pt x="808" y="560" on="1"/>
        <pt x="623" y="560" on="1"/>
        <pt x="618" y="539" on="0"/>
        <pt x="596" y="438" on="0"/>
        <pt x="579" y="357" on="1"/>
        <pt x="796" y="357" on="0"/>
        <pt x="832" y="371" on="1"/>
        <pt x="814" y="285" on="1"/>
        <pt x="770" y="302" on="0"/>
        <pt x="567" y="297" on="1"/>
        <pt x="562" y="276" on="0"/>
        <pt x="548" y="216" on="0"/>
        <pt x="539" y="177" on="1"/>
        <pt x="536" y="160" on="0"/>
        <pt x="527" y="104" on="0"/>
        <pt x="520" y="65" on="1"/>
        <pt x="725" y="65" on="1"/>
        <pt x="779" y="65" on="0"/>
        <pt x="790" y="77" on="1"/>
        <pt x="798" y="85" on="0"/>
        <pt x="806" y="108" on="1"/>
        <pt x="855" y="108" on="1"/>
        <pt x="850" y="93" on="0"/>
        <pt x="839" y="39" on="0"/>
        <pt x="832" y="0" on="1"/>
        <pt x="772" y="2" on="0"/>
        <pt x="673" y="4" on="0"/>
        <pt x="632" y="4" on="1"/>
        <pt x="584" y="4" on="0"/>
        <pt x="478" y="1" on="0"/>
        <pt x="418" y="-3" on="1"/>
        <pt x="440" y="41" on="0"/>
        <pt x="474" y="205" on="1"/>
        <pt x="233" y="205" on="1"/>
        <pt x="154" y="122" on="0"/>
        <pt x="59" y="20" on="0"/>
        <pt x="43" y="0" on="1"/>
        <pt x="-45" y="0" on="1"/>
        <pt x="15" y="55" on="0"/>
        <pt x="160" y="207" on="0"/>
        <pt x="248" y="306" on="1"/>
        <pt x="363" y="437" on="0"/>
        <pt x="505" y="593" on="0"/>
        <pt x="532" y="622" on="1"/>
        <pt x="532" y="623" on="1"/>
        <pt x="533" y="623" on="1"/>
        <pt x="552" y="623" on="0"/>
        <pt x="602" y="623" on="0"/>
        <pt x="634" y="622" on="1"/>
        <pt x="720" y="620" on="0"/>
        <pt x="735" y="619" on="1"/>
        <pt x="775" y="618" on="0"/>
        <pt x="878" y="621" on="0"/>
      </contour>
      <contour>
        <pt x="549" y="556" on="1"/>
        <pt x="468" y="463" on="0"/>
        <pt x="286" y="263" on="1"/>
        <pt x="485" y="263" on="1"/>
        <pt x="497" y="312" on="0"/>
        <pt x="529" y="457" on="0"/>
      </contour>
    </TTGlyph>
    <TTGlyph name="AEacute" xMin="-45" yMin="-3" xMax="944" yMax="856">
      <contour>
        <pt x="944" y="624" on="1"/>
        <pt x="932" y="589" on="0"/>
        <pt x="923" y="528" on="1"/>
        <pt x="873" y="528" on="1"/>
        <pt x="876" y="547" on="0"/>
        <pt x="871" y="553" on="1"/>
        <pt x="867" y="560" on="0"/>
        <pt x="808" y="560" on="1"/>
        <pt x="623" y="560" on="1"/>
        <pt x="618" y="539" on="0"/>
        <pt x="596" y="438" on="0"/>
        <pt x="579" y="357" on="1"/>
        <pt x="796" y="357" on="0"/>
        <pt x="832" y="371" on="1"/>
        <pt x="814" y="285" on="1"/>
        <pt x="770" y="302" on="0"/>
        <pt x="567" y="297" on="1"/>
        <pt x="562" y="276" on="0"/>
        <pt x="548" y="216" on="0"/>
        <pt x="539" y="177" on="1"/>
        <pt x="536" y="160" on="0"/>
        <pt x="527" y="104" on="0"/>
        <pt x="520" y="65" on="1"/>
        <pt x="725" y="65" on="1"/>
        <pt x="779" y="65" on="0"/>
        <pt x="790" y="77" on="1"/>
        <pt x="798" y="85" on="0"/>
        <pt x="806" y="108" on="1"/>
        <pt x="855" y="108" on="1"/>
        <pt x="850" y="93" on="0"/>
        <pt x="839" y="39" on="0"/>
        <pt x="832" y="0" on="1"/>
        <pt x="772" y="2" on="0"/>
        <pt x="673" y="4" on="0"/>
        <pt x="632" y="4" on="1"/>
        <pt x="584" y="4" on="0"/>
        <pt x="478" y="1" on="0"/>
        <pt x="418" y="-3" on="1"/>
        <pt x="440" y="41" on="0"/>
        <pt x="474" y="205" on="1"/>
        <pt x="233" y="205" on="1"/>
        <pt x="154" y="122" on="0"/>
        <pt x="59" y="20" on="0"/>
        <pt x="43" y="0" on="1"/>
        <pt x="-45" y="0" on="1"/>
        <pt x="15" y="55" on="0"/>
        <pt x="160" y="207" on="0"/>
        <pt x="248" y="306" on="1"/>
        <pt x="363" y="437" on="0"/>
        <pt x="505" y="593" on="0"/>
        <pt x="532" y="622" on="1"/>
        <pt x="532" y="623" on="1"/>
        <pt x="533" y="623" on="1"/>
        <pt x="552" y="623" on="0"/>
        <pt x="602" y="623" on="0"/>
        <pt x="634" y="622" on="1"/>
        <pt x="720" y="620" on="0"/>
        <pt x="735" y="619" on="1"/>
        <pt x="775" y="618" on="0"/>
        <pt x="878" y="621" on="0"/>
      </contour>
      <contour>
        <pt x="549" y="556" on="1"/>
        <pt x="468" y="463" on="0"/>
        <pt x="286" y="263" on="1"/>
        <pt x="485" y="263" on="1"/>
        <pt x="497" y="312" on="0"/>
        <pt x="529" y="457" on="0"/>
      </contour>
      <contour>
        <pt x="732" y="833" on="1"/>
        <pt x="635" y="666" on="1"/>
        <pt x="588" y="682" on="1"/>
        <pt x="669" y="856" on="1"/>
      </contour>
    </TTGlyph>
    <TTGlyph name="Aacute" xMin="23" yMin="0" xMax="585" yMax="856">
      <contour>
        <pt x="585" y="0" on="1"/>
        <pt x="499" y="0" on="1"/>
        <pt x="498" y="22" on="0"/>
        <pt x="485" y="124" on="0"/>
        <pt x="474" y="205" on="1"/>
        <pt x="223" y="205" on="1"/>
        <pt x="123" y="39" on="0"/>
        <pt x="106" y="0" on="1"/>
        <pt x="23" y="0" on="1"/>
        <pt x="93" y="97" on="0"/>
        <pt x="407" y="633" on="1"/>
        <pt x="476" y="633" on="1"/>
        <pt x="489" y="548" on="0"/>
        <pt x="512" y="401" on="0"/>
        <pt x="523" y="338" on="1"/>
        <pt x="548" y="186" on="0"/>
        <pt x="578" y="18" on="0"/>
      </contour>
      <contour>
        <pt x="465" y="263" on="1"/>
        <pt x="457" y="326" on="0"/>
        <pt x="438" y="475" on="0"/>
        <pt x="428" y="563" on="1"/>
        <pt x="400" y="510" on="0"/>
        <pt x="314" y="361" on="0"/>
        <pt x="256" y="263" on="1"/>
      </contour>
      <contour>
        <pt x="559" y="833" on="1"/>
        <pt x="462" y="666" on="1"/>
        <pt x="415" y="682" on="1"/>
        <pt x="496" y="856" on="1"/>
      </contour>
    </TTGlyph>
    <TTGlyph name="Abreve" xMin="23" yMin="0" xMax="615" yMax="788">
      <contour>
        <pt x="585" y="0" on="1"/>
        <pt x="499" y="0" on="1"/>
        <pt x="498" y="22" on="0"/>
        <pt x="485" y="124" on="0"/>
        <pt x="474" y="205" on="1"/>
        <pt x="223" y="205" on="1"/>
        <pt x="123" y="39" on="0"/>
        <pt x="106" y="0" on="1"/>
        <pt x="23" y="0" on="1"/>
        <pt x="93" y="97" on="0"/>
        <pt x="407" y="633" on="1"/>
        <pt x="476" y="633" on="1"/>
        <pt x="489" y="548" on="0"/>
        <pt x="512" y="401" on="0"/>
        <pt x="523" y="338" on="1"/>
        <pt x="548" y="186" on="0"/>
        <pt x="578" y="18" on="0"/>
      </contour>
      <contour>
        <pt x="465" y="263" on="1"/>
        <pt x="457" y="326" on="0"/>
        <pt x="438" y="475" on="0"/>
        <pt x="428" y="563" on="1"/>
        <pt x="400" y="510" on="0"/>
        <pt x="314" y="361" on="0"/>
        <pt x="256" y="263" on="1"/>
      </contour>
      <contour>
        <pt x="615" y="769" on="1"/>
        <pt x="595" y="743" on="0"/>
        <pt x="558" y="704" on="0"/>
        <pt x="517" y="679" on="0"/>
        <pt x="468" y="666" on="0"/>
        <pt x="437" y="666" on="1"/>
        <pt x="354" y="666" on="0"/>
        <pt x="299" y="769" on="1"/>
        <pt x="336" y="788" on="1"/>
        <pt x="382" y="701" on="0"/>
        <pt x="444" y="702" on="1"/>
        <pt x="489" y="704" on="0"/>
        <pt x="549" y="750" on="0"/>
        <pt x="582" y="788" on="1"/>
      </contour>
    </TTGlyph>
    <TTGlyph name="Acircumflex" xMin="23" yMin="0" xMax="625" yMax="832">
      <contour>
        <pt x="585" y="0" on="1"/>
        <pt x="499" y="0" on="1"/>
        <pt x="498" y="22" on="0"/>
        <pt x="485" y="124" on="0"/>
        <pt x="474" y="205" on="1"/>
        <pt x="223" y="205" on="1"/>
        <pt x="123" y="39" on="0"/>
        <pt x="106" y="0" on="1"/>
        <pt x="23" y="0" on="1"/>
        <pt x="93" y="97" on="0"/>
        <pt x="407" y="633" on="1"/>
        <pt x="476" y="633" on="1"/>
        <pt x="489" y="548" on="0"/>
        <pt x="512" y="401" on="0"/>
        <pt x="523" y="338" on="1"/>
        <pt x="548" y="186" on="0"/>
        <pt x="578" y="18" on="0"/>
      </contour>
      <contour>
        <pt x="465" y="263" on="1"/>
        <pt x="457" y="326" on="0"/>
        <pt x="438" y="475" on="0"/>
        <pt x="428" y="563" on="1"/>
        <pt x="400" y="510" on="0"/>
        <pt x="314" y="361" on="0"/>
        <pt x="256" y="263" on="1"/>
      </contour>
      <contour>
        <pt x="625" y="708" on="1"/>
        <pt x="585" y="674" on="1"/>
        <pt x="464" y="774" on="1"/>
        <pt x="461" y="774" on="0"/>
        <pt x="298" y="669" on="1"/>
        <pt x="269" y="708" on="1"/>
        <pt x="473" y="832" on="1"/>
        <pt x="472" y="831" on="0"/>
        <pt x="549" y="769" on="1"/>
        <pt x="625" y="708" on="0"/>
      </contour>
    </TTGlyph>
    <TTGlyph name="Acute" xMin="250" yMin="666" xMax="394" yMax="856">
      <contour>
        <pt x="394" y="833" on="1"/>
        <pt x="297" y="666" on="1"/>
        <pt x="250" y="682" on="1"/>
        <pt x="331" y="856" on="1"/>
      </contour>
    </TTGlyph>
    <TTGlyph name="Acutesmall" xMin="241" yMin="465" xMax="407" yMax="670">
      <contour>
        <pt x="407" y="635" on="1"/>
        <pt x="407" y="614" on="0"/>
        <pt x="395" y="601" on="1"/>
        <pt x="262" y="465" on="1"/>
        <pt x="241" y="469" on="1"/>
        <pt x="338" y="651" on="1"/>
        <pt x="348" y="670" on="0"/>
        <pt x="374" y="670" on="1"/>
        <pt x="407" y="670" on="0"/>
      </contour>
    </TTGlyph>
    <TTGlyph name="Adieresis" xMin="23" yMin="0" xMax="597" yMax="769">
      <contour>
        <pt x="585" y="0" on="1"/>
        <pt x="499" y="0" on="1"/>
        <pt x="498" y="22" on="0"/>
        <pt x="485" y="124" on="0"/>
        <pt x="474" y="205" on="1"/>
        <pt x="223" y="205" on="1"/>
        <pt x="123" y="39" on="0"/>
        <pt x="106" y="0" on="1"/>
        <pt x="23" y="0" on="1"/>
        <pt x="93" y="97" on="0"/>
        <pt x="407" y="633" on="1"/>
        <pt x="476" y="633" on="1"/>
        <pt x="489" y="548" on="0"/>
        <pt x="512" y="401" on="0"/>
        <pt x="523" y="338" on="1"/>
        <pt x="548" y="186" on="0"/>
        <pt x="578" y="18" on="0"/>
      </contour>
      <contour>
        <pt x="465" y="263" on="1"/>
        <pt x="457" y="326" on="0"/>
        <pt x="438" y="475" on="0"/>
        <pt x="428" y="563" on="1"/>
        <pt x="400" y="510" on="0"/>
        <pt x="314" y="361" on="0"/>
        <pt x="256" y="263" on="1"/>
      </contour>
      <contour>
        <pt x="597" y="719" on="1"/>
        <pt x="592" y="702" on="0"/>
        <pt x="560" y="672" on="0"/>
        <pt x="541" y="672" on="1"/>
        <pt x="520" y="672" on="0"/>
        <pt x="498" y="699" on="0"/>
        <pt x="502" y="719" on="1"/>
        <pt x="506" y="739" on="0"/>
        <pt x="541" y="768" on="0"/>
        <pt x="561" y="768" on="1"/>
        <pt x="578" y="768" on="0"/>
        <pt x="600" y="739" on="0"/>
      </contour>
      <contour>
        <pt x="398" y="722" on="1"/>
        <pt x="395" y="704" on="0"/>
        <pt x="361" y="674" on="0"/>
        <pt x="341" y="674" on="1"/>
        <pt x="321" y="674" on="0"/>
        <pt x="299" y="702" on="0"/>
        <pt x="303" y="722" on="1"/>
        <pt x="307" y="739" on="0"/>
        <pt x="341" y="769" on="0"/>
        <pt x="361" y="769" on="1"/>
        <pt x="381" y="769" on="0"/>
        <pt x="403" y="739" on="0"/>
      </contour>
    </TTGlyph>
    <TTGlyph name="Agrave" xMin="23" yMin="0" xMax="585" yMax="877">
      <contour>
        <pt x="585" y="0" on="1"/>
        <pt x="499" y="0" on="1"/>
        <pt x="498" y="22" on="0"/>
        <pt x="485" y="124" on="0"/>
        <pt x="474" y="205" on="1"/>
        <pt x="223" y="205" on="1"/>
        <pt x="123" y="39" on="0"/>
        <pt x="106" y="0" on="1"/>
        <pt x="23" y="0" on="1"/>
        <pt x="93" y="97" on="0"/>
        <pt x="407" y="633" on="1"/>
        <pt x="476" y="633" on="1"/>
        <pt x="489" y="548" on="0"/>
        <pt x="512" y="401" on="0"/>
        <pt x="523" y="338" on="1"/>
        <pt x="548" y="186" on="0"/>
        <pt x="578" y="18" on="0"/>
      </contour>
      <contour>
        <pt x="465" y="263" on="1"/>
        <pt x="457" y="326" on="0"/>
        <pt x="438" y="475" on="0"/>
        <pt x="428" y="563" on="1"/>
        <pt x="400" y="510" on="0"/>
        <pt x="314" y="361" on="0"/>
        <pt x="256" y="263" on="1"/>
      </contour>
      <contour>
        <pt x="476" y="703" on="1"/>
        <pt x="429" y="687" on="1"/>
        <pt x="332" y="854" on="1"/>
        <pt x="395" y="877" on="1"/>
      </contour>
    </TTGlyph>
    <TTGlyph name="Alpha" xMin="-5" yMin="0" xMax="557" yMax="633">
      <contour>
        <pt x="557" y="0" on="1"/>
        <pt x="471" y="0" on="1"/>
        <pt x="470" y="22" on="0"/>
        <pt x="457" y="124" on="0"/>
        <pt x="446" y="205" on="1"/>
        <pt x="195" y="205" on="1"/>
        <pt x="95" y="39" on="0"/>
        <pt x="78" y="0" on="1"/>
        <pt x="-5" y="0" on="1"/>
        <pt x="65" y="97" on="0"/>
        <pt x="379" y="633" on="1"/>
        <pt x="448" y="633" on="1"/>
        <pt x="461" y="548" on="0"/>
        <pt x="484" y="401" on="0"/>
        <pt x="495" y="338" on="1"/>
        <pt x="520" y="186" on="0"/>
        <pt x="550" y="18" on="0"/>
      </contour>
      <contour>
        <pt x="437" y="263" on="1"/>
        <pt x="429" y="326" on="0"/>
        <pt x="410" y="475" on="0"/>
        <pt x="400" y="563" on="1"/>
        <pt x="372" y="510" on="0"/>
        <pt x="286" y="361" on="0"/>
        <pt x="228" y="263" on="1"/>
      </contour>
    </TTGlyph>
    <TTGlyph name="Amacron" xMin="23" yMin="0" xMax="615" yMax="713">
      <contour>
        <pt x="585" y="0" on="1"/>
        <pt x="499" y="0" on="1"/>
        <pt x="498" y="22" on="0"/>
        <pt x="485" y="124" on="0"/>
        <pt x="474" y="205" on="1"/>
        <pt x="223" y="205" on="1"/>
        <pt x="123" y="39" on="0"/>
        <pt x="106" y="0" on="1"/>
        <pt x="23" y="0" on="1"/>
        <pt x="93" y="97" on="0"/>
        <pt x="407" y="633" on="1"/>
        <pt x="476" y="633" on="1"/>
        <pt x="489" y="548" on="0"/>
        <pt x="512" y="401" on="0"/>
        <pt x="523" y="338" on="1"/>
        <pt x="548" y="186" on="0"/>
        <pt x="578" y="18" on="0"/>
      </contour>
      <contour>
        <pt x="465" y="263" on="1"/>
        <pt x="457" y="326" on="0"/>
        <pt x="438" y="475" on="0"/>
        <pt x="428" y="563" on="1"/>
        <pt x="400" y="510" on="0"/>
        <pt x="314" y="361" on="0"/>
        <pt x="256" y="263" on="1"/>
      </contour>
      <contour>
        <pt x="615" y="713" on="1"/>
        <pt x="605" y="665" on="1"/>
        <pt x="297" y="665" on="1"/>
        <pt x="308" y="713" on="1"/>
      </contour>
    </TTGlyph>
    <TTGlyph name="Aogonek" xMin="23" yMin="-222" xMax="585" yMax="633">
      <contour>
        <pt x="585" y="0" on="1"/>
        <pt x="550" y="0" on="1"/>
        <pt x="520" y="-26" on="0"/>
        <pt x="494" y="-62" on="1"/>
        <pt x="465" y="-103" on="0"/>
        <pt x="465" y="-125" on="1"/>
        <pt x="463" y="-166" on="0"/>
        <pt x="502" y="-166" on="1"/>
        <pt x="513" y="-166" on="0"/>
        <pt x="537" y="-157" on="1"/>
        <pt x="549" y="-152" on="0"/>
        <pt x="567" y="-145" on="0"/>
        <pt x="572" y="-141" on="1"/>
        <pt x="583" y="-193" on="1"/>
        <pt x="548" y="-219" on="0"/>
        <pt x="483" y="-222" on="1"/>
        <pt x="438" y="-222" on="0"/>
        <pt x="395" y="-174" on="0"/>
        <pt x="399" y="-134" on="1"/>
        <pt x="407" y="-53" on="0"/>
        <pt x="498" y="17" on="1"/>
        <pt x="493" y="69" on="0"/>
        <pt x="474" y="205" on="1"/>
        <pt x="223" y="205" on="1"/>
        <pt x="123" y="39" on="0"/>
        <pt x="106" y="0" on="1"/>
        <pt x="23" y="0" on="1"/>
        <pt x="93" y="97" on="0"/>
        <pt x="407" y="633" on="1"/>
        <pt x="476" y="633" on="1"/>
        <pt x="489" y="548" on="0"/>
        <pt x="512" y="401" on="0"/>
        <pt x="523" y="338" on="1"/>
        <pt x="548" y="186" on="0"/>
        <pt x="578" y="18" on="0"/>
      </contour>
      <contour>
        <pt x="465" y="263" on="1"/>
        <pt x="457" y="326" on="0"/>
        <pt x="438" y="475" on="0"/>
        <pt x="428" y="563" on="1"/>
        <pt x="400" y="510" on="0"/>
        <pt x="314" y="361" on="0"/>
        <pt x="256" y="263" on="1"/>
      </contour>
    </TTGlyph>
    <TTGlyph name="Aring" xMin="23" yMin="0" xMax="585" yMax="847">
      <contour>
        <pt x="585" y="0" on="1"/>
        <pt x="499" y="0" on="1"/>
        <pt x="498" y="22" on="0"/>
        <pt x="485" y="124" on="0"/>
        <pt x="474" y="205" on="1"/>
        <pt x="223" y="205" on="1"/>
        <pt x="123" y="39" on="0"/>
        <pt x="106" y="0" on="1"/>
        <pt x="23" y="0" on="1"/>
        <pt x="93" y="97" on="0"/>
        <pt x="407" y="633" on="1"/>
        <pt x="476" y="633" on="1"/>
        <pt x="489" y="548" on="0"/>
        <pt x="512" y="401" on="0"/>
        <pt x="523" y="338" on="1"/>
        <pt x="548" y="186" on="0"/>
        <pt x="578" y="18" on="0"/>
      </contour>
      <contour>
        <pt x="465" y="263" on="1"/>
        <pt x="457" y="326" on="0"/>
        <pt x="438" y="475" on="0"/>
        <pt x="428" y="563" on="1"/>
        <pt x="400" y="510" on="0"/>
        <pt x="314" y="361" on="0"/>
        <pt x="256" y="263" on="1"/>
      </contour>
      <contour>
        <pt x="447" y="663" on="1"/>
        <pt x="414" y="663" on="0"/>
        <pt x="372" y="704" on="0"/>
        <pt x="372" y="736" on="1"/>
        <pt x="372" y="758" on="0"/>
        <pt x="392" y="798" on="0"/>
        <pt x="424" y="829" on="0"/>
        <pt x="465" y="847" on="0"/>
        <pt x="486" y="847" on="1"/>
        <pt x="519" y="847" on="0"/>
        <pt x="560" y="806" on="0"/>
        <pt x="560" y="774" on="1"/>
        <pt x="560" y="753" on="0"/>
        <pt x="541" y="713" on="0"/>
        <pt x="509" y="682" on="0"/>
        <pt x="468" y="663" on="0"/>
      </contour>
      <contour>
        <pt x="526" y="767" on="1"/>
        <pt x="526" y="787" on="0"/>
        <pt x="499" y="813" on="0"/>
        <pt x="479" y="813" on="1"/>
        <pt x="465" y="813" on="0"/>
        <pt x="439" y="801" on="0"/>
        <pt x="419" y="782" on="0"/>
        <pt x="407" y="756" on="0"/>
        <pt x="407" y="743" on="1"/>
        <pt x="407" y="723" on="0"/>
        <pt x="433" y="697" on="0"/>
        <pt x="454" y="697" on="1"/>
        <pt x="468" y="697" on="0"/>
        <pt x="494" y="709" on="0"/>
        <pt x="514" y="728" on="0"/>
        <pt x="526" y="753" on="0"/>
      </contour>
    </TTGlyph>
    <TTGlyph name="Aringacute" xMin="19" yMin="0" xMax="614" yMax="1040">
      <contour>
        <pt x="614" y="1017" on="1"/>
        <pt x="518" y="850" on="1"/>
        <pt x="470" y="866" on="1"/>
        <pt x="551" y="1040" on="1"/>
      </contour>
      <contour>
        <pt x="451" y="653" on="1"/>
        <pt x="418" y="653" on="0"/>
        <pt x="377" y="694" on="0"/>
        <pt x="377" y="726" on="1"/>
        <pt x="377" y="768" on="0"/>
        <pt x="412" y="803" on="1"/>
        <pt x="446" y="837" on="0"/>
        <pt x="490" y="837" on="1"/>
        <pt x="523" y="837" on="0"/>
        <pt x="565" y="796" on="0"/>
        <pt x="565" y="764" on="1"/>
        <pt x="565" y="722" on="0"/>
        <pt x="530" y="687" on="1"/>
        <pt x="496" y="653" on="0"/>
      </contour>
      <contour>
        <pt x="583" y="0" on="1"/>
        <pt x="492" y="0" on="1"/>
        <pt x="491" y="17" on="0"/>
        <pt x="479" y="118" on="0"/>
        <pt x="466" y="205" on="1"/>
        <pt x="215" y="205" on="1"/>
        <pt x="165" y="122" on="0"/>
        <pt x="107" y="20" on="0"/>
        <pt x="99" y="0" on="1"/>
        <pt x="19" y="0" on="1"/>
        <pt x="54" y="49" on="0"/>
        <pt x="245" y="364" on="0"/>
        <pt x="402" y="633" on="1"/>
        <pt x="473" y="633" on="1"/>
        <pt x="486" y="548" on="0"/>
        <pt x="509" y="401" on="0"/>
        <pt x="520" y="338" on="1"/>
        <pt x="570" y="36" on="0"/>
      </contour>
      <contour>
        <pt x="530" y="757" on="1"/>
        <pt x="530" y="777" on="0"/>
        <pt x="504" y="803" on="0"/>
        <pt x="483" y="803" on="1"/>
        <pt x="469" y="803" on="0"/>
        <pt x="444" y="791" on="0"/>
        <pt x="424" y="772" on="0"/>
        <pt x="412" y="746" on="0"/>
        <pt x="412" y="733" on="1"/>
        <pt x="412" y="713" on="0"/>
        <pt x="438" y="687" on="0"/>
        <pt x="459" y="687" on="1"/>
        <pt x="472" y="687" on="0"/>
        <pt x="498" y="699" on="0"/>
        <pt x="518" y="718" on="0"/>
        <pt x="530" y="743" on="0"/>
      </contour>
      <contour>
        <pt x="458" y="266" on="1"/>
        <pt x="447" y="345" on="0"/>
        <pt x="430" y="495" on="0"/>
        <pt x="423" y="567" on="1"/>
        <pt x="400" y="524" on="0"/>
        <pt x="314" y="375" on="0"/>
        <pt x="249" y="266" on="1"/>
      </contour>
    </TTGlyph>
    <TTGlyph name="Atilde" xMin="23" yMin="0" xMax="645" yMax="791">
      <contour>
        <pt x="585" y="0" on="1"/>
        <pt x="499" y="0" on="1"/>
        <pt x="498" y="22" on="0"/>
        <pt x="485" y="124" on="0"/>
        <pt x="474" y="205" on="1"/>
        <pt x="223" y="205" on="1"/>
        <pt x="123" y="39" on="0"/>
        <pt x="106" y="0" on="1"/>
        <pt x="23" y="0" on="1"/>
        <pt x="93" y="97" on="0"/>
        <pt x="407" y="633" on="1"/>
        <pt x="476" y="633" on="1"/>
        <pt x="489" y="548" on="0"/>
        <pt x="512" y="401" on="0"/>
        <pt x="523" y="338" on="1"/>
        <pt x="548" y="186" on="0"/>
        <pt x="578" y="18" on="0"/>
      </contour>
      <contour>
        <pt x="465" y="263" on="1"/>
        <pt x="457" y="326" on="0"/>
        <pt x="438" y="475" on="0"/>
        <pt x="428" y="563" on="1"/>
        <pt x="400" y="510" on="0"/>
        <pt x="314" y="361" on="0"/>
        <pt x="256" y="263" on="1"/>
      </contour>
      <contour>
        <pt x="645" y="766" on="1"/>
        <pt x="593" y="666" on="0"/>
        <pt x="523" y="666" on="1"/>
        <pt x="487" y="666" on="0"/>
        <pt x="426" y="708" on="1"/>
        <pt x="376" y="741" on="0"/>
        <pt x="360" y="740" on="1"/>
        <pt x="332" y="739" on="0"/>
        <pt x="300" y="673" on="1"/>
        <pt x="258" y="692" on="1"/>
        <pt x="313" y="788" on="0"/>
        <pt x="366" y="791" on="1"/>
        <pt x="394" y="792" on="0"/>
        <pt x="457" y="751" on="1"/>
        <pt x="509" y="715" on="0"/>
        <pt x="534" y="713" on="1"/>
        <pt x="543" y="713" on="0"/>
        <pt x="565" y="724" on="0"/>
        <pt x="586" y="745" on="0"/>
        <pt x="603" y="773" on="0"/>
        <pt x="608" y="789" on="1"/>
        <pt x="618" y="784" on="0"/>
        <pt x="636" y="772" on="0"/>
      </contour>
    </TTGlyph>
    <TTGlyph name="B" xMin="16" yMin="-1" xMax="546" yMax="626">
      <contour>
        <pt x="541" y="459" on="1"/>
        <pt x="529" y="403" on="0"/>
        <pt x="484" y="364" on="1"/>
        <pt x="444" y="329" on="0"/>
        <pt x="391" y="321" on="1"/>
        <pt x="429" y="314" on="0"/>
        <pt x="460" y="280" on="1"/>
        <pt x="495" y="242" on="0"/>
        <pt x="495" y="191" on="1"/>
        <pt x="495" y="185" on="0"/>
        <pt x="494" y="173" on="0"/>
        <pt x="493" y="166" on="1"/>
        <pt x="476" y="73" on="0"/>
        <pt x="392" y="30" on="1"/>
        <pt x="331" y="-1" on="0"/>
        <pt x="250" y="-1" on="1"/>
        <pt x="16" y="-1" on="1"/>
        <pt x="34" y="36" on="0"/>
        <pt x="55" y="125" on="1"/>
        <pt x="94" y="308" on="1"/>
        <pt x="133" y="495" on="0"/>
        <pt x="142" y="542" on="1"/>
        <pt x="152" y="587" on="0"/>
        <pt x="149" y="626" on="1"/>
        <pt x="382" y="626" on="1"/>
        <pt x="447" y="626" on="0"/>
        <pt x="489" y="602" on="1"/>
        <pt x="546" y="570" on="0"/>
        <pt x="546" y="501" on="1"/>
        <pt x="546" y="484" on="0"/>
      </contour>
      <contour>
        <pt x="477" y="465" on="1"/>
        <pt x="480" y="478" on="0"/>
        <pt x="480" y="492" on="1"/>
        <pt x="480" y="546" on="0"/>
        <pt x="426" y="566" on="1"/>
        <pt x="396" y="577" on="0"/>
        <pt x="364" y="577" on="1"/>
        <pt x="213" y="576" on="1"/>
        <pt x="164" y="349" on="1"/>
        <pt x="315" y="349" on="1"/>
        <pt x="353" y="349" on="0"/>
        <pt x="391" y="364" on="1"/>
        <pt x="462" y="393" on="0"/>
      </contour>
      <contour>
        <pt x="426" y="170" on="1"/>
        <pt x="427" y="176" on="0"/>
        <pt x="428" y="187" on="0"/>
        <pt x="428" y="192" on="1"/>
        <pt x="428" y="249" on="0"/>
        <pt x="368" y="279" on="1"/>
        <pt x="330" y="298" on="0"/>
        <pt x="300" y="298" on="1"/>
        <pt x="154" y="298" on="1"/>
        <pt x="102" y="54" on="1"/>
        <pt x="257" y="54" on="1"/>
        <pt x="403" y="54" on="0"/>
      </contour>
    </TTGlyph>
    <TTGlyph name="Beta" xMin="30" yMin="-1" xMax="560" yMax="626">
      <contour>
        <pt x="555" y="459" on="1"/>
        <pt x="543" y="403" on="0"/>
        <pt x="498" y="364" on="1"/>
        <pt x="458" y="329" on="0"/>
        <pt x="405" y="321" on="1"/>
        <pt x="443" y="314" on="0"/>
        <pt x="474" y="280" on="1"/>
        <pt x="509" y="242" on="0"/>
        <pt x="509" y="191" on="1"/>
        <pt x="509" y="185" on="0"/>
        <pt x="508" y="173" on="0"/>
        <pt x="507" y="166" on="1"/>
        <pt x="490" y="73" on="0"/>
        <pt x="406" y="30" on="1"/>
        <pt x="345" y="-1" on="0"/>
        <pt x="264" y="-1" on="1"/>
        <pt x="30" y="-1" on="1"/>
        <pt x="48" y="36" on="0"/>
        <pt x="69" y="125" on="1"/>
        <pt x="108" y="308" on="1"/>
        <pt x="118" y="355" on="0"/>
        <pt x="137" y="447" on="0"/>
        <pt x="147" y="495" on="1"/>
        <pt x="166" y="587" on="0"/>
        <pt x="163" y="626" on="1"/>
        <pt x="396" y="626" on="1"/>
        <pt x="461" y="626" on="0"/>
        <pt x="503" y="602" on="1"/>
        <pt x="560" y="570" on="0"/>
        <pt x="560" y="501" on="1"/>
        <pt x="560" y="484" on="0"/>
      </contour>
      <contour>
        <pt x="491" y="465" on="1"/>
        <pt x="494" y="478" on="0"/>
        <pt x="494" y="492" on="1"/>
        <pt x="494" y="546" on="0"/>
        <pt x="440" y="566" on="1"/>
        <pt x="410" y="577" on="0"/>
        <pt x="378" y="577" on="1"/>
        <pt x="227" y="576" on="1"/>
        <pt x="178" y="349" on="1"/>
        <pt x="329" y="349" on="1"/>
        <pt x="367" y="349" on="0"/>
        <pt x="405" y="364" on="1"/>
        <pt x="476" y="393" on="0"/>
      </contour>
      <contour>
        <pt x="440" y="170" on="1"/>
        <pt x="441" y="176" on="0"/>
        <pt x="442" y="187" on="0"/>
        <pt x="442" y="192" on="1"/>
        <pt x="442" y="249" on="0"/>
        <pt x="382" y="279" on="1"/>
        <pt x="344" y="298" on="0"/>
        <pt x="314" y="298" on="1"/>
        <pt x="168" y="298" on="1"/>
        <pt x="116" y="54" on="1"/>
        <pt x="271" y="54" on="1"/>
        <pt x="417" y="54" on="0"/>
      </contour>
    </TTGlyph>
    <TTGlyph name="Breve" xMin="213" yMin="662" xMax="529" yMax="784">
      <contour>
        <pt x="529" y="765" on="1"/>
        <pt x="509" y="739" on="0"/>
        <pt x="472" y="700" on="0"/>
        <pt x="431" y="675" on="0"/>
        <pt x="382" y="662" on="0"/>
        <pt x="351" y="662" on="1"/>
        <pt x="268" y="662" on="0"/>
        <pt x="213" y="765" on="1"/>
        <pt x="250" y="784" on="1"/>
        <pt x="296" y="697" on="0"/>
        <pt x="358" y="698" on="1"/>
        <pt x="403" y="700" on="0"/>
        <pt x="463" y="746" on="0"/>
        <pt x="496" y="784" on="1"/>
      </contour>
    </TTGlyph>
    <TTGlyph name="Brevesmall" xMin="169" yMin="530" xMax="447" yMax="682">
      <contour>
        <pt x="447" y="678" on="1"/>
        <pt x="433" y="616" on="0"/>
        <pt x="389" y="573" on="1"/>
        <pt x="345" y="530" on="0"/>
        <pt x="282" y="530" on="1"/>
        <pt x="169" y="530" on="0"/>
        <pt x="169" y="639" on="1"/>
        <pt x="169" y="659" on="0"/>
        <pt x="173" y="678" on="1"/>
        <pt x="177" y="682" on="1"/>
        <pt x="201" y="682" on="1"/>
        <pt x="196" y="590" on="0"/>
        <pt x="296" y="590" on="1"/>
        <pt x="384" y="590" on="0"/>
        <pt x="422" y="682" on="1"/>
        <pt x="446" y="682" on="1"/>
      </contour>
    </TTGlyph>
    <TTGlyph name="C" xMin="34" yMin="-10" xMax="530" yMax="634">
      <contour>
        <pt x="530" y="614" on="1"/>
        <pt x="524" y="589" on="0"/>
        <pt x="518" y="519" on="1"/>
        <pt x="471" y="519" on="1"/>
        <pt x="472" y="532" on="0"/>
        <pt x="466" y="554" on="1"/>
        <pt x="446" y="578" on="0"/>
        <pt x="380" y="575" on="1"/>
        <pt x="265" y="571" on="0"/>
        <pt x="183" y="463" on="1"/>
        <pt x="105" y="362" on="0"/>
        <pt x="105" y="244" on="1"/>
        <pt x="105" y="162" on="0"/>
        <pt x="149" y="107" on="1"/>
        <pt x="195" y="49" on="0"/>
        <pt x="278" y="49" on="1"/>
        <pt x="339" y="49" on="0"/>
        <pt x="365" y="71" on="1"/>
        <pt x="378" y="83" on="0"/>
        <pt x="388" y="106" on="1"/>
        <pt x="435" y="106" on="1"/>
        <pt x="430" y="89" on="0"/>
        <pt x="417" y="43" on="0"/>
        <pt x="409" y="13" on="1"/>
        <pt x="405" y="14" on="0"/>
        <pt x="354" y="3" on="1"/>
        <pt x="326" y="-4" on="0"/>
        <pt x="276" y="-10" on="0"/>
        <pt x="254" y="-10" on="1"/>
        <pt x="152" y="-10" on="0"/>
        <pt x="91" y="66" on="1"/>
        <pt x="34" y="136" on="0"/>
        <pt x="34" y="242" on="1"/>
        <pt x="34" y="282" on="0"/>
        <pt x="43" y="321" on="1"/>
        <pt x="71" y="455" on="0"/>
        <pt x="164" y="542" on="1"/>
        <pt x="262" y="634" on="0"/>
        <pt x="396" y="634" on="1"/>
        <pt x="437" y="634" on="0"/>
        <pt x="481" y="623" on="1"/>
        <pt x="523" y="613" on="0"/>
      </contour>
    </TTGlyph>
    <TTGlyph name="Cacute" xMin="34" yMin="-10" xMax="530" yMax="856">
      <contour>
        <pt x="530" y="614" on="1"/>
        <pt x="524" y="589" on="0"/>
        <pt x="518" y="519" on="1"/>
        <pt x="471" y="519" on="1"/>
        <pt x="472" y="532" on="0"/>
        <pt x="466" y="554" on="1"/>
        <pt x="446" y="578" on="0"/>
        <pt x="380" y="575" on="1"/>
        <pt x="265" y="571" on="0"/>
        <pt x="183" y="463" on="1"/>
        <pt x="105" y="362" on="0"/>
        <pt x="105" y="244" on="1"/>
        <pt x="105" y="162" on="0"/>
        <pt x="149" y="107" on="1"/>
        <pt x="195" y="49" on="0"/>
        <pt x="278" y="49" on="1"/>
        <pt x="339" y="49" on="0"/>
        <pt x="365" y="71" on="1"/>
        <pt x="378" y="83" on="0"/>
        <pt x="388" y="106" on="1"/>
        <pt x="435" y="106" on="1"/>
        <pt x="430" y="89" on="0"/>
        <pt x="417" y="43" on="0"/>
        <pt x="409" y="13" on="1"/>
        <pt x="405" y="14" on="0"/>
        <pt x="354" y="3" on="1"/>
        <pt x="326" y="-4" on="0"/>
        <pt x="276" y="-10" on="0"/>
        <pt x="254" y="-10" on="1"/>
        <pt x="152" y="-10" on="0"/>
        <pt x="91" y="66" on="1"/>
        <pt x="34" y="136" on="0"/>
        <pt x="34" y="242" on="1"/>
        <pt x="34" y="282" on="0"/>
        <pt x="43" y="321" on="1"/>
        <pt x="71" y="455" on="0"/>
        <pt x="164" y="542" on="1"/>
        <pt x="262" y="634" on="0"/>
        <pt x="396" y="634" on="1"/>
        <pt x="437" y="634" on="0"/>
        <pt x="481" y="623" on="1"/>
        <pt x="523" y="613" on="0"/>
      </contour>
      <contour>
        <pt x="517" y="833" on="1"/>
        <pt x="420" y="666" on="1"/>
        <pt x="373" y="682" on="1"/>
        <pt x="454" y="856" on="1"/>
      </contour>
    </TTGlyph>
    <TTGlyph name="Caron" xMin="216" yMin="664" xMax="561" yMax="819">
      <contour>
        <pt x="561" y="778" on="1"/>
        <pt x="561" y="776" on="0"/>
        <pt x="378" y="664" on="1"/>
        <pt x="347" y="664" on="1"/>
        <pt x="216" y="778" on="1"/>
        <pt x="250" y="817" on="1"/>
        <pt x="366" y="713" on="1"/>
        <pt x="369" y="713" on="0"/>
        <pt x="526" y="819" on="1"/>
      </contour>
    </TTGlyph>
    <TTGlyph name="Caronsmall" xMin="151" yMin="526" xMax="472" yMax="686">
      <contour>
        <pt x="472" y="682" on="1"/>
        <pt x="312" y="526" on="1"/>
        <pt x="245" y="526" on="1"/>
        <pt x="151" y="682" on="1"/>
        <pt x="154" y="686" on="1"/>
        <pt x="186" y="686" on="1"/>
        <pt x="289" y="575" on="1"/>
        <pt x="439" y="686" on="1"/>
        <pt x="471" y="686" on="1"/>
      </contour>
    </TTGlyph>
    <TTGlyph name="Ccaron" xMin="34" yMin="-10" xMax="591" yMax="821">
      <contour>
        <pt x="530" y="614" on="1"/>
        <pt x="524" y="589" on="0"/>
        <pt x="518" y="519" on="1"/>
        <pt x="471" y="519" on="1"/>
        <pt x="472" y="532" on="0"/>
        <pt x="466" y="554" on="1"/>
        <pt x="446" y="578" on="0"/>
        <pt x="380" y="575" on="1"/>
        <pt x="265" y="571" on="0"/>
        <pt x="183" y="463" on="1"/>
        <pt x="105" y="362" on="0"/>
        <pt x="105" y="244" on="1"/>
        <pt x="105" y="162" on="0"/>
        <pt x="149" y="107" on="1"/>
        <pt x="195" y="49" on="0"/>
        <pt x="278" y="49" on="1"/>
        <pt x="339" y="49" on="0"/>
        <pt x="365" y="71" on="1"/>
        <pt x="378" y="83" on="0"/>
        <pt x="388" y="106" on="1"/>
        <pt x="435" y="106" on="1"/>
        <pt x="430" y="89" on="0"/>
        <pt x="417" y="43" on="0"/>
        <pt x="409" y="13" on="1"/>
        <pt x="405" y="14" on="0"/>
        <pt x="354" y="3" on="1"/>
        <pt x="326" y="-4" on="0"/>
        <pt x="276" y="-10" on="0"/>
        <pt x="254" y="-10" on="1"/>
        <pt x="152" y="-10" on="0"/>
        <pt x="91" y="66" on="1"/>
        <pt x="34" y="136" on="0"/>
        <pt x="34" y="242" on="1"/>
        <pt x="34" y="282" on="0"/>
        <pt x="43" y="321" on="1"/>
        <pt x="71" y="455" on="0"/>
        <pt x="164" y="542" on="1"/>
        <pt x="262" y="634" on="0"/>
        <pt x="396" y="634" on="1"/>
        <pt x="437" y="634" on="0"/>
        <pt x="481" y="623" on="1"/>
        <pt x="523" y="613" on="0"/>
      </contour>
      <contour>
        <pt x="591" y="780" on="1"/>
        <pt x="591" y="778" on="0"/>
        <pt x="408" y="666" on="1"/>
        <pt x="377" y="666" on="1"/>
        <pt x="246" y="780" on="1"/>
        <pt x="280" y="819" on="1"/>
        <pt x="396" y="715" on="1"/>
        <pt x="399" y="715" on="0"/>
        <pt x="556" y="821" on="1"/>
      </contour>
    </TTGlyph>
    <TTGlyph name="Ccedilla" xMin="34" yMin="-174" xMax="530" yMax="634">
      <contour>
        <pt x="259" y="-134" on="1"/>
        <pt x="245" y="-156" on="0"/>
        <pt x="215" y="-166" on="1"/>
        <pt x="190" y="-176" on="0"/>
        <pt x="160" y="-174" on="1"/>
        <pt x="127" y="-171" on="0"/>
        <pt x="118" y="-160" on="1"/>
        <pt x="151" y="-120" on="1"/>
        <pt x="163" y="-126" on="0"/>
        <pt x="178" y="-126" on="1"/>
        <pt x="211" y="-126" on="0"/>
        <pt x="221" y="-98" on="1"/>
        <pt x="223" y="-90" on="0"/>
        <pt x="223" y="-86" on="1"/>
        <pt x="223" y="-62" on="0"/>
        <pt x="179" y="-48" on="1"/>
        <pt x="205" y="-5" on="1"/>
        <pt x="123" y="13" on="0"/>
        <pt x="77" y="85" on="1"/>
        <pt x="34" y="152" on="0"/>
        <pt x="34" y="245" on="1"/>
        <pt x="34" y="265" on="0"/>
        <pt x="38" y="303" on="0"/>
        <pt x="42" y="323" on="1"/>
        <pt x="70" y="456" on="0"/>
        <pt x="163" y="543" on="1"/>
        <pt x="260" y="634" on="0"/>
        <pt x="396" y="634" on="1"/>
        <pt x="437" y="634" on="0"/>
        <pt x="481" y="623" on="1"/>
        <pt x="523" y="613" on="0"/>
        <pt x="530" y="614" on="1"/>
        <pt x="524" y="589" on="0"/>
        <pt x="518" y="519" on="1"/>
        <pt x="471" y="519" on="1"/>
        <pt x="472" y="532" on="0"/>
        <pt x="466" y="554" on="1"/>
        <pt x="446" y="578" on="0"/>
        <pt x="380" y="575" on="1"/>
        <pt x="265" y="571" on="0"/>
        <pt x="183" y="463" on="1"/>
        <pt x="105" y="362" on="0"/>
        <pt x="105" y="244" on="1"/>
        <pt x="105" y="162" on="0"/>
        <pt x="149" y="107" on="1"/>
        <pt x="195" y="49" on="0"/>
        <pt x="278" y="49" on="1"/>
        <pt x="339" y="49" on="0"/>
        <pt x="365" y="71" on="1"/>
        <pt x="378" y="83" on="0"/>
        <pt x="388" y="106" on="1"/>
        <pt x="435" y="106" on="1"/>
        <pt x="430" y="89" on="0"/>
        <pt x="417" y="43" on="0"/>
        <pt x="409" y="13" on="1"/>
        <pt x="405" y="14" on="0"/>
        <pt x="354" y="3" on="1"/>
        <pt x="301" y="-10" on="0"/>
        <pt x="255" y="-10" on="1"/>
        <pt x="255" y="-12" on="1"/>
        <pt x="242" y="-29" on="1"/>
        <pt x="275" y="-49" on="0"/>
        <pt x="275" y="-85" on="1"/>
        <pt x="275" y="-109" on="0"/>
      </contour>
    </TTGlyph>
    <TTGlyph name="Ccircumflex" xMin="34" yMin="-10" xMax="575" yMax="832">
      <contour>
        <pt x="530" y="614" on="1"/>
        <pt x="524" y="589" on="0"/>
        <pt x="518" y="519" on="1"/>
        <pt x="471" y="519" on="1"/>
        <pt x="472" y="532" on="0"/>
        <pt x="466" y="554" on="1"/>
        <pt x="446" y="578" on="0"/>
        <pt x="380" y="575" on="1"/>
        <pt x="265" y="571" on="0"/>
        <pt x="183" y="463" on="1"/>
        <pt x="105" y="362" on="0"/>
        <pt x="105" y="244" on="1"/>
        <pt x="105" y="162" on="0"/>
        <pt x="149" y="107" on="1"/>
        <pt x="195" y="49" on="0"/>
        <pt x="278" y="49" on="1"/>
        <pt x="339" y="49" on="0"/>
        <pt x="365" y="71" on="1"/>
        <pt x="378" y="83" on="0"/>
        <pt x="388" y="106" on="1"/>
        <pt x="435" y="106" on="1"/>
        <pt x="430" y="89" on="0"/>
        <pt x="417" y="43" on="0"/>
        <pt x="409" y="13" on="1"/>
        <pt x="405" y="14" on="0"/>
        <pt x="354" y="3" on="1"/>
        <pt x="326" y="-4" on="0"/>
        <pt x="276" y="-10" on="0"/>
        <pt x="254" y="-10" on="1"/>
        <pt x="152" y="-10" on="0"/>
        <pt x="91" y="66" on="1"/>
        <pt x="34" y="136" on="0"/>
        <pt x="34" y="242" on="1"/>
        <pt x="34" y="282" on="0"/>
        <pt x="43" y="321" on="1"/>
        <pt x="71" y="455" on="0"/>
        <pt x="164" y="542" on="1"/>
        <pt x="262" y="634" on="0"/>
        <pt x="396" y="634" on="1"/>
        <pt x="437" y="634" on="0"/>
        <pt x="481" y="623" on="1"/>
        <pt x="523" y="613" on="0"/>
      </contour>
      <contour>
        <pt x="575" y="708" on="1"/>
        <pt x="535" y="674" on="1"/>
        <pt x="414" y="774" on="1"/>
        <pt x="411" y="774" on="0"/>
        <pt x="248" y="669" on="1"/>
        <pt x="219" y="708" on="1"/>
        <pt x="423" y="832" on="1"/>
        <pt x="422" y="831" on="0"/>
        <pt x="499" y="769" on="1"/>
        <pt x="575" y="708" on="0"/>
      </contour>
    </TTGlyph>
    <TTGlyph name="Cdotaccent" xMin="34" yMin="-10" xMax="530" yMax="760">
      <contour>
        <pt x="530" y="614" on="1"/>
        <pt x="524" y="589" on="0"/>
        <pt x="518" y="519" on="1"/>
        <pt x="471" y="519" on="1"/>
        <pt x="472" y="532" on="0"/>
        <pt x="466" y="554" on="1"/>
        <pt x="446" y="578" on="0"/>
        <pt x="380" y="575" on="1"/>
        <pt x="265" y="571" on="0"/>
        <pt x="183" y="463" on="1"/>
        <pt x="105" y="362" on="0"/>
        <pt x="105" y="244" on="1"/>
        <pt x="105" y="162" on="0"/>
        <pt x="149" y="107" on="1"/>
        <pt x="195" y="49" on="0"/>
        <pt x="278" y="49" on="1"/>
        <pt x="339" y="49" on="0"/>
        <pt x="365" y="71" on="1"/>
        <pt x="378" y="83" on="0"/>
        <pt x="388" y="106" on="1"/>
        <pt x="435" y="106" on="1"/>
        <pt x="430" y="89" on="0"/>
        <pt x="417" y="43" on="0"/>
        <pt x="409" y="13" on="1"/>
        <pt x="405" y="14" on="0"/>
        <pt x="354" y="3" on="1"/>
        <pt x="326" y="-4" on="0"/>
        <pt x="276" y="-10" on="0"/>
        <pt x="254" y="-10" on="1"/>
        <pt x="152" y="-10" on="0"/>
        <pt x="91" y="66" on="1"/>
        <pt x="34" y="136" on="0"/>
        <pt x="34" y="242" on="1"/>
        <pt x="34" y="282" on="0"/>
        <pt x="43" y="321" on="1"/>
        <pt x="71" y="455" on="0"/>
        <pt x="164" y="542" on="1"/>
        <pt x="262" y="634" on="0"/>
        <pt x="396" y="634" on="1"/>
        <pt x="437" y="634" on="0"/>
        <pt x="481" y="623" on="1"/>
        <pt x="523" y="613" on="0"/>
      </contour>
      <contour>
        <pt x="454" y="715" on="1"/>
        <pt x="444" y="666" on="0"/>
        <pt x="398" y="666" on="1"/>
        <pt x="359" y="666" on="0"/>
        <pt x="359" y="701" on="1"/>
        <pt x="359" y="725" on="0"/>
        <pt x="393" y="760" on="0"/>
        <pt x="418" y="760" on="1"/>
        <pt x="437" y="760" on="0"/>
        <pt x="458" y="733" on="0"/>
      </contour>
    </TTGlyph>
    <TTGlyph name="Cedilla" xMin="104" yMin="-194" xMax="251" yMax="-9">
      <contour>
        <pt x="251" y="-114" on="1"/>
        <pt x="251" y="-131" on="0"/>
        <pt x="235" y="-160" on="0"/>
        <pt x="209" y="-181" on="0"/>
        <pt x="175" y="-194" on="0"/>
        <pt x="157" y="-194" on="1"/>
        <pt x="104" y="-194" on="0"/>
        <pt x="104" y="-162" on="1"/>
        <pt x="104" y="-138" on="0"/>
        <pt x="127" y="-138" on="1"/>
        <pt x="136" y="-138" on="0"/>
        <pt x="152" y="-151" on="1"/>
        <pt x="169" y="-165" on="0"/>
        <pt x="175" y="-165" on="1"/>
        <pt x="184" y="-165" on="0"/>
        <pt x="206" y="-144" on="0"/>
        <pt x="206" y="-129" on="1"/>
        <pt x="206" y="-91" on="0"/>
        <pt x="149" y="-68" on="1"/>
        <pt x="149" y="-63" on="1"/>
        <pt x="179" y="-9" on="1"/>
        <pt x="213" y="-11" on="1"/>
        <pt x="201" y="-27" on="1"/>
        <pt x="192" y="-39" on="0"/>
        <pt x="209" y="-48" on="1"/>
        <pt x="251" y="-78" on="0"/>
      </contour>
    </TTGlyph>
    <TTGlyph name="Cedillasmall" xMin="-9" yMin="-210" xMax="196" yMax="0">
      <contour>
        <pt x="196" y="-128" on="1"/>
        <pt x="196" y="-173" on="0"/>
        <pt x="154" y="-194" on="1"/>
        <pt x="122" y="-210" on="0"/>
        <pt x="72" y="-210" on="1"/>
        <pt x="42" y="-210" on="0"/>
        <pt x="-9" y="-190" on="1"/>
        <pt x="8" y="-162" on="1"/>
        <pt x="52" y="-176" on="0"/>
        <pt x="76" y="-176" on="1"/>
        <pt x="126" y="-176" on="0"/>
        <pt x="126" y="-131" on="1"/>
        <pt x="126" y="-115" on="0"/>
        <pt x="99" y="-95" on="0"/>
        <pt x="82" y="-95" on="1"/>
        <pt x="75" y="-95" on="0"/>
        <pt x="48" y="-101" on="1"/>
        <pt x="40" y="-93" on="1"/>
        <pt x="99" y="0" on="1"/>
        <pt x="136" y="0" on="1"/>
        <pt x="93" y="-62" on="1"/>
        <pt x="101" y="-61" on="0"/>
        <pt x="112" y="-60" on="0"/>
        <pt x="114" y="-60" on="1"/>
        <pt x="196" y="-60" on="0"/>
      </contour>
    </TTGlyph>
    <TTGlyph name="Chi" xMin="-50" yMin="0" xMax="687" yMax="626">
      <contour>
        <pt x="687" y="626" on="1"/>
        <pt x="658" y="599" on="0"/>
        <pt x="504" y="451" on="0"/>
        <pt x="377" y="329" on="1"/>
        <pt x="569" y="0" on="1"/>
        <pt x="471" y="0" on="1"/>
        <pt x="466" y="18" on="0"/>
        <pt x="450" y="66" on="0"/>
        <pt x="439" y="97" on="1"/>
        <pt x="334" y="290" on="1"/>
        <pt x="141" y="97" on="1"/>
        <pt x="99" y="55" on="0"/>
        <pt x="65" y="0" on="1"/>
        <pt x="-50" y="0" on="1"/>
        <pt x="17" y="63" on="0"/>
        <pt x="193" y="228" on="0"/>
        <pt x="304" y="334" on="1"/>
        <pt x="281" y="372" on="0"/>
        <pt x="241" y="440" on="0"/>
        <pt x="224" y="469" on="1"/>
        <pt x="141" y="607" on="0"/>
        <pt x="119" y="626" on="1"/>
        <pt x="226" y="626" on="1"/>
        <pt x="239" y="587" on="0"/>
        <pt x="262" y="533" on="1"/>
        <pt x="348" y="377" on="1"/>
        <pt x="504" y="530" on="1"/>
        <pt x="544" y="568" on="0"/>
        <pt x="575" y="626" on="1"/>
      </contour>
    </TTGlyph>
    <TTGlyph name="Circumflex" xMin="246" yMin="669" xMax="602" yMax="832">
      <contour>
        <pt x="602" y="708" on="1"/>
        <pt x="562" y="674" on="1"/>
        <pt x="441" y="774" on="1"/>
        <pt x="438" y="774" on="0"/>
        <pt x="275" y="669" on="1"/>
        <pt x="246" y="708" on="1"/>
        <pt x="450" y="832" on="1"/>
        <pt x="449" y="831" on="0"/>
        <pt x="526" y="769" on="1"/>
        <pt x="602" y="708" on="0"/>
      </contour>
    </TTGlyph>
    <TTGlyph name="Circumflexsmall" xMin="121" yMin="526" xMax="438" yMax="686">
      <contour>
        <pt x="438" y="530" on="1"/>
        <pt x="436" y="526" on="1"/>
        <pt x="404" y="526" on="1"/>
        <pt x="302" y="637" on="1"/>
        <pt x="154" y="526" on="1"/>
        <pt x="122" y="526" on="1"/>
        <pt x="121" y="530" on="1"/>
        <pt x="281" y="686" on="1"/>
        <pt x="344" y="686" on="1"/>
      </contour>
    </TTGlyph>
    <TTGlyph name="Commaaccent" xMin="-63" yMin="-248" xMax="54" yMax="-68">
      <contour>
        <pt x="54" y="-68" on="1"/>
        <pt x="41" y="-129" on="1"/>
        <pt x="20" y="-228" on="0"/>
        <pt x="-63" y="-248" on="1"/>
        <pt x="-56" y="-213" on="1"/>
        <pt x="-13" y="-206" on="0"/>
        <pt x="2" y="-135" on="1"/>
        <pt x="-26" y="-135" on="1"/>
        <pt x="-12" y="-68" on="1"/>
      </contour>
    </TTGlyph>
    <TTGlyph name="Commaaccentsmall" xMin="-47" yMin="-207" xMax="46" yMax="-41">
      <contour>
        <pt x="46" y="-104" on="1"/>
        <pt x="46" y="-139" on="0"/>
        <pt x="21" y="-170" on="1"/>
        <pt x="-6" y="-203" on="0"/>
        <pt x="-41" y="-207" on="1"/>
        <pt x="-41" y="-192" on="1"/>
        <pt x="-20" y="-186" on="0"/>
        <pt x="14" y="-147" on="0"/>
        <pt x="14" y="-125" on="1"/>
        <pt x="14" y="-112" on="0"/>
        <pt x="10" y="-113" on="1"/>
        <pt x="7" y="-113" on="0"/>
        <pt x="-4" y="-121" on="0"/>
        <pt x="-7" y="-121" on="1"/>
        <pt x="-24" y="-121" on="0"/>
        <pt x="-47" y="-98" on="0"/>
        <pt x="-47" y="-81" on="1"/>
        <pt x="-47" y="-63" on="0"/>
        <pt x="-20" y="-41" on="0"/>
        <pt x="-2" y="-41" on="1"/>
        <pt x="21" y="-41" on="0"/>
        <pt x="35" y="-62" on="1"/>
        <pt x="46" y="-79" on="0"/>
      </contour>
    </TTGlyph>
    <TTGlyph name="D" xMin="15" yMin="0" xMax="581" yMax="621">
      <contour>
        <pt x="574" y="303" on="1"/>
        <pt x="551" y="157" on="0"/>
        <pt x="444" y="75" on="1"/>
        <pt x="346" y="0" on="0"/>
        <pt x="202" y="0" on="1"/>
        <pt x="15" y="0" on="1"/>
        <pt x="27" y="25" on="0"/>
        <pt x="40" y="75" on="1"/>
        <pt x="47" y="99" on="0"/>
        <pt x="73" y="217" on="0"/>
        <pt x="93" y="312" on="1"/>
        <pt x="101" y="348" on="0"/>
        <pt x="124" y="456" on="0"/>
        <pt x="138" y="529" on="1"/>
        <pt x="148" y="584" on="0"/>
        <pt x="147" y="621" on="1"/>
        <pt x="341" y="621" on="1"/>
        <pt x="456" y="621" on="0"/>
        <pt x="581" y="498" on="0"/>
        <pt x="581" y="386" on="1"/>
        <pt x="581" y="367" on="0"/>
        <pt x="578" y="326" on="0"/>
      </contour>
      <contour>
        <pt x="499" y="303" on="1"/>
        <pt x="508" y="346" on="0"/>
        <pt x="508" y="383" on="1"/>
        <pt x="508" y="551" on="0"/>
        <pt x="320" y="551" on="1"/>
        <pt x="213" y="551" on="1"/>
        <pt x="196" y="470" on="0"/>
        <pt x="146" y="228" on="0"/>
        <pt x="112" y="65" on="1"/>
        <pt x="215" y="65" on="1"/>
        <pt x="327" y="65" on="0"/>
        <pt x="475" y="188" on="0"/>
      </contour>
    </TTGlyph>
    <TTGlyph name="Dcaron" xMin="15" yMin="0" xMax="581" yMax="821">
      <contour>
        <pt x="574" y="303" on="1"/>
        <pt x="551" y="157" on="0"/>
        <pt x="444" y="75" on="1"/>
        <pt x="346" y="0" on="0"/>
        <pt x="202" y="0" on="1"/>
        <pt x="15" y="0" on="1"/>
        <pt x="27" y="25" on="0"/>
        <pt x="40" y="75" on="1"/>
        <pt x="47" y="99" on="0"/>
        <pt x="73" y="217" on="0"/>
        <pt x="93" y="312" on="1"/>
        <pt x="101" y="348" on="0"/>
        <pt x="124" y="456" on="0"/>
        <pt x="138" y="529" on="1"/>
        <pt x="148" y="584" on="0"/>
        <pt x="147" y="621" on="1"/>
        <pt x="341" y="621" on="1"/>
        <pt x="456" y="621" on="0"/>
        <pt x="581" y="498" on="0"/>
        <pt x="581" y="386" on="1"/>
        <pt x="581" y="367" on="0"/>
        <pt x="578" y="326" on="0"/>
      </contour>
      <contour>
        <pt x="499" y="303" on="1"/>
        <pt x="508" y="346" on="0"/>
        <pt x="508" y="383" on="1"/>
        <pt x="508" y="551" on="0"/>
        <pt x="320" y="551" on="1"/>
        <pt x="213" y="551" on="1"/>
        <pt x="196" y="470" on="0"/>
        <pt x="146" y="228" on="0"/>
        <pt x="112" y="65" on="1"/>
        <pt x="215" y="65" on="1"/>
        <pt x="327" y="65" on="0"/>
        <pt x="475" y="188" on="0"/>
      </contour>
      <contour>
        <pt x="561" y="780" on="1"/>
        <pt x="561" y="778" on="0"/>
        <pt x="378" y="666" on="1"/>
        <pt x="347" y="666" on="1"/>
        <pt x="216" y="780" on="1"/>
        <pt x="250" y="819" on="1"/>
        <pt x="366" y="715" on="1"/>
        <pt x="369" y="715" on="0"/>
        <pt x="526" y="821" on="1"/>
      </contour>
    </TTGlyph>
    <TTGlyph name="Delta" xMin="-5" yMin="-1" xMax="549" yMax="632">
      <contour>
        <pt x="549" y="-1" on="1"/>
        <pt x="-5" y="-1" on="1"/>
        <pt x="65" y="96" on="0"/>
        <pt x="373" y="632" on="1"/>
        <pt x="444" y="632" on="1"/>
        <pt x="457" y="547" on="0"/>
        <pt x="478" y="400" on="0"/>
        <pt x="488" y="337" on="1"/>
        <pt x="512" y="185" on="0"/>
        <pt x="542" y="16" on="0"/>
      </contour>
      <contour>
        <pt x="463" y="52" on="1"/>
        <pt x="449" y="148" on="0"/>
        <pt x="415" y="403" on="0"/>
        <pt x="395" y="565" on="1"/>
        <pt x="375" y="527" on="0"/>
        <pt x="303" y="398" on="0"/>
        <pt x="249" y="305" on="1"/>
        <pt x="130" y="99" on="0"/>
        <pt x="105" y="53" on="1"/>
        <pt x="104" y="52" on="0"/>
      </contour>
    </TTGlyph>
    <TTGlyph name="Dieresis" xMin="71" yMin="672" xMax="365" yMax="769">
      <contour>
        <pt x="365" y="719" on="1"/>
        <pt x="360" y="702" on="0"/>
        <pt x="328" y="672" on="0"/>
        <pt x="309" y="672" on="1"/>
        <pt x="288" y="672" on="0"/>
        <pt x="266" y="699" on="0"/>
        <pt x="270" y="719" on="1"/>
        <pt x="274" y="739" on="0"/>
        <pt x="309" y="768" on="0"/>
        <pt x="329" y="768" on="1"/>
        <pt x="346" y="768" on="0"/>
        <pt x="368" y="739" on="0"/>
      </contour>
      <contour>
        <pt x="166" y="722" on="1"/>
        <pt x="163" y="704" on="0"/>
        <pt x="129" y="674" on="0"/>
        <pt x="109" y="674" on="1"/>
        <pt x="89" y="674" on="0"/>
        <pt x="67" y="702" on="0"/>
        <pt x="71" y="722" on="1"/>
        <pt x="75" y="739" on="0"/>
        <pt x="109" y="769" on="0"/>
        <pt x="129" y="769" on="1"/>
        <pt x="149" y="769" on="0"/>
        <pt x="171" y="739" on="0"/>
      </contour>
    </TTGlyph>
    <TTGlyph name="Dieresissmall" xMin="270" yMin="542" xMax="638" yMax="634">
      <contour>
        <pt x="568" y="542" on="1"/>
        <pt x="538" y="542" on="0"/>
        <pt x="538" y="570" on="1"/>
        <pt x="538" y="594" on="0"/>
        <pt x="560" y="613" on="1"/>
        <pt x="582" y="634" on="0"/>
        <pt x="607" y="634" on="1"/>
        <pt x="638" y="634" on="0"/>
        <pt x="638" y="605" on="1"/>
        <pt x="638" y="583" on="0"/>
        <pt x="614" y="562" on="1"/>
        <pt x="591" y="542" on="0"/>
      </contour>
      <contour>
        <pt x="300" y="542" on="1"/>
        <pt x="270" y="542" on="0"/>
        <pt x="270" y="570" on="1"/>
        <pt x="270" y="582" on="0"/>
        <pt x="283" y="605" on="0"/>
        <pt x="303" y="623" on="0"/>
        <pt x="328" y="634" on="0"/>
        <pt x="340" y="634" on="1"/>
        <pt x="370" y="634" on="0"/>
        <pt x="370" y="606" on="1"/>
        <pt x="370" y="584" on="0"/>
        <pt x="346" y="563" on="1"/>
        <pt x="323" y="542" on="0"/>
      </contour>
    </TTGlyph>
    <TTGlyph name="Dmacron" xMin="15" yMin="0" xMax="581" yMax="621">
      <contour>
        <pt x="574" y="303" on="1"/>
        <pt x="551" y="157" on="0"/>
        <pt x="444" y="75" on="1"/>
        <pt x="346" y="0" on="0"/>
        <pt x="202" y="0" on="1"/>
        <pt x="15" y="0" on="1"/>
        <pt x="27" y="25" on="0"/>
        <pt x="40" y="75" on="1"/>
        <pt x="48" y="104" on="0"/>
        <pt x="72" y="211" on="0"/>
        <pt x="89" y="291" on="1"/>
        <pt x="34" y="291" on="1"/>
        <pt x="45" y="343" on="1"/>
        <pt x="100" y="343" on="1"/>
        <pt x="107" y="374" on="0"/>
        <pt x="125" y="466" on="0"/>
        <pt x="138" y="529" on="1"/>
        <pt x="148" y="584" on="0"/>
        <pt x="147" y="621" on="1"/>
        <pt x="341" y="621" on="1"/>
        <pt x="456" y="621" on="0"/>
        <pt x="581" y="498" on="0"/>
        <pt x="581" y="386" on="1"/>
        <pt x="581" y="367" on="0"/>
        <pt x="578" y="326" on="0"/>
      </contour>
      <contour>
        <pt x="499" y="303" on="1"/>
        <pt x="508" y="346" on="0"/>
        <pt x="508" y="383" on="1"/>
        <pt x="508" y="551" on="0"/>
        <pt x="320" y="551" on="1"/>
        <pt x="213" y="551" on="1"/>
        <pt x="205" y="516" on="0"/>
        <pt x="183" y="413" on="0"/>
        <pt x="168" y="343" on="1"/>
        <pt x="328" y="343" on="1"/>
        <pt x="317" y="291" on="1"/>
        <pt x="157" y="291" on="1"/>
        <pt x="150" y="259" on="0"/>
        <pt x="128" y="147" on="0"/>
        <pt x="112" y="65" on="1"/>
        <pt x="215" y="65" on="1"/>
        <pt x="327" y="65" on="0"/>
        <pt x="475" y="188" on="0"/>
      </contour>
    </TTGlyph>
    <TTGlyph name="Dotaccent" xMin="315" yMin="666" xMax="410" yMax="760">
      <contour>
        <pt x="410" y="715" on="1"/>
        <pt x="400" y="666" on="0"/>
        <pt x="354" y="666" on="1"/>
        <pt x="315" y="666" on="0"/>
        <pt x="315" y="701" on="1"/>
        <pt x="315" y="725" on="0"/>
        <pt x="349" y="760" on="0"/>
        <pt x="374" y="760" on="1"/>
        <pt x="393" y="760" on="0"/>
        <pt x="414" y="733" on="0"/>
      </contour>
    </TTGlyph>
    <TTGlyph name="Dotaccentsmall" xMin="241" yMin="553" xMax="350" yMax="659">
      <contour>
        <pt x="284" y="553" on="1"/>
        <pt x="266" y="553" on="0"/>
        <pt x="241" y="577" on="0"/>
        <pt x="241" y="595" on="1"/>
        <pt x="241" y="623" on="0"/>
        <pt x="266" y="644" on="1"/>
        <pt x="285" y="659" on="0"/>
        <pt x="307" y="659" on="1"/>
        <pt x="350" y="659" on="0"/>
        <pt x="350" y="618" on="1"/>
        <pt x="350" y="592" on="0"/>
        <pt x="310" y="553" on="0"/>
      </contour>
    </TTGlyph>
    <TTGlyph name="E" xMin="9" yMin="-3" xMax="534" yMax="624">
      <contour>
        <pt x="534" y="624" on="1"/>
        <pt x="521" y="587" on="0"/>
        <pt x="514" y="528" on="1"/>
        <pt x="464" y="528" on="1"/>
        <pt x="467" y="547" on="0"/>
        <pt x="462" y="553" on="1"/>
        <pt x="458" y="560" on="0"/>
        <pt x="399" y="560" on="1"/>
        <pt x="214" y="560" on="1"/>
        <pt x="209" y="539" on="0"/>
        <pt x="187" y="438" on="0"/>
        <pt x="170" y="357" on="1"/>
        <pt x="387" y="357" on="0"/>
        <pt x="423" y="371" on="1"/>
        <pt x="405" y="285" on="1"/>
        <pt x="361" y="302" on="0"/>
        <pt x="157" y="297" on="1"/>
        <pt x="145" y="241" on="0"/>
        <pt x="118" y="126" on="0"/>
        <pt x="104" y="65" on="1"/>
        <pt x="315" y="65" on="1"/>
        <pt x="370" y="65" on="0"/>
        <pt x="381" y="77" on="1"/>
        <pt x="390" y="88" on="0"/>
        <pt x="397" y="108" on="1"/>
        <pt x="446" y="108" on="1"/>
        <pt x="441" y="93" on="0"/>
        <pt x="430" y="39" on="0"/>
        <pt x="423" y="0" on="1"/>
        <pt x="363" y="2" on="0"/>
        <pt x="263" y="4" on="0"/>
        <pt x="223" y="4" on="1"/>
        <pt x="175" y="4" on="0"/>
        <pt x="69" y="1" on="0"/>
        <pt x="9" y="-3" on="1"/>
        <pt x="20" y="20" on="0"/>
        <pt x="62" y="181" on="0"/>
        <pt x="91" y="321" on="1"/>
        <pt x="148" y="587" on="0"/>
        <pt x="146" y="623" on="1"/>
        <pt x="153" y="622" on="0"/>
        <pt x="242" y="621" on="0"/>
        <pt x="326" y="619" on="1"/>
        <pt x="366" y="618" on="0"/>
        <pt x="469" y="621" on="0"/>
      </contour>
    </TTGlyph>
    <TTGlyph name="Eacute" xMin="9" yMin="-3" xMax="534" yMax="856">
      <contour>
        <pt x="534" y="624" on="1"/>
        <pt x="521" y="587" on="0"/>
        <pt x="514" y="528" on="1"/>
        <pt x="464" y="528" on="1"/>
        <pt x="467" y="547" on="0"/>
        <pt x="462" y="553" on="1"/>
        <pt x="458" y="560" on="0"/>
        <pt x="399" y="560" on="1"/>
        <pt x="214" y="560" on="1"/>
        <pt x="209" y="539" on="0"/>
        <pt x="187" y="438" on="0"/>
        <pt x="170" y="357" on="1"/>
        <pt x="387" y="357" on="0"/>
        <pt x="423" y="371" on="1"/>
        <pt x="405" y="285" on="1"/>
        <pt x="361" y="302" on="0"/>
        <pt x="157" y="297" on="1"/>
        <pt x="145" y="241" on="0"/>
        <pt x="118" y="126" on="0"/>
        <pt x="104" y="65" on="1"/>
        <pt x="315" y="65" on="1"/>
        <pt x="370" y="65" on="0"/>
        <pt x="381" y="77" on="1"/>
        <pt x="390" y="88" on="0"/>
        <pt x="397" y="108" on="1"/>
        <pt x="446" y="108" on="1"/>
        <pt x="441" y="93" on="0"/>
        <pt x="430" y="39" on="0"/>
        <pt x="423" y="0" on="1"/>
        <pt x="363" y="2" on="0"/>
        <pt x="263" y="4" on="0"/>
        <pt x="223" y="4" on="1"/>
        <pt x="175" y="4" on="0"/>
        <pt x="69" y="1" on="0"/>
        <pt x="9" y="-3" on="1"/>
        <pt x="20" y="20" on="0"/>
        <pt x="62" y="181" on="0"/>
        <pt x="91" y="321" on="1"/>
        <pt x="148" y="587" on="0"/>
        <pt x="146" y="623" on="1"/>
        <pt x="153" y="622" on="0"/>
        <pt x="242" y="621" on="0"/>
        <pt x="326" y="619" on="1"/>
        <pt x="366" y="618" on="0"/>
        <pt x="469" y="621" on="0"/>
      </contour>
      <contour>
        <pt x="459" y="833" on="1"/>
        <pt x="362" y="666" on="1"/>
        <pt x="315" y="682" on="1"/>
        <pt x="396" y="856" on="1"/>
      </contour>
    </TTGlyph>
    <TTGlyph name="Ebreve" xMin="9" yMin="-3" xMax="534" yMax="788">
      <contour>
        <pt x="534" y="624" on="1"/>
        <pt x="521" y="587" on="0"/>
        <pt x="514" y="528" on="1"/>
        <pt x="464" y="528" on="1"/>
        <pt x="467" y="547" on="0"/>
        <pt x="462" y="553" on="1"/>
        <pt x="458" y="560" on="0"/>
        <pt x="399" y="560" on="1"/>
        <pt x="214" y="560" on="1"/>
        <pt x="209" y="539" on="0"/>
        <pt x="187" y="438" on="0"/>
        <pt x="170" y="357" on="1"/>
        <pt x="387" y="357" on="0"/>
        <pt x="423" y="371" on="1"/>
        <pt x="405" y="285" on="1"/>
        <pt x="361" y="302" on="0"/>
        <pt x="157" y="297" on="1"/>
        <pt x="145" y="241" on="0"/>
        <pt x="118" y="126" on="0"/>
        <pt x="104" y="65" on="1"/>
        <pt x="315" y="65" on="1"/>
        <pt x="370" y="65" on="0"/>
        <pt x="381" y="77" on="1"/>
        <pt x="390" y="88" on="0"/>
        <pt x="397" y="108" on="1"/>
        <pt x="446" y="108" on="1"/>
        <pt x="441" y="93" on="0"/>
        <pt x="430" y="39" on="0"/>
        <pt x="423" y="0" on="1"/>
        <pt x="363" y="2" on="0"/>
        <pt x="263" y="4" on="0"/>
        <pt x="223" y="4" on="1"/>
        <pt x="175" y="4" on="0"/>
        <pt x="69" y="1" on="0"/>
        <pt x="9" y="-3" on="1"/>
        <pt x="20" y="20" on="0"/>
        <pt x="62" y="181" on="0"/>
        <pt x="91" y="321" on="1"/>
        <pt x="148" y="587" on="0"/>
        <pt x="146" y="623" on="1"/>
        <pt x="153" y="622" on="0"/>
        <pt x="242" y="621" on="0"/>
        <pt x="326" y="619" on="1"/>
        <pt x="366" y="618" on="0"/>
        <pt x="469" y="621" on="0"/>
      </contour>
      <contour>
        <pt x="529" y="769" on="1"/>
        <pt x="509" y="743" on="0"/>
        <pt x="472" y="704" on="0"/>
        <pt x="431" y="679" on="0"/>
        <pt x="382" y="666" on="0"/>
        <pt x="351" y="666" on="1"/>
        <pt x="268" y="666" on="0"/>
        <pt x="213" y="769" on="1"/>
        <pt x="250" y="788" on="1"/>
        <pt x="296" y="701" on="0"/>
        <pt x="358" y="702" on="1"/>
        <pt x="403" y="704" on="0"/>
        <pt x="463" y="750" on="0"/>
        <pt x="496" y="788" on="1"/>
      </contour>
    </TTGlyph>
    <TTGlyph name="Ecaron" xMin="9" yMin="-3" xMax="561" yMax="821">
      <contour>
        <pt x="534" y="624" on="1"/>
        <pt x="521" y="587" on="0"/>
        <pt x="514" y="528" on="1"/>
        <pt x="464" y="528" on="1"/>
        <pt x="467" y="547" on="0"/>
        <pt x="462" y="553" on="1"/>
        <pt x="458" y="560" on="0"/>
        <pt x="399" y="560" on="1"/>
        <pt x="214" y="560" on="1"/>
        <pt x="209" y="539" on="0"/>
        <pt x="187" y="438" on="0"/>
        <pt x="170" y="357" on="1"/>
        <pt x="387" y="357" on="0"/>
        <pt x="423" y="371" on="1"/>
        <pt x="405" y="285" on="1"/>
        <pt x="361" y="302" on="0"/>
        <pt x="157" y="297" on="1"/>
        <pt x="145" y="241" on="0"/>
        <pt x="118" y="126" on="0"/>
        <pt x="104" y="65" on="1"/>
        <pt x="315" y="65" on="1"/>
        <pt x="370" y="65" on="0"/>
        <pt x="381" y="77" on="1"/>
        <pt x="390" y="88" on="0"/>
        <pt x="397" y="108" on="1"/>
        <pt x="446" y="108" on="1"/>
        <pt x="441" y="93" on="0"/>
        <pt x="430" y="39" on="0"/>
        <pt x="423" y="0" on="1"/>
        <pt x="363" y="2" on="0"/>
        <pt x="263" y="4" on="0"/>
        <pt x="223" y="4" on="1"/>
        <pt x="175" y="4" on="0"/>
        <pt x="69" y="1" on="0"/>
        <pt x="9" y="-3" on="1"/>
        <pt x="20" y="20" on="0"/>
        <pt x="62" y="181" on="0"/>
        <pt x="91" y="321" on="1"/>
        <pt x="148" y="587" on="0"/>
        <pt x="146" y="623" on="1"/>
        <pt x="153" y="622" on="0"/>
        <pt x="242" y="621" on="0"/>
        <pt x="326" y="619" on="1"/>
        <pt x="366" y="618" on="0"/>
        <pt x="469" y="621" on="0"/>
      </contour>
      <contour>
        <pt x="561" y="780" on="1"/>
        <pt x="561" y="778" on="0"/>
        <pt x="378" y="666" on="1"/>
        <pt x="347" y="666" on="1"/>
        <pt x="216" y="780" on="1"/>
        <pt x="250" y="819" on="1"/>
        <pt x="366" y="715" on="1"/>
        <pt x="369" y="715" on="0"/>
        <pt x="526" y="821" on="1"/>
      </contour>
    </TTGlyph>
    <TTGlyph name="Ecircumflex" xMin="9" yMin="-3" xMax="542" yMax="832">
      <contour>
        <pt x="534" y="624" on="1"/>
        <pt x="521" y="587" on="0"/>
        <pt x="514" y="528" on="1"/>
        <pt x="464" y="528" on="1"/>
        <pt x="467" y="547" on="0"/>
        <pt x="462" y="553" on="1"/>
        <pt x="458" y="560" on="0"/>
        <pt x="399" y="560" on="1"/>
        <pt x="214" y="560" on="1"/>
        <pt x="209" y="539" on="0"/>
        <pt x="187" y="438" on="0"/>
        <pt x="170" y="357" on="1"/>
        <pt x="387" y="357" on="0"/>
        <pt x="423" y="371" on="1"/>
        <pt x="405" y="285" on="1"/>
        <pt x="361" y="302" on="0"/>
        <pt x="157" y="297" on="1"/>
        <pt x="145" y="241" on="0"/>
        <pt x="118" y="126" on="0"/>
        <pt x="104" y="65" on="1"/>
        <pt x="315" y="65" on="1"/>
        <pt x="370" y="65" on="0"/>
        <pt x="381" y="77" on="1"/>
        <pt x="390" y="88" on="0"/>
        <pt x="397" y="108" on="1"/>
        <pt x="446" y="108" on="1"/>
        <pt x="441" y="93" on="0"/>
        <pt x="430" y="39" on="0"/>
        <pt x="423" y="0" on="1"/>
        <pt x="363" y="2" on="0"/>
        <pt x="263" y="4" on="0"/>
        <pt x="223" y="4" on="1"/>
        <pt x="175" y="4" on="0"/>
        <pt x="69" y="1" on="0"/>
        <pt x="9" y="-3" on="1"/>
        <pt x="20" y="20" on="0"/>
        <pt x="62" y="181" on="0"/>
        <pt x="91" y="321" on="1"/>
        <pt x="148" y="587" on="0"/>
        <pt x="146" y="623" on="1"/>
        <pt x="153" y="622" on="0"/>
        <pt x="242" y="621" on="0"/>
        <pt x="326" y="619" on="1"/>
        <pt x="366" y="618" on="0"/>
        <pt x="469" y="621" on="0"/>
      </contour>
      <contour>
        <pt x="542" y="708" on="1"/>
        <pt x="502" y="674" on="1"/>
        <pt x="381" y="774" on="1"/>
        <pt x="378" y="774" on="0"/>
        <pt x="215" y="669" on="1"/>
        <pt x="186" y="708" on="1"/>
        <pt x="390" y="832" on="1"/>
        <pt x="389" y="831" on="0"/>
        <pt x="466" y="769" on="1"/>
        <pt x="542" y="708" on="0"/>
      </contour>
    </TTGlyph>
    <TTGlyph name="Edieresis" xMin="9" yMin="-3" xMax="534" yMax="769">
      <contour>
        <pt x="534" y="624" on="1"/>
        <pt x="521" y="587" on="0"/>
        <pt x="514" y="528" on="1"/>
        <pt x="464" y="528" on="1"/>
        <pt x="467" y="547" on="0"/>
        <pt x="462" y="553" on="1"/>
        <pt x="458" y="560" on="0"/>
        <pt x="399" y="560" on="1"/>
        <pt x="214" y="560" on="1"/>
        <pt x="209" y="539" on="0"/>
        <pt x="187" y="438" on="0"/>
        <pt x="170" y="357" on="1"/>
        <pt x="387" y="357" on="0"/>
        <pt x="423" y="371" on="1"/>
        <pt x="405" y="285" on="1"/>
        <pt x="361" y="302" on="0"/>
        <pt x="157" y="297" on="1"/>
        <pt x="145" y="241" on="0"/>
        <pt x="118" y="126" on="0"/>
        <pt x="104" y="65" on="1"/>
        <pt x="315" y="65" on="1"/>
        <pt x="370" y="65" on="0"/>
        <pt x="381" y="77" on="1"/>
        <pt x="390" y="88" on="0"/>
        <pt x="397" y="108" on="1"/>
        <pt x="446" y="108" on="1"/>
        <pt x="441" y="93" on="0"/>
        <pt x="430" y="39" on="0"/>
        <pt x="423" y="0" on="1"/>
        <pt x="363" y="2" on="0"/>
        <pt x="263" y="4" on="0"/>
        <pt x="223" y="4" on="1"/>
        <pt x="175" y="4" on="0"/>
        <pt x="69" y="1" on="0"/>
        <pt x="9" y="-3" on="1"/>
        <pt x="20" y="20" on="0"/>
        <pt x="62" y="181" on="0"/>
        <pt x="91" y="321" on="1"/>
        <pt x="148" y="587" on="0"/>
        <pt x="146" y="623" on="1"/>
        <pt x="153" y="622" on="0"/>
        <pt x="242" y="621" on="0"/>
        <pt x="326" y="619" on="1"/>
        <pt x="366" y="618" on="0"/>
        <pt x="469" y="621" on="0"/>
      </contour>
      <contour>
        <pt x="511" y="719" on="1"/>
        <pt x="506" y="702" on="0"/>
        <pt x="474" y="672" on="0"/>
        <pt x="455" y="672" on="1"/>
        <pt x="434" y="672" on="0"/>
        <pt x="412" y="699" on="0"/>
        <pt x="416" y="719" on="1"/>
        <pt x="420" y="739" on="0"/>
        <pt x="455" y="768" on="0"/>
        <pt x="475" y="768" on="1"/>
        <pt x="492" y="768" on="0"/>
        <pt x="514" y="739" on="0"/>
      </contour>
      <contour>
        <pt x="312" y="722" on="1"/>
        <pt x="309" y="704" on="0"/>
        <pt x="275" y="674" on="0"/>
        <pt x="255" y="674" on="1"/>
        <pt x="235" y="674" on="0"/>
        <pt x="213" y="702" on="0"/>
        <pt x="217" y="722" on="1"/>
        <pt x="221" y="739" on="0"/>
        <pt x="255" y="769" on="0"/>
        <pt x="275" y="769" on="1"/>
        <pt x="295" y="769" on="0"/>
        <pt x="317" y="739" on="0"/>
      </contour>
    </TTGlyph>
    <TTGlyph name="Edotaccent" xMin="9" yMin="-3" xMax="534" yMax="760">
      <contour>
        <pt x="534" y="624" on="1"/>
        <pt x="521" y="587" on="0"/>
        <pt x="514" y="528" on="1"/>
        <pt x="464" y="528" on="1"/>
        <pt x="467" y="547" on="0"/>
        <pt x="462" y="553" on="1"/>
        <pt x="458" y="560" on="0"/>
        <pt x="399" y="560" on="1"/>
        <pt x="214" y="560" on="1"/>
        <pt x="209" y="539" on="0"/>
        <pt x="187" y="438" on="0"/>
        <pt x="170" y="357" on="1"/>
        <pt x="387" y="357" on="0"/>
        <pt x="423" y="371" on="1"/>
        <pt x="405" y="285" on="1"/>
        <pt x="361" y="302" on="0"/>
        <pt x="157" y="297" on="1"/>
        <pt x="145" y="241" on="0"/>
        <pt x="118" y="126" on="0"/>
        <pt x="104" y="65" on="1"/>
        <pt x="315" y="65" on="1"/>
        <pt x="370" y="65" on="0"/>
        <pt x="381" y="77" on="1"/>
        <pt x="390" y="88" on="0"/>
        <pt x="397" y="108" on="1"/>
        <pt x="446" y="108" on="1"/>
        <pt x="441" y="93" on="0"/>
        <pt x="430" y="39" on="0"/>
        <pt x="423" y="0" on="1"/>
        <pt x="363" y="2" on="0"/>
        <pt x="263" y="4" on="0"/>
        <pt x="223" y="4" on="1"/>
        <pt x="175" y="4" on="0"/>
        <pt x="69" y="1" on="0"/>
        <pt x="9" y="-3" on="1"/>
        <pt x="20" y="20" on="0"/>
        <pt x="62" y="181" on="0"/>
        <pt x="91" y="321" on="1"/>
        <pt x="148" y="587" on="0"/>
        <pt x="146" y="623" on="1"/>
        <pt x="153" y="622" on="0"/>
        <pt x="242" y="621" on="0"/>
        <pt x="326" y="619" on="1"/>
        <pt x="366" y="618" on="0"/>
        <pt x="469" y="621" on="0"/>
      </contour>
      <contour>
        <pt x="410" y="715" on="1"/>
        <pt x="400" y="666" on="0"/>
        <pt x="354" y="666" on="1"/>
        <pt x="315" y="666" on="0"/>
        <pt x="315" y="701" on="1"/>
        <pt x="315" y="725" on="0"/>
        <pt x="349" y="760" on="0"/>
        <pt x="374" y="760" on="1"/>
        <pt x="393" y="760" on="0"/>
        <pt x="414" y="733" on="0"/>
      </contour>
    </TTGlyph>
    <TTGlyph name="Egrave" xMin="9" yMin="-3" xMax="534" yMax="876">
      <contour>
        <pt x="534" y="624" on="1"/>
        <pt x="521" y="587" on="0"/>
        <pt x="514" y="528" on="1"/>
        <pt x="464" y="528" on="1"/>
        <pt x="467" y="547" on="0"/>
        <pt x="462" y="553" on="1"/>
        <pt x="458" y="560" on="0"/>
        <pt x="399" y="560" on="1"/>
        <pt x="214" y="560" on="1"/>
        <pt x="209" y="539" on="0"/>
        <pt x="187" y="438" on="0"/>
        <pt x="170" y="357" on="1"/>
        <pt x="387" y="357" on="0"/>
        <pt x="423" y="371" on="1"/>
        <pt x="405" y="285" on="1"/>
        <pt x="361" y="302" on="0"/>
        <pt x="157" y="297" on="1"/>
        <pt x="145" y="241" on="0"/>
        <pt x="118" y="126" on="0"/>
        <pt x="104" y="65" on="1"/>
        <pt x="315" y="65" on="1"/>
        <pt x="370" y="65" on="0"/>
        <pt x="381" y="77" on="1"/>
        <pt x="390" y="88" on="0"/>
        <pt x="397" y="108" on="1"/>
        <pt x="446" y="108" on="1"/>
        <pt x="441" y="93" on="0"/>
        <pt x="430" y="39" on="0"/>
        <pt x="423" y="0" on="1"/>
        <pt x="363" y="2" on="0"/>
        <pt x="263" y="4" on="0"/>
        <pt x="223" y="4" on="1"/>
        <pt x="175" y="4" on="0"/>
        <pt x="69" y="1" on="0"/>
        <pt x="9" y="-3" on="1"/>
        <pt x="20" y="20" on="0"/>
        <pt x="62" y="181" on="0"/>
        <pt x="91" y="321" on="1"/>
        <pt x="148" y="587" on="0"/>
        <pt x="146" y="623" on="1"/>
        <pt x="153" y="622" on="0"/>
        <pt x="242" y="621" on="0"/>
        <pt x="326" y="619" on="1"/>
        <pt x="366" y="618" on="0"/>
        <pt x="469" y="621" on="0"/>
      </contour>
      <contour>
        <pt x="427" y="702" on="1"/>
        <pt x="380" y="686" on="1"/>
        <pt x="283" y="853" on="1"/>
        <pt x="346" y="876" on="1"/>
      </contour>
    </TTGlyph>
    <TTGlyph name="Emacron" xMin="9" yMin="-3" xMax="534" yMax="714">
      <contour>
        <pt x="534" y="624" on="1"/>
        <pt x="521" y="587" on="0"/>
        <pt x="514" y="528" on="1"/>
        <pt x="464" y="528" on="1"/>
        <pt x="467" y="547" on="0"/>
        <pt x="462" y="553" on="1"/>
        <pt x="458" y="560" on="0"/>
        <pt x="399" y="560" on="1"/>
        <pt x="214" y="560" on="1"/>
        <pt x="209" y="539" on="0"/>
        <pt x="187" y="438" on="0"/>
        <pt x="170" y="357" on="1"/>
        <pt x="387" y="357" on="0"/>
        <pt x="423" y="371" on="1"/>
        <pt x="405" y="285" on="1"/>
        <pt x="361" y="302" on="0"/>
        <pt x="157" y="297" on="1"/>
        <pt x="145" y="241" on="0"/>
        <pt x="118" y="126" on="0"/>
        <pt x="104" y="65" on="1"/>
        <pt x="315" y="65" on="1"/>
        <pt x="370" y="65" on="0"/>
        <pt x="381" y="77" on="1"/>
        <pt x="390" y="88" on="0"/>
        <pt x="397" y="108" on="1"/>
        <pt x="446" y="108" on="1"/>
        <pt x="441" y="93" on="0"/>
        <pt x="430" y="39" on="0"/>
        <pt x="423" y="0" on="1"/>
        <pt x="363" y="2" on="0"/>
        <pt x="263" y="4" on="0"/>
        <pt x="223" y="4" on="1"/>
        <pt x="175" y="4" on="0"/>
        <pt x="69" y="1" on="0"/>
        <pt x="9" y="-3" on="1"/>
        <pt x="20" y="20" on="0"/>
        <pt x="62" y="181" on="0"/>
        <pt x="91" y="321" on="1"/>
        <pt x="148" y="587" on="0"/>
        <pt x="146" y="623" on="1"/>
        <pt x="153" y="622" on="0"/>
        <pt x="242" y="621" on="0"/>
        <pt x="326" y="619" on="1"/>
        <pt x="366" y="618" on="0"/>
        <pt x="469" y="621" on="0"/>
      </contour>
      <contour>
        <pt x="512" y="714" on="1"/>
        <pt x="502" y="666" on="1"/>
        <pt x="194" y="666" on="1"/>
        <pt x="205" y="714" on="1"/>
      </contour>
    </TTGlyph>
    <TTGlyph name="Eng" xMin="0" yMin="-222" xMax="647" yMax="627">
      <contour>
        <pt x="647" y="626" on="1"/>
        <pt x="639" y="607" on="0"/>
        <pt x="620" y="543" on="0"/>
        <pt x="609" y="496" on="1"/>
        <pt x="570" y="310" on="1"/>
        <pt x="506" y="11" on="1"/>
        <pt x="492" y="-45" on="0"/>
        <pt x="472" y="-114" on="0"/>
        <pt x="465" y="-128" on="1"/>
        <pt x="435" y="-196" on="0"/>
        <pt x="378" y="-212" on="1"/>
        <pt x="345" y="-222" on="0"/>
        <pt x="309" y="-222" on="1"/>
        <pt x="243" y="-222" on="0"/>
        <pt x="215" y="-192" on="1"/>
        <pt x="245" y="-126" on="1"/>
        <pt x="284" y="-170" on="0"/>
        <pt x="326" y="-170" on="1"/>
        <pt x="331" y="-170" on="0"/>
        <pt x="340" y="-169" on="0"/>
        <pt x="345" y="-168" on="1"/>
        <pt x="384" y="-157" on="0"/>
        <pt x="406" y="-104" on="1"/>
        <pt x="415" y="-82" on="0"/>
        <pt x="439" y="7" on="1"/>
        <pt x="407" y="76" on="0"/>
        <pt x="351" y="198" on="0"/>
        <pt x="326" y="252" on="1"/>
        <pt x="208" y="511" on="0"/>
        <pt x="189" y="569" on="1"/>
        <pt x="134" y="310" on="1"/>
        <pt x="124" y="264" on="0"/>
        <pt x="105" y="174" on="0"/>
        <pt x="95" y="129" on="1"/>
        <pt x="77" y="38" on="0"/>
        <pt x="79" y="0" on="1"/>
        <pt x="0" y="0" on="1"/>
        <pt x="8" y="19" on="0"/>
        <pt x="27" y="82" on="0"/>
        <pt x="37" y="128" on="1"/>
        <pt x="48" y="174" on="0"/>
        <pt x="67" y="266" on="0"/>
        <pt x="77" y="312" on="1"/>
        <pt x="127" y="550" on="0"/>
        <pt x="127" y="597" on="1"/>
        <pt x="127" y="615" on="0"/>
        <pt x="124" y="626" on="1"/>
        <pt x="223" y="626" on="0"/>
        <pt x="224" y="627" on="1"/>
        <pt x="254" y="564" on="0"/>
        <pt x="309" y="448" on="0"/>
        <pt x="334" y="393" on="1"/>
        <pt x="391" y="269" on="0"/>
        <pt x="454" y="116" on="0"/>
        <pt x="461" y="84" on="1"/>
        <pt x="509" y="311" on="1"/>
        <pt x="519" y="358" on="0"/>
        <pt x="538" y="450" on="0"/>
        <pt x="548" y="496" on="1"/>
        <pt x="568" y="591" on="0"/>
        <pt x="565" y="626" on="1"/>
      </contour>
    </TTGlyph>
    <TTGlyph name="Eogonek" xMin="9" yMin="-222" xMax="534" yMax="624">
      <contour>
        <pt x="534" y="624" on="1"/>
        <pt x="521" y="587" on="0"/>
        <pt x="514" y="528" on="1"/>
        <pt x="464" y="528" on="1"/>
        <pt x="467" y="547" on="0"/>
        <pt x="462" y="553" on="1"/>
        <pt x="458" y="560" on="0"/>
        <pt x="399" y="560" on="1"/>
        <pt x="214" y="560" on="1"/>
        <pt x="209" y="539" on="0"/>
        <pt x="187" y="438" on="0"/>
        <pt x="170" y="357" on="1"/>
        <pt x="387" y="357" on="0"/>
        <pt x="423" y="371" on="1"/>
        <pt x="405" y="285" on="1"/>
        <pt x="361" y="302" on="0"/>
        <pt x="157" y="297" on="1"/>
        <pt x="145" y="241" on="0"/>
        <pt x="118" y="126" on="0"/>
        <pt x="104" y="65" on="1"/>
        <pt x="315" y="65" on="1"/>
        <pt x="370" y="65" on="0"/>
        <pt x="381" y="77" on="1"/>
        <pt x="390" y="88" on="0"/>
        <pt x="397" y="108" on="1"/>
        <pt x="446" y="108" on="1"/>
        <pt x="441" y="93" on="0"/>
        <pt x="430" y="39" on="0"/>
        <pt x="423" y="0" on="1"/>
        <pt x="401" y="1" on="0"/>
        <pt x="318" y="3" on="0"/>
        <pt x="256" y="4" on="1"/>
        <pt x="224" y="-22" on="0"/>
        <pt x="196" y="-59" on="1"/>
        <pt x="165" y="-100" on="0"/>
        <pt x="165" y="-125" on="1"/>
        <pt x="163" y="-166" on="0"/>
        <pt x="202" y="-166" on="1"/>
        <pt x="213" y="-166" on="0"/>
        <pt x="237" y="-157" on="1"/>
        <pt x="249" y="-152" on="0"/>
        <pt x="267" y="-145" on="0"/>
        <pt x="272" y="-141" on="1"/>
        <pt x="283" y="-193" on="1"/>
        <pt x="248" y="-219" on="0"/>
        <pt x="183" y="-222" on="1"/>
        <pt x="138" y="-222" on="0"/>
        <pt x="95" y="-174" on="0"/>
        <pt x="99" y="-134" on="1"/>
        <pt x="105" y="-64" on="0"/>
        <pt x="182" y="4" on="1"/>
        <pt x="138" y="3" on="0"/>
        <pt x="52" y="-1" on="0"/>
        <pt x="9" y="-3" on="1"/>
        <pt x="20" y="20" on="0"/>
        <pt x="62" y="181" on="0"/>
        <pt x="91" y="321" on="1"/>
        <pt x="148" y="587" on="0"/>
        <pt x="146" y="623" on="1"/>
        <pt x="153" y="622" on="0"/>
        <pt x="242" y="621" on="0"/>
        <pt x="326" y="619" on="1"/>
        <pt x="366" y="618" on="0"/>
        <pt x="469" y="621" on="0"/>
      </contour>
    </TTGlyph>
    <TTGlyph name="Epsilon" xMin="30" yMin="-3" xMax="555" yMax="624">
      <contour>
        <pt x="555" y="624" on="1"/>
        <pt x="542" y="587" on="0"/>
        <pt x="535" y="528" on="1"/>
        <pt x="485" y="528" on="1"/>
        <pt x="488" y="547" on="0"/>
        <pt x="483" y="553" on="1"/>
        <pt x="479" y="560" on="0"/>
        <pt x="420" y="560" on="1"/>
        <pt x="235" y="560" on="1"/>
        <pt x="230" y="539" on="0"/>
        <pt x="208" y="438" on="0"/>
        <pt x="191" y="357" on="1"/>
        <pt x="408" y="357" on="0"/>
        <pt x="444" y="371" on="1"/>
        <pt x="426" y="285" on="1"/>
        <pt x="382" y="302" on="0"/>
        <pt x="178" y="297" on="1"/>
        <pt x="166" y="241" on="0"/>
        <pt x="139" y="126" on="0"/>
        <pt x="125" y="65" on="1"/>
        <pt x="336" y="65" on="1"/>
        <pt x="391" y="65" on="0"/>
        <pt x="402" y="77" on="1"/>
        <pt x="411" y="88" on="0"/>
        <pt x="418" y="108" on="1"/>
        <pt x="467" y="108" on="1"/>
        <pt x="462" y="93" on="0"/>
        <pt x="451" y="39" on="0"/>
        <pt x="444" y="0" on="1"/>
        <pt x="384" y="2" on="0"/>
        <pt x="284" y="4" on="0"/>
        <pt x="244" y="4" on="1"/>
        <pt x="196" y="4" on="0"/>
        <pt x="90" y="1" on="0"/>
        <pt x="30" y="-3" on="1"/>
        <pt x="41" y="20" on="0"/>
        <pt x="83" y="181" on="0"/>
        <pt x="112" y="321" on="1"/>
        <pt x="169" y="587" on="0"/>
        <pt x="167" y="623" on="1"/>
        <pt x="174" y="622" on="0"/>
        <pt x="263" y="621" on="0"/>
        <pt x="347" y="619" on="1"/>
        <pt x="387" y="618" on="0"/>
        <pt x="490" y="621" on="0"/>
      </contour>
    </TTGlyph>
    <TTGlyph name="Epsilon.alt" xMin="50" yMin="-10" xMax="546" yMax="634">
      <contour>
        <pt x="546" y="614" on="1"/>
        <pt x="540" y="589" on="0"/>
        <pt x="534" y="519" on="1"/>
        <pt x="487" y="519" on="1"/>
        <pt x="488" y="532" on="0"/>
        <pt x="482" y="554" on="1"/>
        <pt x="462" y="578" on="0"/>
        <pt x="396" y="575" on="1"/>
        <pt x="306" y="572" on="0"/>
        <pt x="232" y="501" on="1"/>
        <pt x="165" y="437" on="0"/>
        <pt x="136" y="338" on="1"/>
        <pt x="187" y="338" on="1"/>
        <pt x="387" y="338" on="0"/>
        <pt x="423" y="352" on="1"/>
        <pt x="405" y="266" on="1"/>
        <pt x="376" y="277" on="0"/>
        <pt x="317" y="278" on="1"/>
        <pt x="173" y="278" on="1"/>
        <pt x="123" y="278" on="1"/>
        <pt x="122" y="270" on="0"/>
        <pt x="121" y="252" on="0"/>
        <pt x="121" y="244" on="1"/>
        <pt x="121" y="162" on="0"/>
        <pt x="165" y="107" on="1"/>
        <pt x="211" y="49" on="0"/>
        <pt x="294" y="49" on="1"/>
        <pt x="355" y="49" on="0"/>
        <pt x="381" y="71" on="1"/>
        <pt x="394" y="83" on="0"/>
        <pt x="404" y="106" on="1"/>
        <pt x="451" y="106" on="1"/>
        <pt x="446" y="89" on="0"/>
        <pt x="433" y="43" on="0"/>
        <pt x="425" y="13" on="1"/>
        <pt x="421" y="14" on="0"/>
        <pt x="370" y="3" on="1"/>
        <pt x="342" y="-4" on="0"/>
        <pt x="292" y="-10" on="0"/>
        <pt x="270" y="-10" on="1"/>
        <pt x="168" y="-10" on="0"/>
        <pt x="107" y="66" on="1"/>
        <pt x="50" y="136" on="0"/>
        <pt x="50" y="242" on="1"/>
        <pt x="50" y="282" on="0"/>
        <pt x="59" y="321" on="1"/>
        <pt x="87" y="455" on="0"/>
        <pt x="180" y="542" on="1"/>
        <pt x="278" y="634" on="0"/>
        <pt x="412" y="634" on="1"/>
        <pt x="453" y="634" on="0"/>
        <pt x="497" y="623" on="1"/>
        <pt x="539" y="613" on="0"/>
      </contour>
    </TTGlyph>
    <TTGlyph name="Eta" xMin="30" yMin="0" xMax="672" yMax="624">
      <contour>
        <pt x="672" y="624" on="1"/>
        <pt x="654" y="586" on="0"/>
        <pt x="633" y="495" on="1"/>
        <pt x="633" y="491" on="0"/>
        <pt x="594" y="310" on="1"/>
        <pt x="539" y="46" on="0"/>
        <pt x="540" y="0" on="1"/>
        <pt x="450" y="0" on="1"/>
        <pt x="471" y="49" on="0"/>
        <pt x="522" y="285" on="1"/>
        <pt x="173" y="285" on="1"/>
        <pt x="147" y="163" on="0"/>
        <pt x="122" y="21" on="0"/>
        <pt x="123" y="0" on="1"/>
        <pt x="30" y="0" on="1"/>
        <pt x="48" y="38" on="0"/>
        <pt x="69" y="127" on="1"/>
        <pt x="108" y="312" on="1"/>
        <pt x="118" y="358" on="0"/>
        <pt x="138" y="450" on="0"/>
        <pt x="148" y="496" on="1"/>
        <pt x="164" y="587" on="0"/>
        <pt x="163" y="624" on="1"/>
        <pt x="256" y="624" on="1"/>
        <pt x="241" y="592" on="0"/>
        <pt x="205" y="456" on="0"/>
        <pt x="185" y="350" on="1"/>
        <pt x="535" y="350" on="1"/>
        <pt x="586" y="577" on="0"/>
        <pt x="583" y="624" on="1"/>
      </contour>
    </TTGlyph>
    <TTGlyph name="Eth" xMin="15" yMin="0" xMax="581" yMax="621">
      <contour>
        <pt x="574" y="303" on="1"/>
        <pt x="551" y="157" on="0"/>
        <pt x="444" y="75" on="1"/>
        <pt x="346" y="0" on="0"/>
        <pt x="202" y="0" on="1"/>
        <pt x="15" y="0" on="1"/>
        <pt x="27" y="25" on="0"/>
        <pt x="40" y="75" on="1"/>
        <pt x="48" y="104" on="0"/>
        <pt x="72" y="211" on="0"/>
        <pt x="89" y="291" on="1"/>
        <pt x="34" y="291" on="1"/>
        <pt x="45" y="343" on="1"/>
        <pt x="100" y="343" on="1"/>
        <pt x="107" y="374" on="0"/>
        <pt x="125" y="466" on="0"/>
        <pt x="138" y="529" on="1"/>
        <pt x="148" y="584" on="0"/>
        <pt x="147" y="621" on="1"/>
        <pt x="341" y="621" on="1"/>
        <pt x="456" y="621" on="0"/>
        <pt x="581" y="498" on="0"/>
        <pt x="581" y="386" on="1"/>
        <pt x="581" y="367" on="0"/>
        <pt x="578" y="326" on="0"/>
      </contour>
      <contour>
        <pt x="499" y="303" on="1"/>
        <pt x="508" y="346" on="0"/>
        <pt x="508" y="383" on="1"/>
        <pt x="508" y="551" on="0"/>
        <pt x="320" y="551" on="1"/>
        <pt x="213" y="551" on="1"/>
        <pt x="205" y="516" on="0"/>
        <pt x="183" y="413" on="0"/>
        <pt x="168" y="343" on="1"/>
        <pt x="328" y="343" on="1"/>
        <pt x="317" y="291" on="1"/>
        <pt x="157" y="291" on="1"/>
        <pt x="150" y="259" on="0"/>
        <pt x="128" y="147" on="0"/>
        <pt x="112" y="65" on="1"/>
        <pt x="215" y="65" on="1"/>
        <pt x="327" y="65" on="0"/>
        <pt x="475" y="188" on="0"/>
      </contour>
    </TTGlyph>
    <TTGlyph name="Euro" xMin="49" yMin="0" xMax="690" yMax="645">
      <contour>
        <pt x="49" y="242" on="1"/>
        <pt x="72" y="295" on="1"/>
        <pt x="137" y="295" on="1"/>
        <pt x="136" y="301" on="0"/>
        <pt x="136" y="315" on="0"/>
        <pt x="136" y="322" on="1"/>
        <pt x="136" y="329" on="0"/>
        <pt x="136" y="343" on="0"/>
        <pt x="137" y="349" on="1"/>
        <pt x="49" y="349" on="1"/>
        <pt x="72" y="403" on="1"/>
        <pt x="145" y="403" on="1"/>
        <pt x="165" y="489" on="0"/>
        <pt x="228" y="552" on="1"/>
        <pt x="319" y="645" on="0"/>
        <pt x="458" y="645" on="1"/>
        <pt x="595" y="645" on="0"/>
        <pt x="690" y="549" on="1"/>
        <pt x="667" y="495" on="1"/>
        <pt x="578" y="591" on="0"/>
        <pt x="458" y="591" on="1"/>
        <pt x="345" y="591" on="0"/>
        <pt x="267" y="513" on="1"/>
        <pt x="243" y="489" on="0"/>
        <pt x="210" y="433" on="0"/>
        <pt x="201" y="403" on="1"/>
        <pt x="628" y="403" on="1"/>
        <pt x="606" y="349" on="1"/>
        <pt x="190" y="349" on="1"/>
        <pt x="189" y="343" on="0"/>
        <pt x="189" y="328" on="0"/>
        <pt x="189" y="322" on="1"/>
        <pt x="189" y="315" on="0"/>
        <pt x="189" y="301" on="0"/>
        <pt x="190" y="295" on="1"/>
        <pt x="583" y="295" on="1"/>
        <pt x="560" y="242" on="1"/>
        <pt x="200" y="242" on="1"/>
        <pt x="218" y="180" on="0"/>
        <pt x="267" y="131" on="1"/>
        <pt x="346" y="54" on="0"/>
        <pt x="458" y="54" on="1"/>
        <pt x="580" y="54" on="0"/>
        <pt x="667" y="152" on="1"/>
        <pt x="667" y="73" on="1"/>
        <pt x="584" y="0" on="0"/>
        <pt x="458" y="0" on="1"/>
        <pt x="320" y="0" on="0"/>
        <pt x="228" y="92" on="1"/>
        <pt x="164" y="157" on="0"/>
        <pt x="145" y="242" on="1"/>
      </contour>
    </TTGlyph>
    <TTGlyph name="F" xMin="7" yMin="0" xMax="525" yMax="624">
      <contour>
        <pt x="525" y="623" on="1"/>
        <pt x="511" y="579" on="0"/>
        <pt x="504" y="530" on="1"/>
        <pt x="454" y="530" on="1"/>
        <pt x="455" y="534" on="0"/>
        <pt x="456" y="540" on="0"/>
        <pt x="456" y="543" on="1"/>
        <pt x="456" y="562" on="0"/>
        <pt x="415" y="562" on="1"/>
        <pt x="204" y="562" on="1"/>
        <pt x="162" y="358" on="1"/>
        <pt x="241" y="358" on="0"/>
        <pt x="338" y="359" on="0"/>
        <pt x="356" y="360" on="1"/>
        <pt x="392" y="363" on="0"/>
        <pt x="415" y="372" on="1"/>
        <pt x="396" y="289" on="1"/>
        <pt x="377" y="294" on="0"/>
        <pt x="334" y="297" on="1"/>
        <pt x="277" y="300" on="0"/>
        <pt x="183" y="300" on="0"/>
        <pt x="145" y="298" on="1"/>
        <pt x="140" y="273" on="0"/>
        <pt x="124" y="193" on="0"/>
        <pt x="113" y="138" on="1"/>
        <pt x="95" y="49" on="0"/>
        <pt x="98" y="0" on="1"/>
        <pt x="7" y="0" on="1"/>
        <pt x="21" y="27" on="0"/>
        <pt x="28" y="58" on="1"/>
        <pt x="30" y="65" on="0"/>
        <pt x="58" y="197" on="0"/>
        <pt x="85" y="324" on="1"/>
        <pt x="86" y="329" on="0"/>
        <pt x="108" y="436" on="0"/>
        <pt x="129" y="539" on="1"/>
        <pt x="141" y="597" on="0"/>
        <pt x="138" y="624" on="1"/>
        <pt x="161" y="623" on="0"/>
        <pt x="259" y="621" on="0"/>
        <pt x="335" y="619" on="1"/>
        <pt x="386" y="618" on="0"/>
        <pt x="480" y="620" on="0"/>
      </contour>
    </TTGlyph>
    <TTGlyph name="G" xMin="36" yMin="-9" xMax="530" yMax="634">
      <contour>
        <pt x="530" y="613" on="1"/>
        <pt x="526" y="591" on="0"/>
        <pt x="521" y="544" on="0"/>
        <pt x="519" y="519" on="1"/>
        <pt x="472" y="519" on="1"/>
        <pt x="470" y="556" on="0"/>
        <pt x="448" y="567" on="1"/>
        <pt x="431" y="577" on="0"/>
        <pt x="391" y="577" on="1"/>
        <pt x="275" y="577" on="0"/>
        <pt x="188" y="467" on="1"/>
        <pt x="106" y="364" on="0"/>
        <pt x="106" y="244" on="1"/>
        <pt x="106" y="161" on="0"/>
        <pt x="149" y="108" on="1"/>
        <pt x="197" y="49" on="0"/>
        <pt x="279" y="49" on="1"/>
        <pt x="321" y="49" on="0"/>
        <pt x="343" y="57" on="1"/>
        <pt x="378" y="69" on="0"/>
        <pt x="385" y="106" on="1"/>
        <pt x="409" y="227" on="1"/>
        <pt x="394" y="227" on="1"/>
        <pt x="360" y="227" on="0"/>
        <pt x="353" y="224" on="1"/>
        <pt x="337" y="220" on="0"/>
        <pt x="329" y="196" on="1"/>
        <pt x="280" y="196" on="1"/>
        <pt x="297" y="257" on="0"/>
        <pt x="300" y="289" on="1"/>
        <pt x="355" y="288" on="0"/>
        <pt x="450" y="287" on="0"/>
        <pt x="490" y="288" on="1"/>
        <pt x="482" y="254" on="0"/>
        <pt x="468" y="186" on="0"/>
        <pt x="460" y="152" on="1"/>
        <pt x="452" y="112" on="0"/>
        <pt x="442" y="44" on="0"/>
        <pt x="440" y="16" on="1"/>
        <pt x="411" y="18" on="0"/>
        <pt x="341" y="0" on="1"/>
        <pt x="303" y="-9" on="0"/>
        <pt x="256" y="-9" on="1"/>
        <pt x="150" y="-9" on="0"/>
        <pt x="90" y="63" on="1"/>
        <pt x="36" y="130" on="0"/>
        <pt x="36" y="235" on="1"/>
        <pt x="36" y="276" on="0"/>
        <pt x="45" y="318" on="1"/>
        <pt x="74" y="452" on="0"/>
        <pt x="165" y="539" on="1"/>
        <pt x="263" y="634" on="0"/>
        <pt x="396" y="634" on="1"/>
        <pt x="442" y="634" on="0"/>
        <pt x="480" y="625" on="1"/>
        <pt x="489" y="623" on="0"/>
        <pt x="510" y="616" on="1"/>
        <pt x="524" y="611" on="0"/>
      </contour>
    </TTGlyph>
    <TTGlyph name="Gamma" xMin="30" yMin="-3" xMax="575" yMax="624">
      <contour>
        <pt x="575" y="624" on="1"/>
        <pt x="568" y="604" on="0"/>
        <pt x="557" y="550" on="0"/>
        <pt x="552" y="515" on="1"/>
        <pt x="502" y="515" on="1"/>
        <pt x="506" y="541" on="0"/>
        <pt x="500" y="552" on="1"/>
        <pt x="494" y="563" on="0"/>
        <pt x="441" y="563" on="1"/>
        <pt x="230" y="563" on="1"/>
        <pt x="174" y="299" on="1"/>
        <pt x="164" y="254" on="0"/>
        <pt x="146" y="165" on="0"/>
        <pt x="136" y="120" on="1"/>
        <pt x="119" y="33" on="0"/>
        <pt x="122" y="-3" on="1"/>
        <pt x="30" y="-3" on="1"/>
        <pt x="47" y="33" on="0"/>
        <pt x="67" y="121" on="1"/>
        <pt x="77" y="166" on="0"/>
        <pt x="95" y="254" on="0"/>
        <pt x="105" y="299" on="1"/>
        <pt x="167" y="590" on="0"/>
        <pt x="164" y="624" on="1"/>
        <pt x="221" y="621" on="0"/>
        <pt x="369" y="621" on="1"/>
        <pt x="449" y="621" on="0"/>
      </contour>
    </TTGlyph>
    <TTGlyph name="Gbreve" xMin="36" yMin="-9" xMax="549" yMax="789">
      <contour>
        <pt x="530" y="613" on="1"/>
        <pt x="526" y="591" on="0"/>
        <pt x="521" y="544" on="0"/>
        <pt x="519" y="519" on="1"/>
        <pt x="472" y="519" on="1"/>
        <pt x="470" y="556" on="0"/>
        <pt x="448" y="567" on="1"/>
        <pt x="431" y="577" on="0"/>
        <pt x="391" y="577" on="1"/>
        <pt x="275" y="577" on="0"/>
        <pt x="188" y="467" on="1"/>
        <pt x="106" y="364" on="0"/>
        <pt x="106" y="244" on="1"/>
        <pt x="106" y="161" on="0"/>
        <pt x="149" y="108" on="1"/>
        <pt x="197" y="49" on="0"/>
        <pt x="279" y="49" on="1"/>
        <pt x="321" y="49" on="0"/>
        <pt x="343" y="57" on="1"/>
        <pt x="378" y="69" on="0"/>
        <pt x="385" y="106" on="1"/>
        <pt x="409" y="227" on="1"/>
        <pt x="394" y="227" on="1"/>
        <pt x="360" y="227" on="0"/>
        <pt x="353" y="224" on="1"/>
        <pt x="337" y="220" on="0"/>
        <pt x="329" y="196" on="1"/>
        <pt x="280" y="196" on="1"/>
        <pt x="297" y="257" on="0"/>
        <pt x="300" y="289" on="1"/>
        <pt x="355" y="288" on="0"/>
        <pt x="450" y="287" on="0"/>
        <pt x="490" y="288" on="1"/>
        <pt x="482" y="254" on="0"/>
        <pt x="468" y="186" on="0"/>
        <pt x="460" y="152" on="1"/>
        <pt x="452" y="112" on="0"/>
        <pt x="442" y="44" on="0"/>
        <pt x="440" y="16" on="1"/>
        <pt x="411" y="18" on="0"/>
        <pt x="341" y="0" on="1"/>
        <pt x="303" y="-9" on="0"/>
        <pt x="256" y="-9" on="1"/>
        <pt x="150" y="-9" on="0"/>
        <pt x="90" y="63" on="1"/>
        <pt x="36" y="130" on="0"/>
        <pt x="36" y="235" on="1"/>
        <pt x="36" y="276" on="0"/>
        <pt x="45" y="318" on="1"/>
        <pt x="74" y="452" on="0"/>
        <pt x="165" y="539" on="1"/>
        <pt x="263" y="634" on="0"/>
        <pt x="396" y="634" on="1"/>
        <pt x="442" y="634" on="0"/>
        <pt x="480" y="625" on="1"/>
        <pt x="489" y="623" on="0"/>
        <pt x="510" y="616" on="1"/>
        <pt x="524" y="611" on="0"/>
      </contour>
      <contour>
        <pt x="549" y="770" on="1"/>
        <pt x="529" y="744" on="0"/>
        <pt x="492" y="705" on="0"/>
        <pt x="451" y="680" on="0"/>
        <pt x="402" y="667" on="0"/>
        <pt x="371" y="667" on="1"/>
        <pt x="288" y="667" on="0"/>
        <pt x="233" y="770" on="1"/>
        <pt x="270" y="789" on="1"/>
        <pt x="316" y="702" on="0"/>
        <pt x="378" y="703" on="1"/>
        <pt x="423" y="705" on="0"/>
        <pt x="483" y="751" on="0"/>
        <pt x="516" y="789" on="1"/>
      </contour>
    </TTGlyph>
    <TTGlyph name="Gcircumflex" xMin="36" yMin="-9" xMax="558" yMax="832">
      <contour>
        <pt x="530" y="613" on="1"/>
        <pt x="526" y="591" on="0"/>
        <pt x="521" y="544" on="0"/>
        <pt x="519" y="519" on="1"/>
        <pt x="472" y="519" on="1"/>
        <pt x="470" y="556" on="0"/>
        <pt x="448" y="567" on="1"/>
        <pt x="431" y="577" on="0"/>
        <pt x="391" y="577" on="1"/>
        <pt x="275" y="577" on="0"/>
        <pt x="188" y="467" on="1"/>
        <pt x="106" y="364" on="0"/>
        <pt x="106" y="244" on="1"/>
        <pt x="106" y="161" on="0"/>
        <pt x="149" y="108" on="1"/>
        <pt x="197" y="49" on="0"/>
        <pt x="279" y="49" on="1"/>
        <pt x="321" y="49" on="0"/>
        <pt x="343" y="57" on="1"/>
        <pt x="378" y="69" on="0"/>
        <pt x="385" y="106" on="1"/>
        <pt x="409" y="227" on="1"/>
        <pt x="394" y="227" on="1"/>
        <pt x="360" y="227" on="0"/>
        <pt x="353" y="224" on="1"/>
        <pt x="337" y="220" on="0"/>
        <pt x="329" y="196" on="1"/>
        <pt x="280" y="196" on="1"/>
        <pt x="297" y="257" on="0"/>
        <pt x="300" y="289" on="1"/>
        <pt x="355" y="288" on="0"/>
        <pt x="450" y="287" on="0"/>
        <pt x="490" y="288" on="1"/>
        <pt x="482" y="254" on="0"/>
        <pt x="468" y="186" on="0"/>
        <pt x="460" y="152" on="1"/>
        <pt x="452" y="112" on="0"/>
        <pt x="442" y="44" on="0"/>
        <pt x="440" y="16" on="1"/>
        <pt x="411" y="18" on="0"/>
        <pt x="341" y="0" on="1"/>
        <pt x="303" y="-9" on="0"/>
        <pt x="256" y="-9" on="1"/>
        <pt x="150" y="-9" on="0"/>
        <pt x="90" y="63" on="1"/>
        <pt x="36" y="130" on="0"/>
        <pt x="36" y="235" on="1"/>
        <pt x="36" y="276" on="0"/>
        <pt x="45" y="318" on="1"/>
        <pt x="74" y="452" on="0"/>
        <pt x="165" y="539" on="1"/>
        <pt x="263" y="634" on="0"/>
        <pt x="396" y="634" on="1"/>
        <pt x="442" y="634" on="0"/>
        <pt x="480" y="625" on="1"/>
        <pt x="489" y="623" on="0"/>
        <pt x="510" y="616" on="1"/>
        <pt x="524" y="611" on="0"/>
      </contour>
      <contour>
        <pt x="558" y="708" on="1"/>
        <pt x="518" y="674" on="1"/>
        <pt x="397" y="774" on="1"/>
        <pt x="394" y="774" on="0"/>
        <pt x="231" y="669" on="1"/>
        <pt x="202" y="708" on="1"/>
        <pt x="406" y="832" on="1"/>
        <pt x="405" y="831" on="0"/>
        <pt x="482" y="769" on="1"/>
        <pt x="558" y="708" on="0"/>
      </contour>
    </TTGlyph>
    <TTGlyph name="Gcommaaccent" xMin="36" yMin="-248" xMax="530" yMax="634">
      <contour>
        <pt x="530" y="613" on="1"/>
        <pt x="526" y="591" on="0"/>
        <pt x="521" y="544" on="0"/>
        <pt x="519" y="519" on="1"/>
        <pt x="472" y="519" on="1"/>
        <pt x="470" y="556" on="0"/>
        <pt x="448" y="567" on="1"/>
        <pt x="431" y="577" on="0"/>
        <pt x="391" y="577" on="1"/>
        <pt x="275" y="577" on="0"/>
        <pt x="188" y="467" on="1"/>
        <pt x="106" y="364" on="0"/>
        <pt x="106" y="244" on="1"/>
        <pt x="106" y="161" on="0"/>
        <pt x="149" y="108" on="1"/>
        <pt x="197" y="49" on="0"/>
        <pt x="279" y="49" on="1"/>
        <pt x="321" y="49" on="0"/>
        <pt x="343" y="57" on="1"/>
        <pt x="378" y="69" on="0"/>
        <pt x="385" y="106" on="1"/>
        <pt x="409" y="227" on="1"/>
        <pt x="394" y="227" on="1"/>
        <pt x="360" y="227" on="0"/>
        <pt x="353" y="224" on="1"/>
        <pt x="337" y="220" on="0"/>
        <pt x="329" y="196" on="1"/>
        <pt x="280" y="196" on="1"/>
        <pt x="297" y="257" on="0"/>
        <pt x="300" y="289" on="1"/>
        <pt x="355" y="288" on="0"/>
        <pt x="450" y="287" on="0"/>
        <pt x="490" y="288" on="1"/>
        <pt x="482" y="254" on="0"/>
        <pt x="468" y="186" on="0"/>
        <pt x="460" y="152" on="1"/>
        <pt x="452" y="112" on="0"/>
        <pt x="442" y="44" on="0"/>
        <pt x="440" y="16" on="1"/>
        <pt x="411" y="18" on="0"/>
        <pt x="341" y="0" on="1"/>
        <pt x="303" y="-9" on="0"/>
        <pt x="256" y="-9" on="1"/>
        <pt x="150" y="-9" on="0"/>
        <pt x="90" y="63" on="1"/>
        <pt x="36" y="130" on="0"/>
        <pt x="36" y="235" on="1"/>
        <pt x="36" y="276" on="0"/>
        <pt x="45" y="318" on="1"/>
        <pt x="74" y="452" on="0"/>
        <pt x="165" y="539" on="1"/>
        <pt x="263" y="634" on="0"/>
        <pt x="396" y="634" on="1"/>
        <pt x="442" y="634" on="0"/>
        <pt x="480" y="625" on="1"/>
        <pt x="489" y="623" on="0"/>
        <pt x="510" y="616" on="1"/>
        <pt x="524" y="611" on="0"/>
      </contour>
      <contour>
        <pt x="286" y="-68" on="1"/>
        <pt x="273" y="-129" on="1"/>
        <pt x="252" y="-228" on="0"/>
        <pt x="169" y="-248" on="1"/>
        <pt x="176" y="-213" on="1"/>
        <pt x="219" y="-206" on="0"/>
        <pt x="234" y="-135" on="1"/>
        <pt x="206" y="-135" on="1"/>
        <pt x="220" y="-68" on="1"/>
      </contour>
    </TTGlyph>
    <TTGlyph name="Gdotaccent" xMin="36" yMin="-9" xMax="530" yMax="760">
      <contour>
        <pt x="530" y="613" on="1"/>
        <pt x="526" y="591" on="0"/>
        <pt x="521" y="544" on="0"/>
        <pt x="519" y="519" on="1"/>
        <pt x="472" y="519" on="1"/>
        <pt x="470" y="556" on="0"/>
        <pt x="448" y="567" on="1"/>
        <pt x="431" y="577" on="0"/>
        <pt x="391" y="577" on="1"/>
        <pt x="275" y="577" on="0"/>
        <pt x="188" y="467" on="1"/>
        <pt x="106" y="364" on="0"/>
        <pt x="106" y="244" on="1"/>
        <pt x="106" y="161" on="0"/>
        <pt x="149" y="108" on="1"/>
        <pt x="197" y="49" on="0"/>
        <pt x="279" y="49" on="1"/>
        <pt x="321" y="49" on="0"/>
        <pt x="343" y="57" on="1"/>
        <pt x="378" y="69" on="0"/>
        <pt x="385" y="106" on="1"/>
        <pt x="409" y="227" on="1"/>
        <pt x="394" y="227" on="1"/>
        <pt x="360" y="227" on="0"/>
        <pt x="353" y="224" on="1"/>
        <pt x="337" y="220" on="0"/>
        <pt x="329" y="196" on="1"/>
        <pt x="280" y="196" on="1"/>
        <pt x="297" y="257" on="0"/>
        <pt x="300" y="289" on="1"/>
        <pt x="355" y="288" on="0"/>
        <pt x="450" y="287" on="0"/>
        <pt x="490" y="288" on="1"/>
        <pt x="482" y="254" on="0"/>
        <pt x="468" y="186" on="0"/>
        <pt x="460" y="152" on="1"/>
        <pt x="452" y="112" on="0"/>
        <pt x="442" y="44" on="0"/>
        <pt x="440" y="16" on="1"/>
        <pt x="411" y="18" on="0"/>
        <pt x="341" y="0" on="1"/>
        <pt x="303" y="-9" on="0"/>
        <pt x="256" y="-9" on="1"/>
        <pt x="150" y="-9" on="0"/>
        <pt x="90" y="63" on="1"/>
        <pt x="36" y="130" on="0"/>
        <pt x="36" y="235" on="1"/>
        <pt x="36" y="276" on="0"/>
        <pt x="45" y="318" on="1"/>
        <pt x="74" y="452" on="0"/>
        <pt x="165" y="539" on="1"/>
        <pt x="263" y="634" on="0"/>
        <pt x="396" y="634" on="1"/>
        <pt x="442" y="634" on="0"/>
        <pt x="480" y="625" on="1"/>
        <pt x="489" y="623" on="0"/>
        <pt x="510" y="616" on="1"/>
        <pt x="524" y="611" on="0"/>
      </contour>
      <contour>
        <pt x="451" y="715" on="1"/>
        <pt x="441" y="666" on="0"/>
        <pt x="395" y="666" on="1"/>
        <pt x="356" y="666" on="0"/>
        <pt x="356" y="701" on="1"/>
        <pt x="356" y="725" on="0"/>
        <pt x="390" y="760" on="0"/>
        <pt x="415" y="760" on="1"/>
        <pt x="434" y="760" on="0"/>
        <pt x="455" y="733" on="0"/>
      </contour>
    </TTGlyph>
    <TTGlyph name="Grave" xMin="283" yMin="666" xMax="427" yMax="856">
      <contour>
        <pt x="427" y="682" on="1"/>
        <pt x="380" y="666" on="1"/>
        <pt x="283" y="833" on="1"/>
        <pt x="346" y="856" on="1"/>
      </contour>
    </TTGlyph>
    <TTGlyph name="Gravesmall" xMin="121" yMin="465" xMax="297" yMax="669">
      <contour>
        <pt x="297" y="465" on="1"/>
        <pt x="272" y="465" on="1"/>
        <pt x="133" y="601" on="1"/>
        <pt x="121" y="613" on="0"/>
        <pt x="121" y="632" on="1"/>
        <pt x="121" y="669" on="0"/>
        <pt x="160" y="669" on="1"/>
        <pt x="186" y="669" on="0"/>
        <pt x="197" y="648" on="1"/>
      </contour>
    </TTGlyph>
    <TTGlyph name="H" xMin="14" yMin="0" xMax="656" yMax="624">
      <contour>
        <pt x="656" y="624" on="1"/>
        <pt x="638" y="586" on="0"/>
        <pt x="617" y="495" on="1"/>
        <pt x="617" y="491" on="0"/>
        <pt x="578" y="310" on="1"/>
        <pt x="523" y="46" on="0"/>
        <pt x="524" y="0" on="1"/>
        <pt x="434" y="0" on="1"/>
        <pt x="455" y="49" on="0"/>
        <pt x="506" y="285" on="1"/>
        <pt x="157" y="285" on="1"/>
        <pt x="131" y="163" on="0"/>
        <pt x="106" y="21" on="0"/>
        <pt x="107" y="0" on="1"/>
        <pt x="14" y="0" on="1"/>
        <pt x="23" y="19" on="0"/>
        <pt x="42" y="82" on="0"/>
        <pt x="52" y="128" on="1"/>
        <pt x="73" y="221" on="0"/>
        <pt x="112" y="403" on="0"/>
        <pt x="132" y="496" on="1"/>
        <pt x="148" y="587" on="0"/>
        <pt x="147" y="624" on="1"/>
        <pt x="240" y="624" on="1"/>
        <pt x="225" y="592" on="0"/>
        <pt x="189" y="456" on="0"/>
        <pt x="169" y="350" on="1"/>
        <pt x="519" y="350" on="1"/>
        <pt x="570" y="577" on="0"/>
        <pt x="567" y="624" on="1"/>
      </contour>
    </TTGlyph>
    <TTGlyph name="H18533" xMin="52" yMin="46" xMax="335" yMax="330">
      <contour>
        <pt x="194" y="330" on="1"/>
        <pt x="252" y="330" on="0"/>
        <pt x="293" y="288" on="1"/>
        <pt x="335" y="247" on="0"/>
        <pt x="335" y="188" on="1"/>
        <pt x="335" y="130" on="0"/>
        <pt x="294" y="87" on="1"/>
        <pt x="253" y="46" on="0"/>
        <pt x="194" y="46" on="1"/>
        <pt x="134" y="46" on="0"/>
        <pt x="93" y="87" on="1"/>
        <pt x="52" y="130" on="0"/>
        <pt x="52" y="188" on="1"/>
        <pt x="52" y="247" on="0"/>
        <pt x="93" y="288" on="1"/>
        <pt x="135" y="330" on="0"/>
      </contour>
    </TTGlyph>
    <TTGlyph name="H18543" xMin="65" yMin="92" xMax="251" yMax="278">
      <contour>
        <pt x="251" y="278" on="1"/>
        <pt x="251" y="92" on="1"/>
        <pt x="65" y="92" on="1"/>
        <pt x="65" y="278" on="1"/>
      </contour>
    </TTGlyph>
    <TTGlyph name="H18551" xMin="68" yMin="94" xMax="254" yMax="280">
      <contour>
        <pt x="254" y="280" on="1"/>
        <pt x="254" y="94" on="1"/>
        <pt x="68" y="94" on="1"/>
        <pt x="68" y="280" on="1"/>
      </contour>
      <contour>
        <pt x="223" y="249" on="1"/>
        <pt x="98" y="249" on="1"/>
        <pt x="98" y="124" on="1"/>
        <pt x="223" y="124" on="1"/>
      </contour>
    </TTGlyph>
    <TTGlyph name="H22073" xMin="29" yMin="-4" xMax="408" yMax="375">
      <contour>
        <pt x="29" y="375" on="1"/>
        <pt x="408" y="375" on="1"/>
        <pt x="408" y="-4" on="1"/>
        <pt x="29" y="-4" on="1"/>
      </contour>
      <contour>
        <pt x="59" y="345" on="1"/>
        <pt x="59" y="26" on="1"/>
        <pt x="378" y="26" on="1"/>
        <pt x="378" y="345" on="1"/>
      </contour>
    </TTGlyph>
    <TTGlyph name="Hbar" xMin="14" yMin="0" xMax="676" yMax="624">
      <contour>
        <pt x="676" y="495" on="1"/>
        <pt x="665" y="443" on="1"/>
        <pt x="606" y="443" on="1"/>
        <pt x="578" y="310" on="1"/>
        <pt x="523" y="46" on="0"/>
        <pt x="524" y="0" on="1"/>
        <pt x="434" y="0" on="1"/>
        <pt x="455" y="49" on="0"/>
        <pt x="506" y="285" on="1"/>
        <pt x="157" y="285" on="1"/>
        <pt x="131" y="163" on="0"/>
        <pt x="106" y="21" on="0"/>
        <pt x="107" y="0" on="1"/>
        <pt x="14" y="0" on="1"/>
        <pt x="32" y="38" on="0"/>
        <pt x="53" y="127" on="1"/>
        <pt x="53" y="127" on="0"/>
        <pt x="92" y="312" on="1"/>
        <pt x="97" y="335" on="0"/>
        <pt x="111" y="401" on="0"/>
        <pt x="121" y="443" on="1"/>
        <pt x="72" y="443" on="1"/>
        <pt x="83" y="495" on="1"/>
        <pt x="131" y="495" on="1"/>
        <pt x="149" y="584" on="0"/>
        <pt x="147" y="624" on="1"/>
        <pt x="240" y="624" on="1"/>
        <pt x="223" y="586" on="0"/>
        <pt x="200" y="495" on="1"/>
        <pt x="551" y="495" on="1"/>
        <pt x="569" y="584" on="0"/>
        <pt x="567" y="624" on="1"/>
        <pt x="656" y="624" on="1"/>
        <pt x="638" y="586" on="0"/>
        <pt x="617" y="495" on="1"/>
      </contour>
      <contour>
        <pt x="540" y="443" on="1"/>
        <pt x="188" y="443" on="1"/>
        <pt x="183" y="418" on="0"/>
        <pt x="174" y="372" on="0"/>
        <pt x="169" y="350" on="1"/>
        <pt x="519" y="350" on="1"/>
      </contour>
    </TTGlyph>
    <TTGlyph name="Hcircumflex" xMin="14" yMin="0" xMax="656" yMax="832">
      <contour>
        <pt x="656" y="624" on="1"/>
        <pt x="638" y="586" on="0"/>
        <pt x="617" y="495" on="1"/>
        <pt x="617" y="491" on="0"/>
        <pt x="578" y="310" on="1"/>
        <pt x="523" y="46" on="0"/>
        <pt x="524" y="0" on="1"/>
        <pt x="434" y="0" on="1"/>
        <pt x="455" y="49" on="0"/>
        <pt x="506" y="285" on="1"/>
        <pt x="157" y="285" on="1"/>
        <pt x="131" y="163" on="0"/>
        <pt x="106" y="21" on="0"/>
        <pt x="107" y="0" on="1"/>
        <pt x="14" y="0" on="1"/>
        <pt x="23" y="19" on="0"/>
        <pt x="42" y="82" on="0"/>
        <pt x="52" y="128" on="1"/>
        <pt x="73" y="221" on="0"/>
        <pt x="112" y="403" on="0"/>
        <pt x="132" y="496" on="1"/>
        <pt x="148" y="587" on="0"/>
        <pt x="147" y="624" on="1"/>
        <pt x="240" y="624" on="1"/>
        <pt x="225" y="592" on="0"/>
        <pt x="189" y="456" on="0"/>
        <pt x="169" y="350" on="1"/>
        <pt x="519" y="350" on="1"/>
        <pt x="570" y="577" on="0"/>
        <pt x="567" y="624" on="1"/>
      </contour>
      <contour>
        <pt x="602" y="708" on="1"/>
        <pt x="562" y="674" on="1"/>
        <pt x="441" y="774" on="1"/>
        <pt x="438" y="774" on="0"/>
        <pt x="275" y="669" on="1"/>
        <pt x="246" y="708" on="1"/>
        <pt x="450" y="832" on="1"/>
        <pt x="449" y="831" on="0"/>
        <pt x="526" y="769" on="1"/>
        <pt x="602" y="708" on="0"/>
      </contour>
    </TTGlyph>
    <TTGlyph name="Hungarumlaut" xMin="331" yMin="666" xMax="551" yMax="856">
      <contour>
        <pt x="551" y="833" on="1"/>
        <pt x="489" y="666" on="1"/>
        <pt x="439" y="682" on="1"/>
        <pt x="483" y="856" on="1"/>
      </contour>
      <contour>
        <pt x="443" y="833" on="1"/>
        <pt x="381" y="666" on="1"/>
        <pt x="331" y="682" on="1"/>
        <pt x="375" y="856" on="1"/>
      </contour>
    </TTGlyph>
    <TTGlyph name="Hungarumlautsmall" xMin="1" yMin="509" xMax="415" yMax="647">
      <contour>
        <pt x="196" y="576" on="1"/>
        <pt x="18" y="509" on="1"/>
        <pt x="1" y="521" on="1"/>
        <pt x="166" y="645" on="1"/>
        <pt x="182" y="658" on="0"/>
        <pt x="207" y="647" on="1"/>
        <pt x="226" y="638" on="0"/>
        <pt x="226" y="618" on="1"/>
        <pt x="226" y="586" on="0"/>
      </contour>
      <contour>
        <pt x="385" y="576" on="1"/>
        <pt x="207" y="509" on="1"/>
        <pt x="190" y="521" on="1"/>
        <pt x="354" y="645" on="1"/>
        <pt x="371" y="658" on="0"/>
        <pt x="396" y="647" on="1"/>
        <pt x="415" y="638" on="0"/>
        <pt x="415" y="618" on="1"/>
        <pt x="415" y="586" on="0"/>
      </contour>
    </TTGlyph>
    <TTGlyph name="I" xMin="9" yMin="0" xMax="231" yMax="623">
      <contour>
        <pt x="231" y="623" on="1"/>
        <pt x="223" y="604" on="0"/>
        <pt x="204" y="540" on="0"/>
        <pt x="193" y="494" on="1"/>
        <pt x="183" y="448" on="0"/>
        <pt x="164" y="356" on="0"/>
        <pt x="154" y="310" on="1"/>
        <pt x="144" y="264" on="0"/>
        <pt x="126" y="174" on="0"/>
        <pt x="116" y="128" on="1"/>
        <pt x="97" y="37" on="0"/>
        <pt x="98" y="0" on="1"/>
        <pt x="9" y="0" on="1"/>
        <pt x="18" y="19" on="0"/>
        <pt x="37" y="82" on="0"/>
        <pt x="47" y="128" on="1"/>
        <pt x="57" y="174" on="0"/>
        <pt x="77" y="266" on="0"/>
        <pt x="87" y="312" on="1"/>
        <pt x="124" y="493" on="0"/>
        <pt x="126" y="495" on="1"/>
        <pt x="142" y="586" on="0"/>
        <pt x="141" y="623" on="1"/>
      </contour>
    </TTGlyph>
    <TTGlyph name="IJ" xMin="11" yMin="-18" xMax="602" yMax="625">
      <contour>
        <pt x="233" y="613" on="1"/>
        <pt x="225" y="594" on="0"/>
        <pt x="206" y="530" on="0"/>
        <pt x="195" y="484" on="1"/>
        <pt x="185" y="438" on="0"/>
        <pt x="166" y="346" on="0"/>
        <pt x="156" y="300" on="1"/>
        <pt x="146" y="254" on="0"/>
        <pt x="128" y="164" on="0"/>
        <pt x="118" y="118" on="1"/>
        <pt x="99" y="27" on="0"/>
        <pt x="100" y="-10" on="1"/>
        <pt x="11" y="-10" on="1"/>
        <pt x="20" y="9" on="0"/>
        <pt x="39" y="72" on="0"/>
        <pt x="49" y="118" on="1"/>
        <pt x="59" y="164" on="0"/>
        <pt x="79" y="256" on="0"/>
        <pt x="89" y="302" on="1"/>
        <pt x="126" y="483" on="0"/>
        <pt x="128" y="485" on="1"/>
        <pt x="144" y="576" on="0"/>
        <pt x="143" y="613" on="1"/>
      </contour>
      <contour>
        <pt x="602" y="625" on="1"/>
        <pt x="594" y="606" on="0"/>
        <pt x="575" y="542" on="0"/>
        <pt x="564" y="495" on="1"/>
        <pt x="554" y="449" on="0"/>
        <pt x="534" y="357" on="0"/>
        <pt x="524" y="310" on="1"/>
        <pt x="510" y="243" on="0"/>
        <pt x="492" y="158" on="0"/>
        <pt x="487" y="141" on="1"/>
        <pt x="468" y="65" on="0"/>
        <pt x="449" y="35" on="1"/>
        <pt x="413" y="-18" on="0"/>
        <pt x="340" y="-18" on="1"/>
        <pt x="323" y="-18" on="0"/>
        <pt x="281" y="-7" on="1"/>
        <pt x="245" y="3" on="0"/>
        <pt x="229" y="0" on="1"/>
        <pt x="232" y="14" on="0"/>
        <pt x="242" y="56" on="0"/>
        <pt x="250" y="85" on="1"/>
        <pt x="288" y="85" on="1"/>
        <pt x="286" y="65" on="0"/>
        <pt x="309" y="50" on="1"/>
        <pt x="325" y="38" on="0"/>
        <pt x="344" y="38" on="1"/>
        <pt x="381" y="38" on="0"/>
        <pt x="398" y="77" on="1"/>
        <pt x="414" y="111" on="0"/>
        <pt x="456" y="312" on="1"/>
        <pt x="476" y="405" on="0"/>
        <pt x="499" y="519" on="0"/>
        <pt x="504" y="542" on="1"/>
        <pt x="513" y="586" on="0"/>
        <pt x="511" y="625" on="1"/>
      </contour>
    </TTGlyph>
    <TTGlyph name="Iacute" xMin="9" yMin="0" xMax="318" yMax="856">
      <contour>
        <pt x="231" y="623" on="1"/>
        <pt x="223" y="604" on="0"/>
        <pt x="204" y="540" on="0"/>
        <pt x="193" y="494" on="1"/>
        <pt x="183" y="448" on="0"/>
        <pt x="164" y="356" on="0"/>
        <pt x="154" y="310" on="1"/>
        <pt x="144" y="264" on="0"/>
        <pt x="126" y="174" on="0"/>
        <pt x="116" y="128" on="1"/>
        <pt x="97" y="37" on="0"/>
        <pt x="98" y="0" on="1"/>
        <pt x="9" y="0" on="1"/>
        <pt x="18" y="19" on="0"/>
        <pt x="37" y="82" on="0"/>
        <pt x="47" y="128" on="1"/>
        <pt x="57" y="174" on="0"/>
        <pt x="77" y="266" on="0"/>
        <pt x="87" y="312" on="1"/>
        <pt x="124" y="493" on="0"/>
        <pt x="126" y="495" on="1"/>
        <pt x="142" y="586" on="0"/>
        <pt x="141" y="623" on="1"/>
      </contour>
      <contour>
        <pt x="318" y="833" on="1"/>
        <pt x="221" y="666" on="1"/>
        <pt x="174" y="682" on="1"/>
        <pt x="255" y="856" on="1"/>
      </contour>
    </TTGlyph>
    <TTGlyph name="Ibreve" xMin="9" yMin="0" xMax="364" yMax="788">
      <contour>
        <pt x="231" y="623" on="1"/>
        <pt x="223" y="604" on="0"/>
        <pt x="204" y="540" on="0"/>
        <pt x="193" y="494" on="1"/>
        <pt x="183" y="448" on="0"/>
        <pt x="164" y="356" on="0"/>
        <pt x="154" y="310" on="1"/>
        <pt x="144" y="264" on="0"/>
        <pt x="126" y="174" on="0"/>
        <pt x="116" y="128" on="1"/>
        <pt x="97" y="37" on="0"/>
        <pt x="98" y="0" on="1"/>
        <pt x="9" y="0" on="1"/>
        <pt x="18" y="19" on="0"/>
        <pt x="37" y="82" on="0"/>
        <pt x="47" y="128" on="1"/>
        <pt x="57" y="174" on="0"/>
        <pt x="77" y="266" on="0"/>
        <pt x="87" y="312" on="1"/>
        <pt x="124" y="493" on="0"/>
        <pt x="126" y="495" on="1"/>
        <pt x="142" y="586" on="0"/>
        <pt x="141" y="623" on="1"/>
      </contour>
      <contour>
        <pt x="364" y="769" on="1"/>
        <pt x="344" y="743" on="0"/>
        <pt x="307" y="704" on="0"/>
        <pt x="266" y="679" on="0"/>
        <pt x="217" y="666" on="0"/>
        <pt x="186" y="666" on="1"/>
        <pt x="103" y="666" on="0"/>
        <pt x="48" y="769" on="1"/>
        <pt x="85" y="788" on="1"/>
        <pt x="131" y="701" on="0"/>
        <pt x="193" y="702" on="1"/>
        <pt x="238" y="704" on="0"/>
        <pt x="298" y="750" on="0"/>
        <pt x="331" y="788" on="1"/>
      </contour>
    </TTGlyph>
    <TTGlyph name="Icircumflex" xMin="9" yMin="0" xMax="380" yMax="832">
      <contour>
        <pt x="231" y="623" on="1"/>
        <pt x="223" y="604" on="0"/>
        <pt x="204" y="540" on="0"/>
        <pt x="193" y="494" on="1"/>
        <pt x="183" y="448" on="0"/>
        <pt x="164" y="356" on="0"/>
        <pt x="154" y="310" on="1"/>
        <pt x="144" y="264" on="0"/>
        <pt x="126" y="174" on="0"/>
        <pt x="116" y="128" on="1"/>
        <pt x="97" y="37" on="0"/>
        <pt x="98" y="0" on="1"/>
        <pt x="9" y="0" on="1"/>
        <pt x="18" y="19" on="0"/>
        <pt x="37" y="82" on="0"/>
        <pt x="47" y="128" on="1"/>
        <pt x="57" y="174" on="0"/>
        <pt x="77" y="266" on="0"/>
        <pt x="87" y="312" on="1"/>
        <pt x="124" y="493" on="0"/>
        <pt x="126" y="495" on="1"/>
        <pt x="142" y="586" on="0"/>
        <pt x="141" y="623" on="1"/>
      </contour>
      <contour>
        <pt x="380" y="708" on="1"/>
        <pt x="340" y="674" on="1"/>
        <pt x="219" y="774" on="1"/>
        <pt x="216" y="774" on="0"/>
        <pt x="53" y="669" on="1"/>
        <pt x="24" y="708" on="1"/>
        <pt x="228" y="832" on="1"/>
        <pt x="227" y="831" on="0"/>
        <pt x="304" y="769" on="1"/>
        <pt x="380" y="708" on="0"/>
      </contour>
    </TTGlyph>
    <TTGlyph name="Idieresis" xMin="9" yMin="0" xMax="355" yMax="769">
      <contour>
        <pt x="231" y="623" on="1"/>
        <pt x="223" y="604" on="0"/>
        <pt x="204" y="540" on="0"/>
        <pt x="193" y="494" on="1"/>
        <pt x="183" y="448" on="0"/>
        <pt x="164" y="356" on="0"/>
        <pt x="154" y="310" on="1"/>
        <pt x="144" y="264" on="0"/>
        <pt x="126" y="174" on="0"/>
        <pt x="116" y="128" on="1"/>
        <pt x="97" y="37" on="0"/>
        <pt x="98" y="0" on="1"/>
        <pt x="9" y="0" on="1"/>
        <pt x="18" y="19" on="0"/>
        <pt x="37" y="82" on="0"/>
        <pt x="47" y="128" on="1"/>
        <pt x="57" y="174" on="0"/>
        <pt x="77" y="266" on="0"/>
        <pt x="87" y="312" on="1"/>
        <pt x="124" y="493" on="0"/>
        <pt x="126" y="495" on="1"/>
        <pt x="142" y="586" on="0"/>
        <pt x="141" y="623" on="1"/>
      </contour>
      <contour>
        <pt x="355" y="719" on="1"/>
        <pt x="350" y="702" on="0"/>
        <pt x="318" y="672" on="0"/>
        <pt x="299" y="672" on="1"/>
        <pt x="278" y="672" on="0"/>
        <pt x="256" y="699" on="0"/>
        <pt x="260" y="719" on="1"/>
        <pt x="264" y="739" on="0"/>
        <pt x="299" y="768" on="0"/>
        <pt x="319" y="768" on="1"/>
        <pt x="336" y="768" on="0"/>
        <pt x="358" y="739" on="0"/>
      </contour>
      <contour>
        <pt x="156" y="722" on="1"/>
        <pt x="153" y="704" on="0"/>
        <pt x="119" y="674" on="0"/>
        <pt x="99" y="674" on="1"/>
        <pt x="79" y="674" on="0"/>
        <pt x="57" y="702" on="0"/>
        <pt x="61" y="722" on="1"/>
        <pt x="65" y="739" on="0"/>
        <pt x="99" y="769" on="0"/>
        <pt x="119" y="769" on="1"/>
        <pt x="139" y="769" on="0"/>
        <pt x="161" y="739" on="0"/>
      </contour>
    </TTGlyph>
    <TTGlyph name="Idotaccent" xMin="9" yMin="0" xMax="249" yMax="760">
      <contour>
        <pt x="231" y="623" on="1"/>
        <pt x="223" y="604" on="0"/>
        <pt x="204" y="540" on="0"/>
        <pt x="193" y="494" on="1"/>
        <pt x="183" y="448" on="0"/>
        <pt x="164" y="356" on="0"/>
        <pt x="154" y="310" on="1"/>
        <pt x="144" y="264" on="0"/>
        <pt x="126" y="174" on="0"/>
        <pt x="116" y="128" on="1"/>
        <pt x="97" y="37" on="0"/>
        <pt x="98" y="0" on="1"/>
        <pt x="9" y="0" on="1"/>
        <pt x="18" y="19" on="0"/>
        <pt x="37" y="82" on="0"/>
        <pt x="47" y="128" on="1"/>
        <pt x="57" y="174" on="0"/>
        <pt x="77" y="266" on="0"/>
        <pt x="87" y="312" on="1"/>
        <pt x="124" y="493" on="0"/>
        <pt x="126" y="495" on="1"/>
        <pt x="142" y="586" on="0"/>
        <pt x="141" y="623" on="1"/>
      </contour>
      <contour>
        <pt x="249" y="715" on="1"/>
        <pt x="239" y="666" on="0"/>
        <pt x="193" y="666" on="1"/>
        <pt x="154" y="666" on="0"/>
        <pt x="154" y="701" on="1"/>
        <pt x="154" y="725" on="0"/>
        <pt x="188" y="760" on="0"/>
        <pt x="213" y="760" on="1"/>
        <pt x="232" y="760" on="0"/>
        <pt x="253" y="733" on="0"/>
      </contour>
    </TTGlyph>
    <TTGlyph name="Igrave" xMin="9" yMin="0" xMax="231" yMax="856">
      <contour>
        <pt x="231" y="623" on="1"/>
        <pt x="223" y="604" on="0"/>
        <pt x="204" y="540" on="0"/>
        <pt x="193" y="494" on="1"/>
        <pt x="183" y="448" on="0"/>
        <pt x="164" y="356" on="0"/>
        <pt x="154" y="310" on="1"/>
        <pt x="144" y="264" on="0"/>
        <pt x="126" y="174" on="0"/>
        <pt x="116" y="128" on="1"/>
        <pt x="97" y="37" on="0"/>
        <pt x="98" y="0" on="1"/>
        <pt x="9" y="0" on="1"/>
        <pt x="18" y="19" on="0"/>
        <pt x="37" y="82" on="0"/>
        <pt x="47" y="128" on="1"/>
        <pt x="57" y="174" on="0"/>
        <pt x="77" y="266" on="0"/>
        <pt x="87" y="312" on="1"/>
        <pt x="124" y="493" on="0"/>
        <pt x="126" y="495" on="1"/>
        <pt x="142" y="586" on="0"/>
        <pt x="141" y="623" on="1"/>
      </contour>
      <contour>
        <pt x="222" y="682" on="1"/>
        <pt x="175" y="666" on="1"/>
        <pt x="78" y="833" on="1"/>
        <pt x="141" y="856" on="1"/>
      </contour>
    </TTGlyph>
    <TTGlyph name="Imacron" xMin="9" yMin="0" xMax="356" yMax="715">
      <contour>
        <pt x="231" y="623" on="1"/>
        <pt x="223" y="604" on="0"/>
        <pt x="204" y="540" on="0"/>
        <pt x="193" y="494" on="1"/>
        <pt x="183" y="448" on="0"/>
        <pt x="164" y="356" on="0"/>
        <pt x="154" y="310" on="1"/>
        <pt x="144" y="264" on="0"/>
        <pt x="126" y="174" on="0"/>
        <pt x="116" y="128" on="1"/>
        <pt x="97" y="37" on="0"/>
        <pt x="98" y="0" on="1"/>
        <pt x="9" y="0" on="1"/>
        <pt x="18" y="19" on="0"/>
        <pt x="37" y="82" on="0"/>
        <pt x="47" y="128" on="1"/>
        <pt x="57" y="174" on="0"/>
        <pt x="77" y="266" on="0"/>
        <pt x="87" y="312" on="1"/>
        <pt x="124" y="493" on="0"/>
        <pt x="126" y="495" on="1"/>
        <pt x="142" y="586" on="0"/>
        <pt x="141" y="623" on="1"/>
      </contour>
      <contour>
        <pt x="356" y="715" on="1"/>
        <pt x="346" y="667" on="1"/>
        <pt x="38" y="667" on="1"/>
        <pt x="49" y="715" on="1"/>
      </contour>
    </TTGlyph>
    <TTGlyph name="Iogonek" xMin="-81" yMin="-222" xMax="231" yMax="623">
      <contour>
        <pt x="231" y="623" on="1"/>
        <pt x="223" y="604" on="0"/>
        <pt x="204" y="540" on="0"/>
        <pt x="193" y="494" on="1"/>
        <pt x="183" y="448" on="0"/>
        <pt x="164" y="356" on="0"/>
        <pt x="154" y="310" on="1"/>
        <pt x="144" y="264" on="0"/>
        <pt x="126" y="174" on="0"/>
        <pt x="116" y="128" on="1"/>
        <pt x="97" y="37" on="0"/>
        <pt x="98" y="0" on="1"/>
        <pt x="70" y="0" on="1"/>
        <pt x="40" y="-26" on="0"/>
        <pt x="14" y="-62" on="1"/>
        <pt x="-15" y="-103" on="0"/>
        <pt x="-15" y="-125" on="1"/>
        <pt x="-17" y="-166" on="0"/>
        <pt x="22" y="-166" on="1"/>
        <pt x="33" y="-166" on="0"/>
        <pt x="57" y="-157" on="1"/>
        <pt x="69" y="-152" on="0"/>
        <pt x="87" y="-145" on="0"/>
        <pt x="92" y="-141" on="1"/>
        <pt x="103" y="-193" on="1"/>
        <pt x="68" y="-219" on="0"/>
        <pt x="3" y="-222" on="1"/>
        <pt x="-42" y="-222" on="0"/>
        <pt x="-85" y="-174" on="0"/>
        <pt x="-81" y="-134" on="1"/>
        <pt x="-73" y="-55" on="0"/>
        <pt x="15" y="15" on="1"/>
        <pt x="33" y="58" on="0"/>
        <pt x="87" y="312" on="1"/>
        <pt x="124" y="493" on="0"/>
        <pt x="126" y="495" on="1"/>
        <pt x="142" y="586" on="0"/>
        <pt x="141" y="623" on="1"/>
      </contour>
    </TTGlyph>
    <TTGlyph name="Iota" xMin="30" yMin="0" xMax="252" yMax="623">
      <contour>
        <pt x="252" y="623" on="1"/>
        <pt x="244" y="604" on="0"/>
        <pt x="225" y="540" on="0"/>
        <pt x="214" y="494" on="1"/>
        <pt x="204" y="448" on="0"/>
        <pt x="185" y="356" on="0"/>
        <pt x="175" y="310" on="1"/>
        <pt x="165" y="264" on="0"/>
        <pt x="147" y="174" on="0"/>
        <pt x="137" y="128" on="1"/>
        <pt x="118" y="37" on="0"/>
        <pt x="119" y="0" on="1"/>
        <pt x="30" y="0" on="1"/>
        <pt x="48" y="38" on="0"/>
        <pt x="69" y="127" on="1"/>
        <pt x="108" y="312" on="1"/>
        <pt x="145" y="493" on="0"/>
        <pt x="147" y="495" on="1"/>
        <pt x="163" y="586" on="0"/>
        <pt x="162" y="623" on="1"/>
      </contour>
    </TTGlyph>
    <TTGlyph name="Iotadieresis" xMin="9" yMin="0" xMax="329" yMax="751">
      <contour>
        <pt x="231" y="623" on="1"/>
        <pt x="223" y="604" on="0"/>
        <pt x="204" y="540" on="0"/>
        <pt x="193" y="494" on="1"/>
        <pt x="183" y="448" on="0"/>
        <pt x="164" y="356" on="0"/>
        <pt x="154" y="310" on="1"/>
        <pt x="144" y="264" on="0"/>
        <pt x="126" y="174" on="0"/>
        <pt x="116" y="128" on="1"/>
        <pt x="97" y="37" on="0"/>
        <pt x="98" y="0" on="1"/>
        <pt x="9" y="0" on="1"/>
        <pt x="27" y="38" on="0"/>
        <pt x="48" y="127" on="1"/>
        <pt x="87" y="312" on="1"/>
        <pt x="124" y="493" on="0"/>
        <pt x="126" y="495" on="1"/>
        <pt x="142" y="586" on="0"/>
        <pt x="141" y="623" on="1"/>
      </contour>
      <contour>
        <pt x="329" y="707" on="1"/>
        <pt x="326" y="690" on="0"/>
        <pt x="296" y="665" on="0"/>
        <pt x="279" y="665" on="1"/>
        <pt x="261" y="665" on="0"/>
        <pt x="242" y="690" on="0"/>
        <pt x="245" y="707" on="1"/>
        <pt x="249" y="723" on="0"/>
        <pt x="280" y="750" on="0"/>
        <pt x="297" y="750" on="1"/>
        <pt x="313" y="750" on="0"/>
        <pt x="333" y="723" on="0"/>
      </contour>
      <contour>
        <pt x="154" y="709" on="1"/>
        <pt x="150" y="692" on="0"/>
        <pt x="120" y="667" on="0"/>
        <pt x="103" y="667" on="1"/>
        <pt x="85" y="667" on="0"/>
        <pt x="65" y="692" on="0"/>
        <pt x="69" y="709" on="1"/>
        <pt x="72" y="725" on="0"/>
        <pt x="103" y="751" on="0"/>
        <pt x="120" y="751" on="1"/>
        <pt x="137" y="751" on="0"/>
        <pt x="157" y="724" on="0"/>
      </contour>
    </TTGlyph>
    <TTGlyph name="Itilde" xMin="8" yMin="0" xMax="395" yMax="791">
      <contour>
        <pt x="231" y="623" on="1"/>
        <pt x="223" y="604" on="0"/>
        <pt x="204" y="540" on="0"/>
        <pt x="193" y="494" on="1"/>
        <pt x="183" y="448" on="0"/>
        <pt x="164" y="356" on="0"/>
        <pt x="154" y="310" on="1"/>
        <pt x="144" y="264" on="0"/>
        <pt x="126" y="174" on="0"/>
        <pt x="116" y="128" on="1"/>
        <pt x="97" y="37" on="0"/>
        <pt x="98" y="0" on="1"/>
        <pt x="9" y="0" on="1"/>
        <pt x="18" y="19" on="0"/>
        <pt x="37" y="82" on="0"/>
        <pt x="47" y="128" on="1"/>
        <pt x="57" y="174" on="0"/>
        <pt x="77" y="266" on="0"/>
        <pt x="87" y="312" on="1"/>
        <pt x="124" y="493" on="0"/>
        <pt x="126" y="495" on="1"/>
        <pt x="142" y="586" on="0"/>
        <pt x="141" y="623" on="1"/>
      </contour>
      <contour>
        <pt x="395" y="766" on="1"/>
        <pt x="343" y="666" on="0"/>
        <pt x="273" y="666" on="1"/>
        <pt x="237" y="666" on="0"/>
        <pt x="176" y="708" on="1"/>
        <pt x="126" y="741" on="0"/>
        <pt x="110" y="740" on="1"/>
        <pt x="82" y="739" on="0"/>
        <pt x="50" y="673" on="1"/>
        <pt x="8" y="692" on="1"/>
        <pt x="63" y="788" on="0"/>
        <pt x="116" y="791" on="1"/>
        <pt x="144" y="792" on="0"/>
        <pt x="207" y="751" on="1"/>
        <pt x="259" y="715" on="0"/>
        <pt x="284" y="713" on="1"/>
        <pt x="293" y="713" on="0"/>
        <pt x="315" y="724" on="0"/>
        <pt x="336" y="745" on="0"/>
        <pt x="353" y="773" on="0"/>
        <pt x="358" y="789" on="1"/>
        <pt x="368" y="784" on="0"/>
        <pt x="386" y="772" on="0"/>
      </contour>
    </TTGlyph>
    <TTGlyph name="J" xMin="19" yMin="-18" xMax="392" yMax="625">
      <contour>
        <pt x="392" y="625" on="1"/>
        <pt x="384" y="606" on="0"/>
        <pt x="365" y="542" on="0"/>
        <pt x="354" y="495" on="1"/>
        <pt x="344" y="449" on="0"/>
        <pt x="324" y="357" on="0"/>
        <pt x="314" y="310" on="1"/>
        <pt x="300" y="243" on="0"/>
        <pt x="282" y="158" on="0"/>
        <pt x="277" y="141" on="1"/>
        <pt x="258" y="65" on="0"/>
        <pt x="239" y="35" on="1"/>
        <pt x="203" y="-18" on="0"/>
        <pt x="130" y="-18" on="1"/>
        <pt x="113" y="-18" on="0"/>
        <pt x="71" y="-7" on="1"/>
        <pt x="35" y="3" on="0"/>
        <pt x="19" y="0" on="1"/>
        <pt x="22" y="14" on="0"/>
        <pt x="32" y="56" on="0"/>
        <pt x="40" y="85" on="1"/>
        <pt x="78" y="85" on="1"/>
        <pt x="76" y="65" on="0"/>
        <pt x="99" y="50" on="1"/>
        <pt x="115" y="38" on="0"/>
        <pt x="134" y="38" on="1"/>
        <pt x="171" y="38" on="0"/>
        <pt x="188" y="77" on="1"/>
        <pt x="204" y="111" on="0"/>
        <pt x="246" y="312" on="1"/>
        <pt x="266" y="405" on="0"/>
        <pt x="289" y="519" on="0"/>
        <pt x="294" y="542" on="1"/>
        <pt x="303" y="586" on="0"/>
        <pt x="301" y="625" on="1"/>
      </contour>
    </TTGlyph>
    <TTGlyph name="Jcircumflex" xMin="19" yMin="-18" xMax="551" yMax="832">
      <contour>
        <pt x="392" y="625" on="1"/>
        <pt x="384" y="606" on="0"/>
        <pt x="365" y="542" on="0"/>
        <pt x="354" y="495" on="1"/>
        <pt x="344" y="449" on="0"/>
        <pt x="324" y="357" on="0"/>
        <pt x="314" y="310" on="1"/>
        <pt x="300" y="243" on="0"/>
        <pt x="282" y="158" on="0"/>
        <pt x="277" y="141" on="1"/>
        <pt x="258" y="65" on="0"/>
        <pt x="239" y="35" on="1"/>
        <pt x="203" y="-18" on="0"/>
        <pt x="130" y="-18" on="1"/>
        <pt x="113" y="-18" on="0"/>
        <pt x="71" y="-7" on="1"/>
        <pt x="35" y="3" on="0"/>
        <pt x="19" y="0" on="1"/>
        <pt x="22" y="14" on="0"/>
        <pt x="32" y="56" on="0"/>
        <pt x="40" y="85" on="1"/>
        <pt x="78" y="85" on="1"/>
        <pt x="76" y="65" on="0"/>
        <pt x="99" y="50" on="1"/>
        <pt x="115" y="38" on="0"/>
        <pt x="134" y="38" on="1"/>
        <pt x="171" y="38" on="0"/>
        <pt x="188" y="77" on="1"/>
        <pt x="204" y="111" on="0"/>
        <pt x="246" y="312" on="1"/>
        <pt x="266" y="405" on="0"/>
        <pt x="289" y="519" on="0"/>
        <pt x="294" y="542" on="1"/>
        <pt x="303" y="586" on="0"/>
        <pt x="301" y="625" on="1"/>
      </contour>
      <contour>
        <pt x="551" y="708" on="1"/>
        <pt x="511" y="674" on="1"/>
        <pt x="390" y="774" on="1"/>
        <pt x="387" y="774" on="0"/>
        <pt x="224" y="669" on="1"/>
        <pt x="195" y="708" on="1"/>
        <pt x="399" y="832" on="1"/>
        <pt x="398" y="831" on="0"/>
        <pt x="475" y="769" on="1"/>
        <pt x="551" y="708" on="0"/>
      </contour>
    </TTGlyph>
    <TTGlyph name="K" xMin="9" yMin="0" xMax="618" yMax="624">
      <contour>
        <pt x="618" y="624" on="1"/>
        <pt x="601" y="613" on="0"/>
        <pt x="545" y="568" on="0"/>
        <pt x="505" y="534" on="1"/>
        <pt x="465" y="500" on="0"/>
        <pt x="387" y="434" on="0"/>
        <pt x="347" y="400" on="1"/>
        <pt x="330" y="387" on="0"/>
        <pt x="284" y="350" on="0"/>
        <pt x="255" y="326" on="1"/>
        <pt x="269" y="313" on="0"/>
        <pt x="309" y="269" on="0"/>
        <pt x="335" y="238" on="1"/>
        <pt x="451" y="101" on="0"/>
        <pt x="494" y="0" on="1"/>
        <pt x="390" y="0" on="1"/>
        <pt x="388" y="20" on="0"/>
        <pt x="374" y="62" on="0"/>
        <pt x="361" y="82" on="1"/>
        <pt x="340" y="116" on="0"/>
        <pt x="280" y="190" on="1"/>
        <pt x="210" y="276" on="0"/>
        <pt x="159" y="318" on="1"/>
        <pt x="177" y="334" on="0"/>
        <pt x="251" y="396" on="0"/>
        <pt x="308" y="444" on="1"/>
        <pt x="363" y="489" on="0"/>
        <pt x="427" y="543" on="0"/>
        <pt x="436" y="552" on="1"/>
        <pt x="480" y="592" on="0"/>
        <pt x="488" y="624" on="1"/>
      </contour>
      <contour>
        <pt x="233" y="624" on="1"/>
        <pt x="222" y="601" on="0"/>
        <pt x="184" y="447" on="0"/>
        <pt x="156" y="314" on="1"/>
        <pt x="117" y="131" on="1"/>
        <pt x="107" y="83" on="0"/>
        <pt x="99" y="19" on="0"/>
        <pt x="100" y="0" on="1"/>
        <pt x="9" y="0" on="1"/>
        <pt x="18" y="19" on="0"/>
        <pt x="37" y="82" on="0"/>
        <pt x="47" y="128" on="1"/>
        <pt x="58" y="174" on="0"/>
        <pt x="77" y="266" on="0"/>
        <pt x="87" y="312" on="1"/>
        <pt x="126" y="493" on="0"/>
        <pt x="126" y="496" on="1"/>
        <pt x="144" y="585" on="0"/>
        <pt x="142" y="624" on="1"/>
      </contour>
    </TTGlyph>
    <TTGlyph name="Kappa" xMin="30" yMin="0" xMax="639" yMax="624">
      <contour>
        <pt x="639" y="624" on="1"/>
        <pt x="622" y="613" on="0"/>
        <pt x="566" y="568" on="0"/>
        <pt x="526" y="534" on="1"/>
        <pt x="486" y="500" on="0"/>
        <pt x="408" y="434" on="0"/>
        <pt x="368" y="400" on="1"/>
        <pt x="351" y="387" on="0"/>
        <pt x="305" y="350" on="0"/>
        <pt x="276" y="326" on="1"/>
        <pt x="290" y="313" on="0"/>
        <pt x="330" y="269" on="0"/>
        <pt x="356" y="238" on="1"/>
        <pt x="472" y="101" on="0"/>
        <pt x="515" y="0" on="1"/>
        <pt x="411" y="0" on="1"/>
        <pt x="409" y="20" on="0"/>
        <pt x="395" y="62" on="0"/>
        <pt x="382" y="82" on="1"/>
        <pt x="361" y="116" on="0"/>
        <pt x="301" y="190" on="1"/>
        <pt x="231" y="276" on="0"/>
        <pt x="180" y="318" on="1"/>
        <pt x="198" y="334" on="0"/>
        <pt x="272" y="396" on="0"/>
        <pt x="329" y="444" on="1"/>
        <pt x="384" y="489" on="0"/>
        <pt x="448" y="543" on="0"/>
        <pt x="457" y="552" on="1"/>
        <pt x="501" y="592" on="0"/>
        <pt x="509" y="624" on="1"/>
      </contour>
      <contour>
        <pt x="254" y="624" on="1"/>
        <pt x="243" y="601" on="0"/>
        <pt x="205" y="447" on="0"/>
        <pt x="177" y="314" on="1"/>
        <pt x="138" y="131" on="1"/>
        <pt x="128" y="83" on="0"/>
        <pt x="120" y="19" on="0"/>
        <pt x="121" y="0" on="1"/>
        <pt x="30" y="0" on="1"/>
        <pt x="48" y="38" on="0"/>
        <pt x="69" y="127" on="1"/>
        <pt x="108" y="312" on="1"/>
        <pt x="147" y="493" on="0"/>
        <pt x="147" y="496" on="1"/>
        <pt x="165" y="585" on="0"/>
        <pt x="163" y="624" on="1"/>
      </contour>
    </TTGlyph>
    <TTGlyph name="Kcommaaccent" xMin="9" yMin="-248" xMax="618" yMax="624">
      <contour>
        <pt x="618" y="624" on="1"/>
        <pt x="601" y="613" on="0"/>
        <pt x="545" y="568" on="0"/>
        <pt x="505" y="534" on="1"/>
        <pt x="465" y="500" on="0"/>
        <pt x="387" y="434" on="0"/>
        <pt x="347" y="400" on="1"/>
        <pt x="330" y="387" on="0"/>
        <pt x="284" y="350" on="0"/>
        <pt x="255" y="326" on="1"/>
        <pt x="269" y="313" on="0"/>
        <pt x="309" y="269" on="0"/>
        <pt x="335" y="238" on="1"/>
        <pt x="451" y="101" on="0"/>
        <pt x="494" y="0" on="1"/>
        <pt x="390" y="0" on="1"/>
        <pt x="388" y="20" on="0"/>
        <pt x="374" y="62" on="0"/>
        <pt x="361" y="82" on="1"/>
        <pt x="340" y="116" on="0"/>
        <pt x="280" y="190" on="1"/>
        <pt x="210" y="276" on="0"/>
        <pt x="159" y="318" on="1"/>
        <pt x="177" y="334" on="0"/>
        <pt x="251" y="396" on="0"/>
        <pt x="308" y="444" on="1"/>
        <pt x="363" y="489" on="0"/>
        <pt x="427" y="543" on="0"/>
        <pt x="436" y="552" on="1"/>
        <pt x="480" y="592" on="0"/>
        <pt x="488" y="624" on="1"/>
      </contour>
      <contour>
        <pt x="233" y="624" on="1"/>
        <pt x="222" y="601" on="0"/>
        <pt x="184" y="447" on="0"/>
        <pt x="156" y="314" on="1"/>
        <pt x="117" y="131" on="1"/>
        <pt x="107" y="83" on="0"/>
        <pt x="99" y="19" on="0"/>
        <pt x="100" y="0" on="1"/>
        <pt x="9" y="0" on="1"/>
        <pt x="18" y="19" on="0"/>
        <pt x="37" y="82" on="0"/>
        <pt x="47" y="128" on="1"/>
        <pt x="58" y="174" on="0"/>
        <pt x="77" y="266" on="0"/>
        <pt x="87" y="312" on="1"/>
        <pt x="126" y="493" on="0"/>
        <pt x="126" y="496" on="1"/>
        <pt x="144" y="585" on="0"/>
        <pt x="142" y="624" on="1"/>
      </contour>
      <contour>
        <pt x="251" y="-68" on="1"/>
        <pt x="238" y="-129" on="1"/>
        <pt x="217" y="-228" on="0"/>
        <pt x="134" y="-248" on="1"/>
        <pt x="141" y="-213" on="1"/>
        <pt x="184" y="-206" on="0"/>
        <pt x="199" y="-135" on="1"/>
        <pt x="171" y="-135" on="1"/>
        <pt x="185" y="-68" on="1"/>
      </contour>
    </TTGlyph>
    <TTGlyph name="L" xMin="8" yMin="-3" xMax="443" yMax="624">
      <contour>
        <pt x="443" y="106" on="1"/>
        <pt x="438" y="91" on="0"/>
        <pt x="427" y="37" on="0"/>
        <pt x="420" y="-2" on="1"/>
        <pt x="357" y="1" on="0"/>
        <pt x="255" y="4" on="0"/>
        <pt x="215" y="3" on="1"/>
        <pt x="150" y="3" on="0"/>
        <pt x="8" y="-3" on="1"/>
        <pt x="26" y="31" on="0"/>
        <pt x="89" y="327" on="1"/>
        <pt x="99" y="372" on="0"/>
        <pt x="117" y="458" on="0"/>
        <pt x="127" y="503" on="1"/>
        <pt x="143" y="587" on="0"/>
        <pt x="142" y="624" on="1"/>
        <pt x="233" y="624" on="1"/>
        <pt x="215" y="586" on="0"/>
        <pt x="194" y="492" on="1"/>
        <pt x="184" y="447" on="0"/>
        <pt x="166" y="358" on="0"/>
        <pt x="156" y="313" on="1"/>
        <pt x="102" y="63" on="1"/>
        <pt x="313" y="63" on="1"/>
        <pt x="367" y="63" on="0"/>
        <pt x="378" y="75" on="1"/>
        <pt x="386" y="83" on="0"/>
        <pt x="394" y="106" on="1"/>
      </contour>
    </TTGlyph>
    <TTGlyph name="Lacute" xMin="8" yMin="-3" xMax="443" yMax="856">
      <contour>
        <pt x="443" y="106" on="1"/>
        <pt x="438" y="91" on="0"/>
        <pt x="427" y="37" on="0"/>
        <pt x="420" y="-2" on="1"/>
        <pt x="357" y="1" on="0"/>
        <pt x="255" y="4" on="0"/>
        <pt x="215" y="3" on="1"/>
        <pt x="150" y="3" on="0"/>
        <pt x="8" y="-3" on="1"/>
        <pt x="26" y="31" on="0"/>
        <pt x="89" y="327" on="1"/>
        <pt x="99" y="372" on="0"/>
        <pt x="117" y="458" on="0"/>
        <pt x="127" y="503" on="1"/>
        <pt x="143" y="587" on="0"/>
        <pt x="142" y="624" on="1"/>
        <pt x="233" y="624" on="1"/>
        <pt x="215" y="586" on="0"/>
        <pt x="194" y="492" on="1"/>
        <pt x="184" y="447" on="0"/>
        <pt x="166" y="358" on="0"/>
        <pt x="156" y="313" on="1"/>
        <pt x="102" y="63" on="1"/>
        <pt x="313" y="63" on="1"/>
        <pt x="367" y="63" on="0"/>
        <pt x="378" y="75" on="1"/>
        <pt x="386" y="83" on="0"/>
        <pt x="394" y="106" on="1"/>
      </contour>
      <contour>
        <pt x="308" y="833" on="1"/>
        <pt x="211" y="666" on="1"/>
        <pt x="164" y="682" on="1"/>
        <pt x="245" y="856" on="1"/>
      </contour>
    </TTGlyph>
    <TTGlyph name="Lambda" xMin="-5" yMin="0" xMax="557" yMax="633">
      <contour>
        <pt x="557" y="0" on="1"/>
        <pt x="471" y="0" on="1"/>
        <pt x="470" y="19" on="0"/>
        <pt x="454" y="149" on="0"/>
        <pt x="437" y="263" on="1"/>
        <pt x="432" y="299" on="0"/>
        <pt x="413" y="448" on="0"/>
        <pt x="400" y="563" on="1"/>
        <pt x="369" y="506" on="0"/>
        <pt x="284" y="357" on="0"/>
        <pt x="228" y="263" on="1"/>
        <pt x="100" y="49" on="0"/>
        <pt x="78" y="0" on="1"/>
        <pt x="-5" y="0" on="1"/>
        <pt x="65" y="97" on="0"/>
        <pt x="379" y="633" on="1"/>
        <pt x="448" y="633" on="1"/>
        <pt x="461" y="548" on="0"/>
        <pt x="484" y="401" on="0"/>
        <pt x="495" y="338" on="1"/>
        <pt x="520" y="186" on="0"/>
        <pt x="550" y="18" on="0"/>
      </contour>
    </TTGlyph>
    <TTGlyph name="Lcaron" xMin="8" yMin="-3" xMax="536" yMax="666">
      <contour>
        <pt x="443" y="106" on="1"/>
        <pt x="438" y="91" on="0"/>
        <pt x="427" y="37" on="0"/>
        <pt x="420" y="-2" on="1"/>
        <pt x="357" y="1" on="0"/>
        <pt x="255" y="4" on="0"/>
        <pt x="215" y="3" on="1"/>
        <pt x="150" y="3" on="0"/>
        <pt x="8" y="-3" on="1"/>
        <pt x="26" y="31" on="0"/>
        <pt x="89" y="327" on="1"/>
        <pt x="99" y="372" on="0"/>
        <pt x="117" y="458" on="0"/>
        <pt x="127" y="503" on="1"/>
        <pt x="143" y="587" on="0"/>
        <pt x="142" y="624" on="1"/>
        <pt x="233" y="624" on="1"/>
        <pt x="215" y="586" on="0"/>
        <pt x="194" y="492" on="1"/>
        <pt x="184" y="447" on="0"/>
        <pt x="166" y="358" on="0"/>
        <pt x="156" y="313" on="1"/>
        <pt x="102" y="63" on="1"/>
        <pt x="313" y="63" on="1"/>
        <pt x="367" y="63" on="0"/>
        <pt x="378" y="75" on="1"/>
        <pt x="386" y="83" on="0"/>
        <pt x="394" y="106" on="1"/>
      </contour>
      <contour>
        <pt x="536" y="643" on="1"/>
        <pt x="440" y="476" on="1"/>
        <pt x="392" y="492" on="1"/>
        <pt x="473" y="666" on="1"/>
      </contour>
    </TTGlyph>
    <TTGlyph name="Lcommaaccent" xMin="8" yMin="-248" xMax="443" yMax="624">
      <contour>
        <pt x="443" y="106" on="1"/>
        <pt x="438" y="91" on="0"/>
        <pt x="427" y="37" on="0"/>
        <pt x="420" y="-2" on="1"/>
        <pt x="357" y="1" on="0"/>
        <pt x="255" y="4" on="0"/>
        <pt x="215" y="3" on="1"/>
        <pt x="150" y="3" on="0"/>
        <pt x="8" y="-3" on="1"/>
        <pt x="26" y="31" on="0"/>
        <pt x="89" y="327" on="1"/>
        <pt x="99" y="372" on="0"/>
        <pt x="117" y="458" on="0"/>
        <pt x="127" y="503" on="1"/>
        <pt x="143" y="587" on="0"/>
        <pt x="142" y="624" on="1"/>
        <pt x="233" y="624" on="1"/>
        <pt x="215" y="586" on="0"/>
        <pt x="194" y="492" on="1"/>
        <pt x="184" y="447" on="0"/>
        <pt x="166" y="358" on="0"/>
        <pt x="156" y="313" on="1"/>
        <pt x="102" y="63" on="1"/>
        <pt x="313" y="63" on="1"/>
        <pt x="367" y="63" on="0"/>
        <pt x="378" y="75" on="1"/>
        <pt x="386" y="83" on="0"/>
        <pt x="394" y="106" on="1"/>
      </contour>
      <contour>
        <pt x="254" y="-68" on="1"/>
        <pt x="241" y="-129" on="1"/>
        <pt x="220" y="-228" on="0"/>
        <pt x="137" y="-248" on="1"/>
        <pt x="144" y="-213" on="1"/>
        <pt x="187" y="-206" on="0"/>
        <pt x="202" y="-135" on="1"/>
        <pt x="174" y="-135" on="1"/>
        <pt x="188" y="-68" on="1"/>
      </contour>
    </TTGlyph>
    <TTGlyph name="Ldot" xMin="8" yMin="-3" xMax="443" yMax="624">
      <contour>
        <pt x="443" y="106" on="1"/>
        <pt x="438" y="91" on="0"/>
        <pt x="427" y="37" on="0"/>
        <pt x="420" y="-2" on="1"/>
        <pt x="357" y="1" on="0"/>
        <pt x="255" y="4" on="0"/>
        <pt x="215" y="3" on="1"/>
        <pt x="150" y="3" on="0"/>
        <pt x="8" y="-3" on="1"/>
        <pt x="26" y="31" on="0"/>
        <pt x="89" y="327" on="1"/>
        <pt x="99" y="372" on="0"/>
        <pt x="117" y="458" on="0"/>
        <pt x="127" y="503" on="1"/>
        <pt x="143" y="587" on="0"/>
        <pt x="142" y="624" on="1"/>
        <pt x="233" y="624" on="1"/>
        <pt x="215" y="586" on="0"/>
        <pt x="194" y="492" on="1"/>
        <pt x="184" y="447" on="0"/>
        <pt x="166" y="358" on="0"/>
        <pt x="156" y="313" on="1"/>
        <pt x="102" y="63" on="1"/>
        <pt x="313" y="63" on="1"/>
        <pt x="367" y="63" on="0"/>
        <pt x="378" y="75" on="1"/>
        <pt x="386" y="83" on="0"/>
        <pt x="394" y="106" on="1"/>
      </contour>
      <contour>
        <pt x="391" y="371" on="1"/>
        <pt x="391" y="348" on="0"/>
        <pt x="359" y="316" on="0"/>
        <pt x="336" y="316" on="1"/>
        <pt x="313" y="316" on="0"/>
        <pt x="281" y="348" on="0"/>
        <pt x="281" y="371" on="1"/>
        <pt x="281" y="394" on="0"/>
        <pt x="313" y="426" on="0"/>
        <pt x="336" y="426" on="1"/>
        <pt x="359" y="426" on="0"/>
        <pt x="391" y="394" on="0"/>
      </contour>
    </TTGlyph>
    <TTGlyph name="Lslash" xMin="4" yMin="-3" xMax="470" yMax="624">
      <contour>
        <pt x="124" y="360" on="1"/>
        <pt x="128" y="381" on="0"/>
        <pt x="136" y="415" on="0"/>
        <pt x="143" y="448" on="0"/>
        <pt x="150" y="482" on="0"/>
        <pt x="155" y="503" on="1"/>
        <pt x="163" y="545" on="0"/>
        <pt x="170" y="605" on="0"/>
        <pt x="169" y="624" on="1"/>
        <pt x="260" y="624" on="1"/>
        <pt x="242" y="586" on="0"/>
        <pt x="221" y="492" on="1"/>
        <pt x="215" y="466" on="0"/>
        <pt x="202" y="405" on="0"/>
        <pt x="197" y="379" on="1"/>
        <pt x="318" y="412" on="1"/>
        <pt x="320" y="402" on="0"/>
        <pt x="324" y="377" on="0"/>
        <pt x="326" y="368" on="1"/>
        <pt x="187" y="329" on="1"/>
        <pt x="129" y="63" on="1"/>
        <pt x="340" y="63" on="1"/>
        <pt x="394" y="63" on="0"/>
        <pt x="405" y="75" on="1"/>
        <pt x="413" y="83" on="0"/>
        <pt x="421" y="106" on="1"/>
        <pt x="470" y="106" on="1"/>
        <pt x="465" y="91" on="0"/>
        <pt x="454" y="37" on="0"/>
        <pt x="447" y="-2" on="1"/>
        <pt x="384" y="1" on="0"/>
        <pt x="282" y="4" on="0"/>
        <pt x="242" y="3" on="1"/>
        <pt x="177" y="3" on="0"/>
        <pt x="35" y="-3" on="1"/>
        <pt x="43" y="14" on="0"/>
        <pt x="84" y="178" on="0"/>
        <pt x="113" y="310" on="1"/>
        <pt x="5" y="283" on="1"/>
        <pt x="5" y="290" on="0"/>
        <pt x="4" y="321" on="0"/>
        <pt x="4" y="328" on="1"/>
      </contour>
    </TTGlyph>
    <TTGlyph name="M" xMin="10" yMin="0" xMax="772" yMax="622">
      <contour>
        <pt x="772" y="622" on="1"/>
        <pt x="748" y="590" on="0"/>
        <pt x="726" y="499" on="1"/>
        <pt x="715" y="462" on="0"/>
        <pt x="684" y="312" on="1"/>
        <pt x="657" y="184" on="0"/>
        <pt x="630" y="29" on="0"/>
        <pt x="629" y="0" on="1"/>
        <pt x="541" y="0" on="1"/>
        <pt x="550" y="19" on="0"/>
        <pt x="569" y="82" on="0"/>
        <pt x="579" y="128" on="1"/>
        <pt x="589" y="174" on="0"/>
        <pt x="608" y="264" on="0"/>
        <pt x="618" y="310" on="1"/>
        <pt x="668" y="542" on="1"/>
        <pt x="646" y="496" on="0"/>
        <pt x="482" y="273" on="0"/>
        <pt x="338" y="94" on="1"/>
        <pt x="318" y="148" on="0"/>
        <pt x="285" y="243" on="0"/>
        <pt x="271" y="286" on="1"/>
        <pt x="237" y="389" on="0"/>
        <pt x="202" y="522" on="0"/>
        <pt x="201" y="553" on="1"/>
        <pt x="149" y="310" on="1"/>
        <pt x="139" y="264" on="0"/>
        <pt x="120" y="174" on="0"/>
        <pt x="110" y="129" on="1"/>
        <pt x="92" y="38" on="0"/>
        <pt x="94" y="0" on="1"/>
        <pt x="10" y="0" on="1"/>
        <pt x="18" y="19" on="0"/>
        <pt x="37" y="82" on="0"/>
        <pt x="47" y="128" on="1"/>
        <pt x="58" y="174" on="0"/>
        <pt x="77" y="266" on="0"/>
        <pt x="87" y="312" on="1"/>
        <pt x="136" y="536" on="0"/>
        <pt x="136" y="591" on="1"/>
        <pt x="136" y="611" on="0"/>
        <pt x="132" y="622" on="1"/>
        <pt x="233" y="622" on="1"/>
        <pt x="362" y="215" on="1"/>
        <pt x="667" y="622" on="1"/>
      </contour>
    </TTGlyph>
    <TTGlyph name="Macron" xMin="190" yMin="664" xMax="508" yMax="712">
      <contour>
        <pt x="508" y="712" on="1"/>
        <pt x="498" y="664" on="1"/>
        <pt x="190" y="664" on="1"/>
        <pt x="201" y="712" on="1"/>
      </contour>
    </TTGlyph>
    <TTGlyph name="Macronsmall" xMin="140" yMin="574" xMax="447" yMax="618">
      <contour>
        <pt x="437" y="574" on="1"/>
        <pt x="140" y="574" on="1"/>
        <pt x="149" y="618" on="1"/>
        <pt x="447" y="618" on="1"/>
      </contour>
    </TTGlyph>
    <TTGlyph name="Mu" xMin="30" yMin="0" xMax="792" yMax="622">
      <contour>
        <pt x="792" y="622" on="1"/>
        <pt x="768" y="590" on="0"/>
        <pt x="746" y="499" on="1"/>
        <pt x="735" y="462" on="0"/>
        <pt x="704" y="312" on="1"/>
        <pt x="677" y="184" on="0"/>
        <pt x="650" y="29" on="0"/>
        <pt x="649" y="0" on="1"/>
        <pt x="561" y="0" on="1"/>
        <pt x="570" y="19" on="0"/>
        <pt x="589" y="82" on="0"/>
        <pt x="599" y="128" on="1"/>
        <pt x="609" y="174" on="0"/>
        <pt x="628" y="264" on="0"/>
        <pt x="638" y="310" on="1"/>
        <pt x="688" y="542" on="1"/>
        <pt x="666" y="496" on="0"/>
        <pt x="502" y="273" on="0"/>
        <pt x="358" y="94" on="1"/>
        <pt x="338" y="148" on="0"/>
        <pt x="305" y="243" on="0"/>
        <pt x="291" y="286" on="1"/>
        <pt x="257" y="389" on="0"/>
        <pt x="222" y="522" on="0"/>
        <pt x="221" y="553" on="1"/>
        <pt x="169" y="310" on="1"/>
        <pt x="159" y="264" on="0"/>
        <pt x="140" y="174" on="0"/>
        <pt x="130" y="129" on="1"/>
        <pt x="112" y="38" on="0"/>
        <pt x="114" y="0" on="1"/>
        <pt x="30" y="0" on="1"/>
        <pt x="38" y="19" on="0"/>
        <pt x="57" y="82" on="0"/>
        <pt x="67" y="128" on="1"/>
        <pt x="78" y="174" on="0"/>
        <pt x="97" y="266" on="0"/>
        <pt x="107" y="312" on="1"/>
        <pt x="156" y="536" on="0"/>
        <pt x="156" y="591" on="1"/>
        <pt x="156" y="611" on="0"/>
        <pt x="152" y="622" on="1"/>
        <pt x="253" y="622" on="1"/>
        <pt x="382" y="215" on="1"/>
        <pt x="687" y="622" on="1"/>
      </contour>
    </TTGlyph>
    <TTGlyph name="N" xMin="0" yMin="0" xMax="647" yMax="623">
      <contour>
        <pt x="647" y="622" on="1"/>
        <pt x="628" y="583" on="0"/>
        <pt x="609" y="493" on="1"/>
        <pt x="570" y="310" on="1"/>
        <pt x="504" y="0" on="1"/>
        <pt x="443" y="0" on="1"/>
        <pt x="411" y="70" on="0"/>
        <pt x="353" y="193" on="0"/>
        <pt x="328" y="247" on="1"/>
        <pt x="268" y="377" on="0"/>
        <pt x="199" y="535" on="0"/>
        <pt x="189" y="565" on="1"/>
        <pt x="134" y="310" on="1"/>
        <pt x="124" y="264" on="0"/>
        <pt x="105" y="174" on="0"/>
        <pt x="95" y="129" on="1"/>
        <pt x="77" y="38" on="0"/>
        <pt x="79" y="0" on="1"/>
        <pt x="0" y="0" on="1"/>
        <pt x="8" y="19" on="0"/>
        <pt x="27" y="82" on="0"/>
        <pt x="37" y="128" on="1"/>
        <pt x="48" y="174" on="0"/>
        <pt x="67" y="266" on="0"/>
        <pt x="77" y="312" on="1"/>
        <pt x="127" y="548" on="0"/>
        <pt x="127" y="594" on="1"/>
        <pt x="127" y="611" on="0"/>
        <pt x="124" y="622" on="1"/>
        <pt x="223" y="622" on="0"/>
        <pt x="224" y="623" on="1"/>
        <pt x="255" y="561" on="0"/>
        <pt x="310" y="447" on="0"/>
        <pt x="335" y="393" on="1"/>
        <pt x="449" y="150" on="0"/>
        <pt x="461" y="88" on="1"/>
        <pt x="509" y="311" on="1"/>
        <pt x="548" y="494" on="1"/>
        <pt x="568" y="587" on="0"/>
        <pt x="565" y="622" on="1"/>
      </contour>
    </TTGlyph>
    <TTGlyph name="Nacute" xMin="0" yMin="0" xMax="647" yMax="856">
      <contour>
        <pt x="647" y="622" on="1"/>
        <pt x="628" y="583" on="0"/>
        <pt x="609" y="493" on="1"/>
        <pt x="570" y="310" on="1"/>
        <pt x="504" y="0" on="1"/>
        <pt x="443" y="0" on="1"/>
        <pt x="411" y="70" on="0"/>
        <pt x="353" y="193" on="0"/>
        <pt x="328" y="247" on="1"/>
        <pt x="268" y="377" on="0"/>
        <pt x="199" y="535" on="0"/>
        <pt x="189" y="565" on="1"/>
        <pt x="134" y="310" on="1"/>
        <pt x="124" y="264" on="0"/>
        <pt x="105" y="174" on="0"/>
        <pt x="95" y="129" on="1"/>
        <pt x="77" y="38" on="0"/>
        <pt x="79" y="0" on="1"/>
        <pt x="0" y="0" on="1"/>
        <pt x="8" y="19" on="0"/>
        <pt x="27" y="82" on="0"/>
        <pt x="37" y="128" on="1"/>
        <pt x="48" y="174" on="0"/>
        <pt x="67" y="266" on="0"/>
        <pt x="77" y="312" on="1"/>
        <pt x="127" y="548" on="0"/>
        <pt x="127" y="594" on="1"/>
        <pt x="127" y="611" on="0"/>
        <pt x="124" y="622" on="1"/>
        <pt x="223" y="622" on="0"/>
        <pt x="224" y="623" on="1"/>
        <pt x="255" y="561" on="0"/>
        <pt x="310" y="447" on="0"/>
        <pt x="335" y="393" on="1"/>
        <pt x="449" y="150" on="0"/>
        <pt x="461" y="88" on="1"/>
        <pt x="509" y="311" on="1"/>
        <pt x="548" y="494" on="1"/>
        <pt x="568" y="587" on="0"/>
        <pt x="565" y="622" on="1"/>
      </contour>
      <contour>
        <pt x="534" y="833" on="1"/>
        <pt x="437" y="666" on="1"/>
        <pt x="390" y="682" on="1"/>
        <pt x="471" y="856" on="1"/>
      </contour>
    </TTGlyph>
    <TTGlyph name="Ncaron" xMin="0" yMin="0" xMax="647" yMax="819">
      <contour>
        <pt x="647" y="622" on="1"/>
        <pt x="628" y="583" on="0"/>
        <pt x="609" y="493" on="1"/>
        <pt x="570" y="310" on="1"/>
        <pt x="504" y="0" on="1"/>
        <pt x="443" y="0" on="1"/>
        <pt x="411" y="70" on="0"/>
        <pt x="353" y="193" on="0"/>
        <pt x="328" y="247" on="1"/>
        <pt x="268" y="377" on="0"/>
        <pt x="199" y="535" on="0"/>
        <pt x="189" y="565" on="1"/>
        <pt x="134" y="310" on="1"/>
        <pt x="124" y="264" on="0"/>
        <pt x="105" y="174" on="0"/>
        <pt x="95" y="129" on="1"/>
        <pt x="77" y="38" on="0"/>
        <pt x="79" y="0" on="1"/>
        <pt x="0" y="0" on="1"/>
        <pt x="8" y="19" on="0"/>
        <pt x="27" y="82" on="0"/>
        <pt x="37" y="128" on="1"/>
        <pt x="48" y="174" on="0"/>
        <pt x="67" y="266" on="0"/>
        <pt x="77" y="312" on="1"/>
        <pt x="127" y="548" on="0"/>
        <pt x="127" y="594" on="1"/>
        <pt x="127" y="611" on="0"/>
        <pt x="124" y="622" on="1"/>
        <pt x="223" y="622" on="0"/>
        <pt x="224" y="623" on="1"/>
        <pt x="255" y="561" on="0"/>
        <pt x="310" y="447" on="0"/>
        <pt x="335" y="393" on="1"/>
        <pt x="449" y="150" on="0"/>
        <pt x="461" y="88" on="1"/>
        <pt x="509" y="311" on="1"/>
        <pt x="548" y="494" on="1"/>
        <pt x="568" y="587" on="0"/>
        <pt x="565" y="622" on="1"/>
      </contour>
      <contour>
        <pt x="593" y="778" on="1"/>
        <pt x="593" y="776" on="0"/>
        <pt x="410" y="664" on="1"/>
        <pt x="379" y="664" on="1"/>
        <pt x="248" y="778" on="1"/>
        <pt x="282" y="817" on="1"/>
        <pt x="398" y="713" on="1"/>
        <pt x="401" y="713" on="0"/>
        <pt x="558" y="819" on="1"/>
      </contour>
    </TTGlyph>
    <TTGlyph name="Ncommaaccent" xMin="0" yMin="-248" xMax="647" yMax="623">
      <contour>
        <pt x="647" y="622" on="1"/>
        <pt x="628" y="583" on="0"/>
        <pt x="609" y="493" on="1"/>
        <pt x="570" y="310" on="1"/>
        <pt x="504" y="0" on="1"/>
        <pt x="443" y="0" on="1"/>
        <pt x="411" y="70" on="0"/>
        <pt x="353" y="193" on="0"/>
        <pt x="328" y="247" on="1"/>
        <pt x="268" y="377" on="0"/>
        <pt x="199" y="535" on="0"/>
        <pt x="189" y="565" on="1"/>
        <pt x="134" y="310" on="1"/>
        <pt x="124" y="264" on="0"/>
        <pt x="105" y="174" on="0"/>
        <pt x="95" y="129" on="1"/>
        <pt x="77" y="38" on="0"/>
        <pt x="79" y="0" on="1"/>
        <pt x="0" y="0" on="1"/>
        <pt x="8" y="19" on="0"/>
        <pt x="27" y="82" on="0"/>
        <pt x="37" y="128" on="1"/>
        <pt x="48" y="174" on="0"/>
        <pt x="67" y="266" on="0"/>
        <pt x="77" y="312" on="1"/>
        <pt x="127" y="548" on="0"/>
        <pt x="127" y="594" on="1"/>
        <pt x="127" y="611" on="0"/>
        <pt x="124" y="622" on="1"/>
        <pt x="223" y="622" on="0"/>
        <pt x="224" y="623" on="1"/>
        <pt x="255" y="561" on="0"/>
        <pt x="310" y="447" on="0"/>
        <pt x="335" y="393" on="1"/>
        <pt x="449" y="150" on="0"/>
        <pt x="461" y="88" on="1"/>
        <pt x="509" y="311" on="1"/>
        <pt x="548" y="494" on="1"/>
        <pt x="568" y="587" on="0"/>
        <pt x="565" y="622" on="1"/>
      </contour>
      <contour>
        <pt x="286" y="-68" on="1"/>
        <pt x="273" y="-129" on="1"/>
        <pt x="252" y="-228" on="0"/>
        <pt x="169" y="-248" on="1"/>
        <pt x="176" y="-213" on="1"/>
        <pt x="219" y="-206" on="0"/>
        <pt x="234" y="-135" on="1"/>
        <pt x="206" y="-135" on="1"/>
        <pt x="220" y="-68" on="1"/>
      </contour>
    </TTGlyph>
    <TTGlyph name="Ntilde" xMin="0" yMin="0" xMax="647" yMax="791">
      <contour>
        <pt x="647" y="622" on="1"/>
        <pt x="628" y="583" on="0"/>
        <pt x="609" y="493" on="1"/>
        <pt x="570" y="310" on="1"/>
        <pt x="504" y="0" on="1"/>
        <pt x="443" y="0" on="1"/>
        <pt x="411" y="70" on="0"/>
        <pt x="353" y="193" on="0"/>
        <pt x="328" y="247" on="1"/>
        <pt x="268" y="377" on="0"/>
        <pt x="199" y="535" on="0"/>
        <pt x="189" y="565" on="1"/>
        <pt x="134" y="310" on="1"/>
        <pt x="124" y="264" on="0"/>
        <pt x="105" y="174" on="0"/>
        <pt x="95" y="129" on="1"/>
        <pt x="77" y="38" on="0"/>
        <pt x="79" y="0" on="1"/>
        <pt x="0" y="0" on="1"/>
        <pt x="8" y="19" on="0"/>
        <pt x="27" y="82" on="0"/>
        <pt x="37" y="128" on="1"/>
        <pt x="48" y="174" on="0"/>
        <pt x="67" y="266" on="0"/>
        <pt x="77" y="312" on="1"/>
        <pt x="127" y="548" on="0"/>
        <pt x="127" y="594" on="1"/>
        <pt x="127" y="611" on="0"/>
        <pt x="124" y="622" on="1"/>
        <pt x="223" y="622" on="0"/>
        <pt x="224" y="623" on="1"/>
        <pt x="255" y="561" on="0"/>
        <pt x="310" y="447" on="0"/>
        <pt x="335" y="393" on="1"/>
        <pt x="449" y="150" on="0"/>
        <pt x="461" y="88" on="1"/>
        <pt x="509" y="311" on="1"/>
        <pt x="548" y="494" on="1"/>
        <pt x="568" y="587" on="0"/>
        <pt x="565" y="622" on="1"/>
      </contour>
      <contour>
        <pt x="603" y="766" on="1"/>
        <pt x="551" y="666" on="0"/>
        <pt x="481" y="666" on="1"/>
        <pt x="445" y="666" on="0"/>
        <pt x="384" y="708" on="1"/>
        <pt x="334" y="741" on="0"/>
        <pt x="318" y="740" on="1"/>
        <pt x="290" y="739" on="0"/>
        <pt x="258" y="673" on="1"/>
        <pt x="216" y="692" on="1"/>
        <pt x="271" y="788" on="0"/>
        <pt x="324" y="791" on="1"/>
        <pt x="352" y="792" on="0"/>
        <pt x="415" y="751" on="1"/>
        <pt x="467" y="715" on="0"/>
        <pt x="492" y="713" on="1"/>
        <pt x="501" y="713" on="0"/>
        <pt x="523" y="724" on="0"/>
        <pt x="544" y="745" on="0"/>
        <pt x="561" y="773" on="0"/>
        <pt x="566" y="789" on="1"/>
        <pt x="576" y="784" on="0"/>
        <pt x="594" y="772" on="0"/>
      </contour>
    </TTGlyph>
    <TTGlyph name="Nu" xMin="30" yMin="0" xMax="677" yMax="623">
      <contour>
        <pt x="677" y="622" on="1"/>
        <pt x="658" y="583" on="0"/>
        <pt x="639" y="493" on="1"/>
        <pt x="600" y="310" on="1"/>
        <pt x="534" y="0" on="1"/>
        <pt x="473" y="0" on="1"/>
        <pt x="441" y="70" on="0"/>
        <pt x="383" y="193" on="0"/>
        <pt x="358" y="247" on="1"/>
        <pt x="298" y="377" on="0"/>
        <pt x="229" y="535" on="0"/>
        <pt x="219" y="565" on="1"/>
        <pt x="164" y="310" on="1"/>
        <pt x="154" y="264" on="0"/>
        <pt x="135" y="174" on="0"/>
        <pt x="125" y="129" on="1"/>
        <pt x="107" y="38" on="0"/>
        <pt x="109" y="0" on="1"/>
        <pt x="30" y="0" on="1"/>
        <pt x="38" y="19" on="0"/>
        <pt x="57" y="82" on="0"/>
        <pt x="67" y="128" on="1"/>
        <pt x="78" y="174" on="0"/>
        <pt x="97" y="266" on="0"/>
        <pt x="107" y="312" on="1"/>
        <pt x="157" y="550" on="0"/>
        <pt x="157" y="594" on="1"/>
        <pt x="157" y="611" on="0"/>
        <pt x="154" y="622" on="1"/>
        <pt x="253" y="622" on="0"/>
        <pt x="254" y="623" on="1"/>
        <pt x="285" y="561" on="0"/>
        <pt x="340" y="447" on="0"/>
        <pt x="365" y="393" on="1"/>
        <pt x="479" y="150" on="0"/>
        <pt x="491" y="88" on="1"/>
        <pt x="539" y="311" on="1"/>
        <pt x="578" y="494" on="1"/>
        <pt x="598" y="587" on="0"/>
        <pt x="595" y="622" on="1"/>
      </contour>
    </TTGlyph>
    <TTGlyph name="O" xMin="33" yMin="-12" xMax="641" yMax="632">
      <contour>
        <pt x="630" y="301" on="1"/>
        <pt x="603" y="172" on="0"/>
        <pt x="502" y="80" on="1"/>
        <pt x="398" y="-13" on="0"/>
        <pt x="269" y="-12" on="1"/>
        <pt x="157" y="-10" on="0"/>
        <pt x="93" y="60" on="1"/>
        <pt x="33" y="126" on="0"/>
        <pt x="33" y="231" on="1"/>
        <pt x="33" y="250" on="0"/>
        <pt x="37" y="288" on="0"/>
        <pt x="41" y="308" on="1"/>
        <pt x="71" y="447" on="0"/>
        <pt x="162" y="535" on="1"/>
        <pt x="262" y="630" on="0"/>
        <pt x="406" y="632" on="1"/>
        <pt x="523" y="633" on="0"/>
        <pt x="585" y="564" on="1"/>
        <pt x="641" y="502" on="0"/>
        <pt x="641" y="396" on="1"/>
        <pt x="641" y="373" on="0"/>
        <pt x="635" y="326" on="0"/>
      </contour>
      <contour>
        <pt x="555" y="302" on="1"/>
        <pt x="565" y="348" on="0"/>
        <pt x="565" y="392" on="1"/>
        <pt x="565" y="568" on="0"/>
        <pt x="396" y="568" on="1"/>
        <pt x="278" y="568" on="0"/>
        <pt x="190" y="456" on="1"/>
        <pt x="107" y="352" on="0"/>
        <pt x="107" y="230" on="1"/>
        <pt x="107" y="149" on="0"/>
        <pt x="198" y="53" on="0"/>
        <pt x="283" y="53" on="1"/>
        <pt x="382" y="53" on="0"/>
        <pt x="459" y="129" on="1"/>
        <pt x="532" y="199" on="0"/>
      </contour>
    </TTGlyph>
    <TTGlyph name="OE" xMin="34" yMin="-11" xMax="903" yMax="635">
      <contour>
        <pt x="903" y="623" on="1"/>
        <pt x="891" y="588" on="0"/>
        <pt x="882" y="527" on="1"/>
        <pt x="832" y="527" on="1"/>
        <pt x="835" y="543" on="0"/>
        <pt x="830" y="551" on="1"/>
        <pt x="825" y="559" on="0"/>
        <pt x="767" y="559" on="1"/>
        <pt x="582" y="559" on="1"/>
        <pt x="577" y="540" on="0"/>
        <pt x="556" y="443" on="0"/>
        <pt x="539" y="365" on="1"/>
        <pt x="756" y="365" on="0"/>
        <pt x="792" y="379" on="1"/>
        <pt x="774" y="293" on="1"/>
        <pt x="730" y="310" on="0"/>
        <pt x="526" y="305" on="1"/>
        <pt x="474" y="64" on="1"/>
        <pt x="685" y="64" on="1"/>
        <pt x="739" y="64" on="0"/>
        <pt x="750" y="76" on="1"/>
        <pt x="758" y="84" on="0"/>
        <pt x="766" y="107" on="1"/>
        <pt x="815" y="107" on="1"/>
        <pt x="810" y="92" on="0"/>
        <pt x="799" y="38" on="0"/>
        <pt x="792" y="-1" on="1"/>
        <pt x="732" y="1" on="0"/>
        <pt x="633" y="3" on="0"/>
        <pt x="592" y="3" on="1"/>
        <pt x="546" y="3" on="0"/>
        <pt x="441" y="0" on="0"/>
        <pt x="381" y="-4" on="1"/>
        <pt x="361" y="-8" on="0"/>
        <pt x="306" y="-11" on="0"/>
        <pt x="272" y="-11" on="1"/>
        <pt x="156" y="-11" on="0"/>
        <pt x="93" y="61" on="1"/>
        <pt x="34" y="129" on="0"/>
        <pt x="34" y="240" on="1"/>
        <pt x="34" y="274" on="0"/>
        <pt x="40" y="310" on="1"/>
        <pt x="62" y="451" on="0"/>
        <pt x="161" y="541" on="1"/>
        <pt x="264" y="635" on="0"/>
        <pt x="411" y="635" on="1"/>
        <pt x="479" y="635" on="0"/>
        <pt x="518" y="621" on="1"/>
        <pt x="528" y="621" on="0"/>
        <pt x="695" y="618" on="1"/>
        <pt x="734" y="617" on="0"/>
        <pt x="837" y="620" on="0"/>
      </contour>
      <contour>
        <pt x="506" y="542" on="1"/>
        <pt x="462" y="573" on="0"/>
        <pt x="397" y="571" on="1"/>
        <pt x="291" y="570" on="0"/>
        <pt x="210" y="490" on="1"/>
        <pt x="134" y="414" on="0"/>
        <pt x="116" y="307" on="1"/>
        <pt x="110" y="274" on="0"/>
        <pt x="110" y="245" on="1"/>
        <pt x="110" y="162" on="0"/>
        <pt x="152" y="113" on="1"/>
        <pt x="197" y="60" on="0"/>
        <pt x="287" y="56" on="1"/>
        <pt x="360" y="53" on="0"/>
        <pt x="405" y="77" on="1"/>
        <pt x="409" y="93" on="0"/>
        <pt x="437" y="218" on="0"/>
        <pt x="460" y="329" on="1"/>
        <pt x="469" y="367" on="0"/>
        <pt x="492" y="473" on="0"/>
      </contour>
    </TTGlyph>
    <TTGlyph name="Oacute" xMin="33" yMin="-12" xMax="641" yMax="856">
      <contour>
        <pt x="630" y="301" on="1"/>
        <pt x="603" y="172" on="0"/>
        <pt x="502" y="80" on="1"/>
        <pt x="398" y="-13" on="0"/>
        <pt x="269" y="-12" on="1"/>
        <pt x="157" y="-10" on="0"/>
        <pt x="93" y="60" on="1"/>
        <pt x="33" y="126" on="0"/>
        <pt x="33" y="231" on="1"/>
        <pt x="33" y="250" on="0"/>
        <pt x="37" y="288" on="0"/>
        <pt x="41" y="308" on="1"/>
        <pt x="71" y="447" on="0"/>
        <pt x="162" y="535" on="1"/>
        <pt x="262" y="630" on="0"/>
        <pt x="406" y="632" on="1"/>
        <pt x="523" y="633" on="0"/>
        <pt x="585" y="564" on="1"/>
        <pt x="641" y="502" on="0"/>
        <pt x="641" y="396" on="1"/>
        <pt x="641" y="373" on="0"/>
        <pt x="635" y="326" on="0"/>
      </contour>
      <contour>
        <pt x="555" y="302" on="1"/>
        <pt x="565" y="348" on="0"/>
        <pt x="565" y="392" on="1"/>
        <pt x="565" y="568" on="0"/>
        <pt x="396" y="568" on="1"/>
        <pt x="278" y="568" on="0"/>
        <pt x="190" y="456" on="1"/>
        <pt x="107" y="352" on="0"/>
        <pt x="107" y="230" on="1"/>
        <pt x="107" y="149" on="0"/>
        <pt x="198" y="53" on="0"/>
        <pt x="283" y="53" on="1"/>
        <pt x="382" y="53" on="0"/>
        <pt x="459" y="129" on="1"/>
        <pt x="532" y="199" on="0"/>
      </contour>
      <contour>
        <pt x="552" y="833" on="1"/>
        <pt x="455" y="666" on="1"/>
        <pt x="408" y="682" on="1"/>
        <pt x="489" y="856" on="1"/>
      </contour>
    </TTGlyph>
    <TTGlyph name="Obreve" xMin="33" yMin="-12" xMax="641" yMax="787">
      <contour>
        <pt x="630" y="301" on="1"/>
        <pt x="603" y="172" on="0"/>
        <pt x="502" y="80" on="1"/>
        <pt x="398" y="-13" on="0"/>
        <pt x="269" y="-12" on="1"/>
        <pt x="157" y="-10" on="0"/>
        <pt x="93" y="60" on="1"/>
        <pt x="33" y="126" on="0"/>
        <pt x="33" y="231" on="1"/>
        <pt x="33" y="250" on="0"/>
        <pt x="37" y="288" on="0"/>
        <pt x="41" y="308" on="1"/>
        <pt x="71" y="447" on="0"/>
        <pt x="162" y="535" on="1"/>
        <pt x="262" y="630" on="0"/>
        <pt x="406" y="632" on="1"/>
        <pt x="523" y="633" on="0"/>
        <pt x="585" y="564" on="1"/>
        <pt x="641" y="502" on="0"/>
        <pt x="641" y="396" on="1"/>
        <pt x="641" y="373" on="0"/>
        <pt x="635" y="326" on="0"/>
      </contour>
      <contour>
        <pt x="555" y="302" on="1"/>
        <pt x="565" y="348" on="0"/>
        <pt x="565" y="392" on="1"/>
        <pt x="565" y="568" on="0"/>
        <pt x="396" y="568" on="1"/>
        <pt x="278" y="568" on="0"/>
        <pt x="190" y="456" on="1"/>
        <pt x="107" y="352" on="0"/>
        <pt x="107" y="230" on="1"/>
        <pt x="107" y="149" on="0"/>
        <pt x="198" y="53" on="0"/>
        <pt x="283" y="53" on="1"/>
        <pt x="382" y="53" on="0"/>
        <pt x="459" y="129" on="1"/>
        <pt x="532" y="199" on="0"/>
      </contour>
      <contour>
        <pt x="591" y="768" on="1"/>
        <pt x="571" y="742" on="0"/>
        <pt x="534" y="703" on="0"/>
        <pt x="493" y="678" on="0"/>
        <pt x="444" y="665" on="0"/>
        <pt x="413" y="665" on="1"/>
        <pt x="330" y="665" on="0"/>
        <pt x="275" y="768" on="1"/>
        <pt x="312" y="787" on="1"/>
        <pt x="358" y="700" on="0"/>
        <pt x="420" y="701" on="1"/>
        <pt x="465" y="703" on="0"/>
        <pt x="525" y="749" on="0"/>
        <pt x="558" y="787" on="1"/>
      </contour>
    </TTGlyph>
    <TTGlyph name="Ocircumflex" xMin="33" yMin="-12" xMax="641" yMax="832">
      <contour>
        <pt x="630" y="301" on="1"/>
        <pt x="603" y="172" on="0"/>
        <pt x="502" y="80" on="1"/>
        <pt x="398" y="-13" on="0"/>
        <pt x="269" y="-12" on="1"/>
        <pt x="157" y="-10" on="0"/>
        <pt x="93" y="60" on="1"/>
        <pt x="33" y="126" on="0"/>
        <pt x="33" y="231" on="1"/>
        <pt x="33" y="250" on="0"/>
        <pt x="37" y="288" on="0"/>
        <pt x="41" y="308" on="1"/>
        <pt x="71" y="447" on="0"/>
        <pt x="162" y="535" on="1"/>
        <pt x="262" y="630" on="0"/>
        <pt x="406" y="632" on="1"/>
        <pt x="523" y="633" on="0"/>
        <pt x="585" y="564" on="1"/>
        <pt x="641" y="502" on="0"/>
        <pt x="641" y="396" on="1"/>
        <pt x="641" y="373" on="0"/>
        <pt x="635" y="326" on="0"/>
      </contour>
      <contour>
        <pt x="555" y="302" on="1"/>
        <pt x="565" y="348" on="0"/>
        <pt x="565" y="392" on="1"/>
        <pt x="565" y="568" on="0"/>
        <pt x="396" y="568" on="1"/>
        <pt x="278" y="568" on="0"/>
        <pt x="190" y="456" on="1"/>
        <pt x="107" y="352" on="0"/>
        <pt x="107" y="230" on="1"/>
        <pt x="107" y="149" on="0"/>
        <pt x="198" y="53" on="0"/>
        <pt x="283" y="53" on="1"/>
        <pt x="382" y="53" on="0"/>
        <pt x="459" y="129" on="1"/>
        <pt x="532" y="199" on="0"/>
      </contour>
      <contour>
        <pt x="610" y="708" on="1"/>
        <pt x="570" y="674" on="1"/>
        <pt x="449" y="774" on="1"/>
        <pt x="446" y="774" on="0"/>
        <pt x="283" y="669" on="1"/>
        <pt x="254" y="708" on="1"/>
        <pt x="458" y="832" on="1"/>
        <pt x="457" y="831" on="0"/>
        <pt x="534" y="769" on="1"/>
        <pt x="610" y="708" on="0"/>
      </contour>
    </TTGlyph>
    <TTGlyph name="Odieresis" xMin="33" yMin="-12" xMax="641" yMax="769">
      <contour>
        <pt x="630" y="301" on="1"/>
        <pt x="603" y="172" on="0"/>
        <pt x="502" y="80" on="1"/>
        <pt x="398" y="-13" on="0"/>
        <pt x="269" y="-12" on="1"/>
        <pt x="157" y="-10" on="0"/>
        <pt x="93" y="60" on="1"/>
        <pt x="33" y="126" on="0"/>
        <pt x="33" y="231" on="1"/>
        <pt x="33" y="250" on="0"/>
        <pt x="37" y="288" on="0"/>
        <pt x="41" y="308" on="1"/>
        <pt x="71" y="447" on="0"/>
        <pt x="162" y="535" on="1"/>
        <pt x="262" y="630" on="0"/>
        <pt x="406" y="632" on="1"/>
        <pt x="523" y="633" on="0"/>
        <pt x="585" y="564" on="1"/>
        <pt x="641" y="502" on="0"/>
        <pt x="641" y="396" on="1"/>
        <pt x="641" y="373" on="0"/>
        <pt x="635" y="326" on="0"/>
      </contour>
      <contour>
        <pt x="555" y="302" on="1"/>
        <pt x="565" y="348" on="0"/>
        <pt x="565" y="392" on="1"/>
        <pt x="565" y="568" on="0"/>
        <pt x="396" y="568" on="1"/>
        <pt x="278" y="568" on="0"/>
        <pt x="190" y="456" on="1"/>
        <pt x="107" y="352" on="0"/>
        <pt x="107" y="230" on="1"/>
        <pt x="107" y="149" on="0"/>
        <pt x="198" y="53" on="0"/>
        <pt x="283" y="53" on="1"/>
        <pt x="382" y="53" on="0"/>
        <pt x="459" y="129" on="1"/>
        <pt x="532" y="199" on="0"/>
      </contour>
      <contour>
        <pt x="573" y="719" on="1"/>
        <pt x="568" y="702" on="0"/>
        <pt x="536" y="672" on="0"/>
        <pt x="517" y="672" on="1"/>
        <pt x="496" y="672" on="0"/>
        <pt x="474" y="699" on="0"/>
        <pt x="478" y="719" on="1"/>
        <pt x="482" y="739" on="0"/>
        <pt x="517" y="768" on="0"/>
        <pt x="537" y="768" on="1"/>
        <pt x="554" y="768" on="0"/>
        <pt x="576" y="739" on="0"/>
      </contour>
      <contour>
        <pt x="374" y="722" on="1"/>
        <pt x="371" y="704" on="0"/>
        <pt x="337" y="674" on="0"/>
        <pt x="317" y="674" on="1"/>
        <pt x="297" y="674" on="0"/>
        <pt x="275" y="702" on="0"/>
        <pt x="279" y="722" on="1"/>
        <pt x="283" y="739" on="0"/>
        <pt x="317" y="769" on="0"/>
        <pt x="337" y="769" on="1"/>
        <pt x="357" y="769" on="0"/>
        <pt x="379" y="739" on="0"/>
      </contour>
    </TTGlyph>
    <TTGlyph name="Ogonek" xMin="59" yMin="-193" xMax="274" yMax="0">
      <contour>
        <pt x="274" y="-129" on="1"/>
        <pt x="204" y="-193" on="0"/>
        <pt x="140" y="-193" on="1"/>
        <pt x="105" y="-193" on="0"/>
        <pt x="59" y="-147" on="0"/>
        <pt x="59" y="-113" on="1"/>
        <pt x="59" y="-56" on="0"/>
        <pt x="143" y="0" on="1"/>
        <pt x="179" y="0" on="1"/>
        <pt x="118" y="-58" on="0"/>
        <pt x="118" y="-96" on="1"/>
        <pt x="118" y="-144" on="0"/>
        <pt x="169" y="-144" on="1"/>
        <pt x="211" y="-144" on="0"/>
        <pt x="256" y="-108" on="1"/>
        <pt x="264" y="-108" on="1"/>
        <pt x="274" y="-123" on="1"/>
      </contour>
    </TTGlyph>
    <TTGlyph name="Ogoneksmall" xMin="38" yMin="-189" xMax="248" yMax="0">
      <contour>
        <pt x="242" y="-126" on="1"/>
        <pt x="229" y="-139" on="0"/>
        <pt x="195" y="-160" on="0"/>
        <pt x="175" y="-170" on="1"/>
        <pt x="136" y="-189" on="0"/>
        <pt x="100" y="-189" on="1"/>
        <pt x="63" y="-189" on="0"/>
        <pt x="47" y="-165" on="1"/>
        <pt x="38" y="-152" on="0"/>
        <pt x="38" y="-134" on="1"/>
        <pt x="38" y="-100" on="0"/>
        <pt x="74" y="-59" on="1"/>
        <pt x="89" y="-42" on="0"/>
        <pt x="125" y="-13" on="0"/>
        <pt x="146" y="0" on="1"/>
        <pt x="178" y="0" on="1"/>
        <pt x="98" y="-62" on="0"/>
        <pt x="98" y="-106" on="1"/>
        <pt x="98" y="-138" on="0"/>
        <pt x="137" y="-138" on="1"/>
        <pt x="172" y="-138" on="0"/>
        <pt x="231" y="-106" on="1"/>
        <pt x="237" y="-104" on="0"/>
        <pt x="239" y="-104" on="1"/>
        <pt x="248" y="-104" on="0"/>
        <pt x="248" y="-113" on="1"/>
        <pt x="248" y="-120" on="0"/>
      </contour>
    </TTGlyph>
    <TTGlyph name="Ograve" xMin="33" yMin="-12" xMax="641" yMax="856">
      <contour>
        <pt x="630" y="301" on="1"/>
        <pt x="603" y="172" on="0"/>
        <pt x="502" y="80" on="1"/>
        <pt x="398" y="-13" on="0"/>
        <pt x="269" y="-12" on="1"/>
        <pt x="157" y="-10" on="0"/>
        <pt x="93" y="60" on="1"/>
        <pt x="33" y="126" on="0"/>
        <pt x="33" y="231" on="1"/>
        <pt x="33" y="250" on="0"/>
        <pt x="37" y="288" on="0"/>
        <pt x="41" y="308" on="1"/>
        <pt x="71" y="447" on="0"/>
        <pt x="162" y="535" on="1"/>
        <pt x="262" y="630" on="0"/>
        <pt x="406" y="632" on="1"/>
        <pt x="523" y="633" on="0"/>
        <pt x="585" y="564" on="1"/>
        <pt x="641" y="502" on="0"/>
        <pt x="641" y="396" on="1"/>
        <pt x="641" y="373" on="0"/>
        <pt x="635" y="326" on="0"/>
      </contour>
      <contour>
        <pt x="555" y="302" on="1"/>
        <pt x="565" y="348" on="0"/>
        <pt x="565" y="392" on="1"/>
        <pt x="565" y="568" on="0"/>
        <pt x="396" y="568" on="1"/>
        <pt x="278" y="568" on="0"/>
        <pt x="190" y="456" on="1"/>
        <pt x="107" y="352" on="0"/>
        <pt x="107" y="230" on="1"/>
        <pt x="107" y="149" on="0"/>
        <pt x="198" y="53" on="0"/>
        <pt x="283" y="53" on="1"/>
        <pt x="382" y="53" on="0"/>
        <pt x="459" y="129" on="1"/>
        <pt x="532" y="199" on="0"/>
      </contour>
      <contour>
        <pt x="456" y="682" on="1"/>
        <pt x="409" y="666" on="1"/>
        <pt x="312" y="833" on="1"/>
        <pt x="375" y="856" on="1"/>
      </contour>
    </TTGlyph>
    <TTGlyph name="Ohorn" xMin="31" yMin="-11" xMax="730" yMax="743">
      <contour>
        <pt x="725" y="702" on="1"/>
        <pt x="730" y="687" on="0"/>
        <pt x="730" y="674" on="1"/>
        <pt x="730" y="630" on="0"/>
        <pt x="689" y="598" on="1"/>
        <pt x="659" y="574" on="0"/>
        <pt x="603" y="570" on="1"/>
        <pt x="655" y="508" on="0"/>
        <pt x="655" y="404" on="1"/>
        <pt x="655" y="358" on="0"/>
        <pt x="644" y="305" on="1"/>
        <pt x="612" y="162" on="0"/>
        <pt x="509" y="75" on="1"/>
        <pt x="406" y="-11" on="0"/>
        <pt x="272" y="-11" on="1"/>
        <pt x="157" y="-11" on="0"/>
        <pt x="93" y="58" on="1"/>
        <pt x="31" y="125" on="0"/>
        <pt x="31" y="232" on="1"/>
        <pt x="31" y="269" on="0"/>
        <pt x="40" y="310" on="1"/>
        <pt x="68" y="453" on="0"/>
        <pt x="165" y="547" on="1"/>
        <pt x="269" y="648" on="0"/>
        <pt x="413" y="648" on="1"/>
        <pt x="514" y="648" on="0"/>
        <pt x="576" y="598" on="1"/>
        <pt x="611" y="598" on="0"/>
        <pt x="637" y="610" on="1"/>
        <pt x="668" y="625" on="0"/>
        <pt x="668" y="656" on="1"/>
        <pt x="668" y="672" on="0"/>
        <pt x="658" y="679" on="1"/>
        <pt x="640" y="692" on="0"/>
        <pt x="597" y="691" on="1"/>
        <pt x="619" y="742" on="1"/>
        <pt x="623" y="743" on="0"/>
        <pt x="633" y="743" on="0"/>
        <pt x="638" y="743" on="1"/>
        <pt x="708" y="743" on="0"/>
      </contour>
      <contour>
        <pt x="567" y="308" on="1"/>
        <pt x="577" y="351" on="0"/>
        <pt x="577" y="394" on="1"/>
        <pt x="577" y="479" on="0"/>
        <pt x="534" y="528" on="1"/>
        <pt x="487" y="581" on="0"/>
        <pt x="398" y="581" on="1"/>
        <pt x="276" y="581" on="0"/>
        <pt x="191" y="473" on="1"/>
        <pt x="110" y="372" on="0"/>
        <pt x="110" y="249" on="1"/>
        <pt x="110" y="165" on="0"/>
        <pt x="154" y="112" on="1"/>
        <pt x="201" y="56" on="0"/>
        <pt x="287" y="56" on="1"/>
        <pt x="386" y="56" on="0"/>
        <pt x="468" y="133" on="1"/>
        <pt x="543" y="205" on="0"/>
      </contour>
    </TTGlyph>
    <TTGlyph name="Ohungarumlaut" xMin="33" yMin="-12" xMax="641" yMax="856">
      <contour>
        <pt x="630" y="301" on="1"/>
        <pt x="603" y="172" on="0"/>
        <pt x="502" y="80" on="1"/>
        <pt x="398" y="-13" on="0"/>
        <pt x="269" y="-12" on="1"/>
        <pt x="157" y="-10" on="0"/>
        <pt x="93" y="60" on="1"/>
        <pt x="33" y="126" on="0"/>
        <pt x="33" y="231" on="1"/>
        <pt x="33" y="250" on="0"/>
        <pt x="37" y="288" on="0"/>
        <pt x="41" y="308" on="1"/>
        <pt x="71" y="447" on="0"/>
        <pt x="162" y="535" on="1"/>
        <pt x="262" y="630" on="0"/>
        <pt x="406" y="632" on="1"/>
        <pt x="523" y="633" on="0"/>
        <pt x="585" y="564" on="1"/>
        <pt x="641" y="502" on="0"/>
        <pt x="641" y="396" on="1"/>
        <pt x="641" y="373" on="0"/>
        <pt x="635" y="326" on="0"/>
      </contour>
      <contour>
        <pt x="555" y="302" on="1"/>
        <pt x="565" y="348" on="0"/>
        <pt x="565" y="392" on="1"/>
        <pt x="565" y="568" on="0"/>
        <pt x="396" y="568" on="1"/>
        <pt x="278" y="568" on="0"/>
        <pt x="190" y="456" on="1"/>
        <pt x="107" y="352" on="0"/>
        <pt x="107" y="230" on="1"/>
        <pt x="107" y="149" on="0"/>
        <pt x="198" y="53" on="0"/>
        <pt x="283" y="53" on="1"/>
        <pt x="382" y="53" on="0"/>
        <pt x="459" y="129" on="1"/>
        <pt x="532" y="199" on="0"/>
      </contour>
      <contour>
        <pt x="551" y="833" on="1"/>
        <pt x="489" y="666" on="1"/>
        <pt x="439" y="682" on="1"/>
        <pt x="483" y="856" on="1"/>
      </contour>
      <contour>
        <pt x="443" y="833" on="1"/>
        <pt x="381" y="666" on="1"/>
        <pt x="331" y="682" on="1"/>
        <pt x="375" y="856" on="1"/>
      </contour>
    </TTGlyph>
    <TTGlyph name="Omacron" xMin="33" yMin="-12" xMax="641" yMax="714">
      <contour>
        <pt x="630" y="301" on="1"/>
        <pt x="603" y="172" on="0"/>
        <pt x="502" y="80" on="1"/>
        <pt x="398" y="-13" on="0"/>
        <pt x="269" y="-12" on="1"/>
        <pt x="157" y="-10" on="0"/>
        <pt x="93" y="60" on="1"/>
        <pt x="33" y="126" on="0"/>
        <pt x="33" y="231" on="1"/>
        <pt x="33" y="250" on="0"/>
        <pt x="37" y="288" on="0"/>
        <pt x="41" y="308" on="1"/>
        <pt x="71" y="447" on="0"/>
        <pt x="162" y="535" on="1"/>
        <pt x="262" y="630" on="0"/>
        <pt x="406" y="632" on="1"/>
        <pt x="523" y="633" on="0"/>
        <pt x="585" y="564" on="1"/>
        <pt x="641" y="502" on="0"/>
        <pt x="641" y="396" on="1"/>
        <pt x="641" y="373" on="0"/>
        <pt x="635" y="326" on="0"/>
      </contour>
      <contour>
        <pt x="555" y="302" on="1"/>
        <pt x="565" y="348" on="0"/>
        <pt x="565" y="392" on="1"/>
        <pt x="565" y="568" on="0"/>
        <pt x="396" y="568" on="1"/>
        <pt x="278" y="568" on="0"/>
        <pt x="190" y="456" on="1"/>
        <pt x="107" y="352" on="0"/>
        <pt x="107" y="230" on="1"/>
        <pt x="107" y="149" on="0"/>
        <pt x="198" y="53" on="0"/>
        <pt x="283" y="53" on="1"/>
        <pt x="382" y="53" on="0"/>
        <pt x="459" y="129" on="1"/>
        <pt x="532" y="199" on="0"/>
      </contour>
      <contour>
        <pt x="583" y="714" on="1"/>
        <pt x="573" y="666" on="1"/>
        <pt x="265" y="666" on="1"/>
        <pt x="276" y="714" on="1"/>
      </contour>
    </TTGlyph>
    <TTGlyph name="Omega" xMin="9" yMin="0" xMax="680" yMax="643">
      <contour>
        <pt x="674" y="374" on="1"/>
        <pt x="662" y="314" on="0"/>
        <pt x="610" y="241" on="1"/>
        <pt x="568" y="181" on="0"/>
        <pt x="516" y="134" on="1"/>
        <pt x="451" y="75" on="0"/>
        <pt x="447" y="62" on="1"/>
        <pt x="513" y="62" on="1"/>
        <pt x="558" y="62" on="0"/>
        <pt x="570" y="74" on="1"/>
        <pt x="578" y="84" on="0"/>
        <pt x="584" y="104" on="1"/>
        <pt x="634" y="104" on="1"/>
        <pt x="611" y="38" on="0"/>
        <pt x="609" y="0" on="1"/>
        <pt x="350" y="0" on="1"/>
        <pt x="359" y="43" on="0"/>
        <pt x="359" y="46" on="1"/>
        <pt x="388" y="97" on="0"/>
        <pt x="465" y="171" on="1"/>
        <pt x="579" y="280" on="0"/>
        <pt x="598" y="380" on="1"/>
        <pt x="602" y="403" on="0"/>
        <pt x="602" y="427" on="1"/>
        <pt x="602" y="497" on="0"/>
        <pt x="514" y="576" on="0"/>
        <pt x="432" y="576" on="1"/>
        <pt x="336" y="576" on="0"/>
        <pt x="204" y="471" on="0"/>
        <pt x="182" y="380" on="1"/>
        <pt x="177" y="357" on="0"/>
        <pt x="177" y="335" on="1"/>
        <pt x="177" y="250" on="0"/>
        <pt x="226" y="171" on="1"/>
        <pt x="277" y="89" on="0"/>
        <pt x="278" y="46" on="1"/>
        <pt x="279" y="45" on="0"/>
        <pt x="270" y="0" on="1"/>
        <pt x="9" y="0" on="1"/>
        <pt x="23" y="42" on="0"/>
        <pt x="28" y="104" on="1"/>
        <pt x="78" y="104" on="1"/>
        <pt x="76" y="92" on="0"/>
        <pt x="77" y="75" on="0"/>
        <pt x="88" y="66" on="0"/>
        <pt x="110" y="62" on="0"/>
        <pt x="131" y="62" on="1"/>
        <pt x="203" y="62" on="1"/>
        <pt x="206" y="83" on="0"/>
        <pt x="168" y="138" on="1"/>
        <pt x="155" y="155" on="0"/>
        <pt x="134" y="200" on="0"/>
        <pt x="124" y="227" on="1"/>
        <pt x="102" y="289" on="0"/>
        <pt x="102" y="342" on="1"/>
        <pt x="102" y="473" on="0"/>
        <pt x="211" y="561" on="1"/>
        <pt x="314" y="643" on="0"/>
        <pt x="447" y="643" on="1"/>
        <pt x="561" y="643" on="0"/>
        <pt x="623" y="582" on="1"/>
        <pt x="680" y="526" on="0"/>
        <pt x="680" y="434" on="1"/>
        <pt x="680" y="405" on="0"/>
      </contour>
    </TTGlyph>
    <TTGlyph name="Omega.alt" xMin="50" yMin="-11" xMax="770" yMax="635">
      <contour>
        <pt x="757" y="244" on="1"/>
        <pt x="728" y="112" on="0"/>
        <pt x="650" y="43" on="1"/>
        <pt x="588" y="-13" on="0"/>
        <pt x="527" y="-11" on="1"/>
        <pt x="390" y="-9" on="0"/>
        <pt x="391" y="131" on="1"/>
        <pt x="319" y="-11" on="0"/>
        <pt x="174" y="-11" on="1"/>
        <pt x="136" y="-11" on="0"/>
        <pt x="101" y="18" on="1"/>
        <pt x="50" y="60" on="0"/>
        <pt x="50" y="145" on="1"/>
        <pt x="50" y="184" on="0"/>
        <pt x="62" y="231" on="1"/>
        <pt x="115" y="451" on="0"/>
        <pt x="308" y="635" on="1"/>
        <pt x="353" y="577" on="1"/>
        <pt x="310" y="547" on="0"/>
        <pt x="265" y="491" on="1"/>
        <pt x="162" y="361" on="0"/>
        <pt x="134" y="224" on="1"/>
        <pt x="130" y="204" on="0"/>
        <pt x="126" y="170" on="0"/>
        <pt x="126" y="154" on="1"/>
        <pt x="126" y="59" on="0"/>
        <pt x="193" y="53" on="1"/>
        <pt x="234" y="49" on="0"/>
        <pt x="276" y="78" on="1"/>
        <pt x="329" y="116" on="0"/>
        <pt x="359" y="197" on="1"/>
        <pt x="398" y="302" on="0"/>
        <pt x="396" y="382" on="1"/>
        <pt x="482" y="382" on="1"/>
        <pt x="477" y="369" on="0"/>
        <pt x="467" y="342" on="0"/>
        <pt x="463" y="328" on="1"/>
        <pt x="443" y="260" on="0"/>
        <pt x="439" y="194" on="1"/>
        <pt x="435" y="112" on="0"/>
        <pt x="461" y="78" on="1"/>
        <pt x="484" y="52" on="0"/>
        <pt x="531" y="52" on="1"/>
        <pt x="573" y="52" on="0"/>
        <pt x="616" y="95" on="1"/>
        <pt x="668" y="147" on="0"/>
        <pt x="687" y="230" on="1"/>
        <pt x="703" y="294" on="0"/>
        <pt x="703" y="357" on="1"/>
        <pt x="703" y="429" on="0"/>
        <pt x="684" y="482" on="1"/>
        <pt x="679" y="496" on="0"/>
        <pt x="665" y="525" on="0"/>
        <pt x="655" y="541" on="1"/>
        <pt x="634" y="574" on="0"/>
        <pt x="623" y="582" on="1"/>
        <pt x="684" y="635" on="1"/>
        <pt x="770" y="531" on="0"/>
        <pt x="770" y="368" on="1"/>
        <pt x="770" y="305" on="0"/>
      </contour>
    </TTGlyph>
    <TTGlyph name="Omicron" xMin="50" yMin="-12" xMax="658" yMax="632">
      <contour>
        <pt x="647" y="301" on="1"/>
        <pt x="619" y="171" on="0"/>
        <pt x="519" y="80" on="1"/>
        <pt x="415" y="-13" on="0"/>
        <pt x="286" y="-12" on="1"/>
        <pt x="175" y="-11" on="0"/>
        <pt x="110" y="60" on="1"/>
        <pt x="50" y="126" on="0"/>
        <pt x="50" y="231" on="1"/>
        <pt x="50" y="250" on="0"/>
        <pt x="54" y="288" on="0"/>
        <pt x="58" y="308" on="1"/>
        <pt x="88" y="447" on="0"/>
        <pt x="179" y="535" on="1"/>
        <pt x="279" y="630" on="0"/>
        <pt x="423" y="632" on="1"/>
        <pt x="540" y="633" on="0"/>
        <pt x="602" y="564" on="1"/>
        <pt x="658" y="502" on="0"/>
        <pt x="658" y="396" on="1"/>
        <pt x="658" y="373" on="0"/>
        <pt x="652" y="326" on="0"/>
      </contour>
      <contour>
        <pt x="572" y="302" on="1"/>
        <pt x="582" y="348" on="0"/>
        <pt x="582" y="392" on="1"/>
        <pt x="582" y="568" on="0"/>
        <pt x="413" y="568" on="1"/>
        <pt x="294" y="568" on="0"/>
        <pt x="206" y="456" on="1"/>
        <pt x="123" y="352" on="0"/>
        <pt x="123" y="230" on="1"/>
        <pt x="123" y="149" on="0"/>
        <pt x="215" y="53" on="0"/>
        <pt x="300" y="53" on="1"/>
        <pt x="399" y="53" on="0"/>
        <pt x="476" y="129" on="1"/>
        <pt x="549" y="199" on="0"/>
      </contour>
    </TTGlyph>
    <TTGlyph name="Oslash" xMin="31" yMin="-99" xMax="655" yMax="764">
      <contour>
        <pt x="644" y="305" on="1"/>
        <pt x="613" y="164" on="0"/>
        <pt x="509" y="75" on="1"/>
        <pt x="402" y="-16" on="0"/>
        <pt x="259" y="-11" on="1"/>
        <pt x="230" y="-99" on="1"/>
        <pt x="176" y="-99" on="1"/>
        <pt x="207" y="-4" on="1"/>
        <pt x="123" y="14" on="0"/>
        <pt x="76" y="79" on="1"/>
        <pt x="31" y="140" on="0"/>
        <pt x="31" y="232" on="1"/>
        <pt x="31" y="269" on="0"/>
        <pt x="40" y="310" on="1"/>
        <pt x="68" y="454" on="0"/>
        <pt x="165" y="548" on="1"/>
        <pt x="270" y="649" on="0"/>
        <pt x="413" y="648" on="1"/>
        <pt x="419" y="648" on="1"/>
        <pt x="457" y="764" on="1"/>
        <pt x="511" y="764" on="1"/>
        <pt x="472" y="643" on="1"/>
        <pt x="565" y="626" on="0"/>
        <pt x="611" y="560" on="1"/>
        <pt x="655" y="498" on="0"/>
        <pt x="655" y="404" on="1"/>
        <pt x="655" y="358" on="0"/>
      </contour>
      <contour>
        <pt x="567" y="308" on="1"/>
        <pt x="577" y="351" on="0"/>
        <pt x="577" y="394" on="1"/>
        <pt x="577" y="547" on="0"/>
        <pt x="450" y="575" on="1"/>
        <pt x="280" y="56" on="1"/>
        <pt x="385" y="55" on="0"/>
        <pt x="467" y="131" on="1"/>
        <pt x="541" y="201" on="0"/>
      </contour>
      <contour>
        <pt x="398" y="581" on="1"/>
        <pt x="276" y="581" on="0"/>
        <pt x="191" y="473" on="1"/>
        <pt x="110" y="372" on="0"/>
        <pt x="110" y="249" on="1"/>
        <pt x="110" y="181" on="0"/>
        <pt x="139" y="132" on="1"/>
        <pt x="171" y="80" on="0"/>
        <pt x="229" y="64" on="1"/>
      </contour>
    </TTGlyph>
</ttFont>
